{"glyphs":{"0":{"ha":865,"x_min":54,"x_max":803,"o":"m 407 -4 l 407 -4 q 585 26 507 -17 q 714 143 664 67 q 801 449 799 272 q 779 688 803 575 q 633 942 740 879 q 507 982 583 968 q 475 986 497 983 q 421 1016 451 1010 q 360 1007 390 1022 q 333 994 350 1001 q 314 988 317 988 q 239 943 267 967 q 99 713 143 857 q 67 419 54 567 q 116 227 76 318 q 228 74 156 136 q 407 -4 300 11 m 429 200 l 429 200 q 318 271 361 208 q 264 439 275 333 q 271 578 258 510 q 308 701 283 647 q 367 785 333 756 q 381 794 371 789 q 429 783 403 789 q 453 781 436 783 q 478 778 469 778 q 536 761 518 771 q 563 718 549 756 q 585 644 578 681 q 601 451 603 554 q 551 260 600 338 q 429 200 504 192 z "},"1":{"ha":585,"x_min":44,"x_max":468,"o":"m 465 89 l 465 89 q 465 682 468 182 q 463 839 464 785 q 461 897 463 876 q 456 936 458 922 q 446 960 451 949 q 368 1008 419 1004 q 263 960 303 1013 q 236 901 246 938 q 228 868 236 876 l 207 839 q 175 809 196 825 q 136 782 154 793 l 93 754 q 53 704 61 733 q 54 647 44 675 q 87 599 64 618 q 140 576 110 579 q 201 593 169 572 l 271 639 q 271 94 275 228 q 288 32 269 56 q 336 0 307 8 q 394 -1 365 -8 q 444 28 424 6 q 465 89 464 50 z "},"2":{"ha":832,"x_min":60,"x_max":811,"o":"m 710 -8 l 710 -8 q 771 11 747 -8 q 803 60 794 31 q 803 118 811 89 q 774 167 796 147 q 713 189 751 188 q 506 193 507 193 q 382 190 464 193 q 303 190 336 188 q 322 214 311 203 l 365 254 q 668 615 638 554 q 686 794 707 700 q 588 955 663 899 q 418 1013 513 1011 q 254 969 333 1013 q 131 847 175 925 q 100 761 108 813 q 94 731 100 760 q 90 711 93 718 q 101 632 79 663 q 160 592 124 601 q 233 600 197 583 q 281 663 268 617 l 288 699 q 292 725 288 713 q 299 747 296 742 q 349 796 317 778 q 417 814 382 814 q 496 749 482 814 q 492 701 501 722 q 306 486 479 675 q 104 253 131 296 q 86 107 60 175 q 211 6 114 31 q 390 -7 276 -11 q 506 -4 467 -4 q 548 -5 519 -4 q 610 -6 576 -6 q 670 -6 643 -6 q 710 -8 697 -7 z "},"3":{"ha":811,"x_min":56,"x_max":767,"o":"m 154 92 l 154 92 q 258 22 197 46 q 388 -4 319 -1 q 523 11 457 -7 q 643 66 589 29 q 729 158 697 103 q 760 325 767 222 q 632 556 750 471 q 692 694 688 615 q 614 899 700 806 q 492 985 563 954 q 333 1010 421 1015 q 165 951 244 1004 q 108 892 135 931 l 94 869 q 85 857 89 861 q 63 786 56 821 q 100 729 71 751 q 165 708 129 707 q 229 743 201 708 q 247 769 236 753 l 260 789 l 268 799 q 383 826 328 835 q 479 774 439 817 q 510 707 511 739 q 465 656 507 679 q 435 646 456 650 q 403 639 414 642 q 390 642 396 640 q 323 622 353 646 q 288 561 293 599 q 297 510 285 535 q 331 472 308 486 q 410 453 365 442 q 576 314 569 419 q 571 250 579 265 q 517 203 554 221 q 436 181 481 186 q 351 185 392 176 q 288 217 311 193 q 275 240 282 222 l 264 267 q 249 300 256 286 q 192 348 228 340 q 125 339 157 356 q 79 290 93 322 q 85 217 65 257 q 94 196 89 210 l 107 167 q 154 92 128 119 z "},"4":{"ha":818,"x_min":39,"x_max":797,"o":"m 503 0 l 503 0 q 569 25 540 0 q 600 94 599 50 q 601 250 601 167 l 701 253 q 772 282 747 253 q 797 350 797 311 q 772 418 797 389 q 701 447 747 447 l 603 443 q 590 922 599 708 q 560 984 589 958 q 494 1010 532 1010 q 389 932 431 1010 q 92 504 279 724 q 51 444 64 472 q 39 382 39 417 q 83 294 39 325 q 197 256 126 263 q 407 247 282 249 l 406 97 q 435 26 406 51 q 503 0 464 0 m 288 439 l 288 439 l 407 588 q 408 440 408 542 q 288 439 329 443 z "},"5":{"ha":801,"x_min":56,"x_max":767,"o":"m 418 -1 l 418 -1 q 560 39 489 1 q 738 246 704 115 q 699 481 767 364 q 597 595 660 546 q 458 668 535 644 q 301 679 382 692 q 314 803 303 692 l 633 803 q 695 822 672 803 q 726 871 718 842 q 726 929 733 900 q 695 978 718 958 q 633 997 672 997 q 240 996 376 997 q 183 977 208 996 q 150 928 158 958 q 136 892 139 911 q 96 546 115 701 q 116 476 92 507 q 179 440 140 446 q 214 443 197 439 q 250 453 233 444 q 300 482 253 454 q 319 490 314 490 q 441 472 379 503 q 536 385 503 442 q 554 293 565 336 q 471 206 542 243 q 410 188 439 189 q 307 197 340 185 q 283 207 294 201 q 246 225 271 213 l 199 251 q 123 256 157 271 q 72 208 89 242 q 63 140 56 175 q 113 82 71 104 l 204 36 q 243 18 225 25 q 418 -1 311 -6 z "},"6":{"ha":842,"x_min":57,"x_max":793,"o":"m 394 -3 l 394 -3 q 582 6 500 -25 q 715 108 664 38 q 776 272 767 179 q 715 518 793 406 q 611 608 678 572 q 513 644 567 632 q 406 651 460 656 q 306 622 351 646 q 274 601 289 613 q 341 747 293 692 q 446 810 389 803 q 473 808 465 808 q 488 806 481 808 q 511 796 494 804 l 531 783 q 554 767 538 778 l 585 744 q 647 726 617 722 q 699 750 676 729 q 731 800 721 771 q 733 859 742 829 q 693 910 725 889 q 635 946 664 924 q 574 987 607 968 q 499 1008 542 1006 q 426 1008 467 1013 q 274 951 342 999 q 163 835 204 904 q 97 688 121 765 q 68 529 72 610 q 131 208 57 361 q 235 77 167 133 q 394 -3 303 21 m 439 192 l 439 192 q 285 343 329 219 l 331 390 q 397 444 371 431 q 443 451 414 454 q 558 401 524 446 q 585 297 592 356 q 539 208 578 238 q 439 192 500 176 z "},"7":{"ha":767,"x_min":42,"x_max":736,"o":"m 354 63 l 354 63 q 397 165 363 81 q 446 279 432 249 l 488 372 q 522 440 497 393 q 576 542 546 486 q 631 646 606 599 q 707 819 694 767 q 693 960 736 904 q 647 992 676 982 q 629 997 639 996 q 604 1001 618 1000 q 546 1004 590 1003 q 388 1007 482 1007 q 136 1006 242 1007 q 65 974 89 1004 q 42 906 42 944 q 67 840 43 868 q 139 811 92 811 q 386 813 192 813 l 486 813 q 460 758 476 796 q 440 720 457 754 q 399 636 422 686 q 353 538 376 586 q 314 456 329 489 l 268 356 q 218 239 253 322 l 176 138 q 169 74 160 103 q 201 27 178 46 q 255 4 225 8 q 313 13 285 0 q 354 63 340 26 z "},"8":{"ha":835,"x_min":75,"x_max":776,"o":"m 421 -6 l 421 -6 q 607 42 522 -6 q 733 167 692 88 q 757 335 776 247 q 660 493 738 422 q 736 626 718 549 q 732 774 754 704 q 671 886 714 836 q 567 965 628 936 q 433 994 507 994 q 276 958 346 994 q 160 863 206 922 q 101 729 115 803 q 106 599 89 663 q 167 486 122 535 q 98 378 121 439 q 81 253 75 317 q 181 66 90 138 q 421 -6 272 -6 m 421 178 l 421 178 q 306 203 344 178 q 263 268 267 228 q 284 341 260 306 q 351 388 308 376 q 378 389 358 390 q 440 385 438 385 q 483 396 464 385 q 519 371 500 386 q 571 251 601 310 q 515 200 556 222 q 421 178 475 178 m 360 578 q 292 624 311 592 q 282 696 274 656 q 330 777 290 743 q 433 811 369 811 q 512 786 479 811 q 556 722 544 761 q 553 654 567 686 q 497 601 539 622 q 461 592 482 594 q 390 585 431 593 l 360 578 l 360 578 z "},"9":{"ha":814,"x_min":42,"x_max":717,"o":"m 679 92 l 679 92 q 710 803 708 435 q 707 858 717 831 q 672 903 697 886 q 293 994 469 1038 q 154 921 213 975 q 69 793 97 867 q 47 649 42 728 q 92 504 51 569 q 214 393 136 433 q 394 351 292 353 q 482 365 433 351 q 504 372 489 367 q 488 111 497 218 q 501 48 483 72 q 547 13 518 24 q 604 8 575 3 q 655 33 633 13 q 679 92 676 54 m 397 535 l 397 535 q 247 600 288 536 q 229 684 224 638 q 263 767 235 731 q 339 817 292 804 q 515 783 414 836 q 513 563 515 667 q 496 560 504 563 q 431 542 493 560 q 397 535 408 535 z "}," ":{"ha":375,"x_min":0,"x_max":0,"o":""}," ":{"ha":375,"x_min":0,"x_max":0,"o":""},"A":{"ha":849,"x_min":-3,"x_max":850,"o":"m 14 57 l 14 57 q 67 5 31 18 q 141 5 104 -8 q 196 57 178 18 l 264 240 q 572 243 417 247 l 653 60 q 695 11 668 25 q 752 1 722 -3 q 806 22 782 4 q 840 69 831 40 q 836 133 850 97 l 740 383 l 619 682 l 517 938 q 472 983 501 967 q 411 993 442 999 q 358 975 382 992 q 324 932 335 958 l 13 131 q 14 57 -3 94 m 344 439 l 344 439 l 424 639 l 497 439 q 409 439 447 439 q 344 439 371 439 z "},"B":{"ha":979,"x_min":101,"x_max":939,"o":"m 493 -4 l 493 -4 q 806 86 689 4 q 911 211 885 143 q 914 376 939 281 q 782 540 885 486 q 811 578 800 551 q 838 751 850 672 q 738 911 822 847 q 469 996 638 986 q 340 997 415 1000 q 309 995 331 996 q 265 994 288 994 q 229 993 242 993 q 182 978 203 992 q 124 941 146 971 q 104 872 101 911 q 114 716 111 793 q 118 551 117 639 q 118 353 119 464 q 117 121 117 186 q 114 101 114 111 q 129 49 114 72 q 169 13 144 25 q 214 1 189 1 q 225 3 219 1 q 263 0 239 1 q 308 -2 286 -1 q 340 -3 331 -3 q 493 -4 429 -7 m 485 186 l 485 186 q 350 188 431 185 q 308 190 335 189 q 310 400 308 203 l 329 397 q 465 399 347 397 q 601 394 550 401 q 726 329 714 382 q 731 279 736 293 q 694 243 726 265 q 485 186 624 192 m 507 603 l 507 603 q 310 611 435 597 q 303 796 307 711 q 347 797 331 797 q 458 797 413 800 q 625 750 569 790 q 647 718 644 733 q 635 658 651 696 q 507 603 615 613 z "},"C":{"ha":986,"x_min":44,"x_max":946,"o":"m 533 -17 l 533 -17 q 724 14 635 -17 q 864 115 813 44 q 898 174 885 146 q 925 240 911 203 l 938 275 q 946 313 946 296 q 916 378 946 351 q 849 406 886 406 q 767 350 794 406 l 744 294 q 714 226 728 246 q 656 185 694 200 q 561 169 617 169 q 421 192 488 169 q 326 247 354 214 q 263 360 290 292 q 235 497 235 429 q 278 655 235 581 q 394 775 322 729 q 544 819 465 819 q 638 803 592 819 q 711 751 683 786 l 772 679 q 840 646 800 646 q 908 674 878 646 q 938 740 938 703 q 906 810 938 772 q 835 890 865 860 q 775 940 806 921 q 704 976 744 960 q 543 1007 625 1007 q 375 974 456 1007 q 227 883 294 942 q 114 744 160 824 q 44 494 44 626 q 64 365 44 438 q 115 228 83 293 q 182 122 146 163 q 331 21 238 58 q 533 -17 425 -17 z "},"D":{"ha":967,"x_min":103,"x_max":919,"o":"m 219 0 l 219 0 q 314 0 239 0 q 418 0 389 -1 q 649 49 561 7 q 794 165 732 90 q 888 331 857 239 q 918 529 917 421 q 883 728 919 636 q 774 885 846 819 q 690 944 736 919 q 593 982 644 969 q 500 1000 540 993 q 435 1005 472 1004 q 365 1004 399 1006 q 315 1001 332 1003 q 235 994 289 1000 q 210 990 222 994 q 140 964 169 992 q 108 899 110 936 q 106 499 103 835 q 107 99 108 161 q 135 31 107 60 q 201 1 163 3 q 219 0 210 0 m 410 190 l 410 190 q 301 192 369 189 q 301 322 301 250 q 299 468 300 394 q 299 604 299 542 q 300 807 299 675 q 506 804 424 817 q 643 743 589 792 q 708 635 688 703 q 724 493 728 568 q 690 356 719 418 q 563 221 646 261 q 410 190 513 197 z "},"E":{"ha":903,"x_min":103,"x_max":867,"o":"m 768 -1 l 768 -1 q 828 18 806 -1 q 859 66 851 38 q 859 123 867 94 q 828 171 851 151 q 768 190 806 190 q 297 193 579 190 q 296 413 299 257 q 706 414 360 414 q 767 433 744 414 q 798 481 790 453 q 798 538 806 510 q 767 586 790 567 q 706 606 744 606 q 294 604 361 606 q 300 804 296 719 q 532 806 378 806 q 764 804 686 804 q 824 824 801 804 q 854 872 847 843 q 853 928 861 900 q 822 976 844 957 q 761 996 799 996 q 488 996 660 994 q 214 994 315 996 q 160 976 183 993 q 125 931 136 958 q 117 897 118 915 q 104 504 103 754 q 106 113 107 161 q 122 58 106 83 q 156 19 133 35 q 207 3 179 3 q 768 -1 563 -1 z "},"F":{"ha":839,"x_min":103,"x_max":819,"o":"m 113 97 l 113 97 q 132 35 113 58 q 181 5 151 13 q 239 5 210 -3 q 288 35 268 13 q 307 97 307 58 l 307 424 q 672 428 506 425 q 742 459 719 429 q 765 527 765 489 q 740 594 764 565 q 667 622 715 622 q 306 618 501 618 q 301 804 304 715 q 718 803 460 806 q 788 831 761 803 q 817 898 815 860 q 789 968 819 936 q 721 997 760 997 q 204 997 396 1000 l 197 997 q 130 965 157 994 q 104 896 103 936 q 109 760 107 835 q 112 619 111 686 q 114 513 113 553 q 114 369 114 446 q 113 222 114 293 q 113 97 113 150 z "},"G":{"ha":1021,"x_min":43,"x_max":976,"o":"m 874 160 l 874 160 q 944 288 928 225 q 952 345 950 313 q 953 411 954 378 l 953 443 q 924 515 954 486 q 854 544 894 544 q 600 540 713 544 q 540 519 563 539 q 512 470 518 499 q 515 413 506 442 q 547 366 524 385 q 608 349 571 347 q 761 353 721 354 q 757 335 760 344 q 725 283 753 315 q 575 195 665 211 q 400 222 485 179 q 268 356 314 265 q 242 545 224 450 q 332 713 260 640 q 492 801 401 785 q 679 767 582 817 q 715 740 696 756 q 744 708 735 724 l 767 678 l 794 642 q 861 602 824 604 q 929 624 899 600 q 968 683 960 647 q 949 757 976 719 q 910 808 931 781 q 865 861 889 835 q 824 899 846 882 q 775 931 803 917 q 561 996 672 992 q 358 960 450 1000 q 194 846 268 921 q 83 681 122 774 q 44 478 43 589 q 99 267 46 368 q 211 122 140 185 q 368 29 282 60 q 543 -1 454 -1 q 719 38 632 -3 q 874 160 807 79 z "},"H":{"ha":1028,"x_min":100,"x_max":924,"o":"m 301 96 l 301 96 l 301 96 q 299 436 301 208 q 728 444 583 446 l 728 96 q 747 34 728 57 q 796 3 767 11 q 854 3 825 -4 q 903 34 883 11 q 922 96 922 57 q 924 899 922 808 q 895 970 924 946 q 828 995 867 994 q 760 972 790 996 q 729 901 731 949 q 728 639 728 792 q 296 631 581 639 q 297 897 294 792 q 269 969 297 944 q 202 996 240 994 q 134 974 164 997 q 103 903 104 951 q 104 489 100 771 q 107 99 108 206 q 126 37 107 60 q 175 6 146 14 q 233 5 204 -3 q 282 35 263 13 q 301 96 301 58 z "},"I":{"ha":474,"x_min":58,"x_max":415,"o":"m 158 -4 l 158 -4 l 321 0 q 388 31 361 1 q 415 100 415 60 q 391 161 414 135 q 333 193 368 188 q 331 799 335 433 q 388 832 365 806 q 411 893 411 858 q 383 963 411 933 q 315 992 356 992 l 158 993 q 89 965 118 993 q 60 897 60 938 q 82 835 60 861 q 138 801 104 808 q 139 189 140 431 q 81 155 104 183 q 58 90 58 126 q 89 23 60 50 q 158 -4 118 -4 z "},"J":{"ha":754,"x_min":6,"x_max":765,"o":"m 371 4 l 371 4 q 494 90 440 31 q 568 224 547 150 q 601 439 593 311 q 608 556 607 504 q 605 665 608 608 q 596 803 601 721 q 663 800 629 803 q 735 826 710 799 q 763 892 761 854 q 743 961 765 931 q 674 994 721 992 q 325 994 539 1001 q 258 963 283 993 q 232 894 232 933 q 264 826 232 856 q 333 800 293 799 q 401 803 372 801 q 412 636 407 725 q 412 456 417 547 q 382 276 407 364 q 350 220 374 246 q 299 183 326 194 q 229 208 257 167 q 218 238 224 215 l 214 256 q 211 268 211 267 q 200 307 206 290 q 162 358 188 343 q 107 372 136 374 q 53 354 78 371 q 17 310 28 338 q 17 246 6 282 q 22 222 19 238 q 31 189 31 190 q 68 100 44 135 q 160 15 107 44 q 265 -15 213 -15 q 371 4 317 -15 z "},"K":{"ha":944,"x_min":100,"x_max":913,"o":"m 735 28 q 800 -10 761 -7 q 871 10 839 -12 q 907 76 903 33 q 888 147 913 117 l 568 558 q 846 843 710 688 q 874 902 872 872 q 859 958 875 932 q 817 997 843 983 q 760 1008 790 1011 q 704 976 731 1004 q 300 581 518 767 q 300 913 297 736 q 272 984 300 960 q 205 1009 243 1008 q 137 986 167 1010 q 106 915 107 963 q 121 82 100 510 q 154 11 124 33 q 223 -9 185 -11 q 289 18 261 -7 q 315 90 317 43 q 306 333 310 221 l 422 429 l 735 28 l 735 28 z "},"L":{"ha":800,"x_min":104,"x_max":792,"o":"m 219 -3 l 219 -3 q 458 -3 265 -4 q 696 -1 650 -1 q 768 27 744 -1 q 792 93 792 56 q 768 159 792 131 q 696 188 744 188 q 506 186 635 188 q 307 185 375 185 l 303 535 l 299 899 q 267 969 297 946 q 199 992 238 993 q 133 967 161 992 q 104 896 104 943 l 108 506 q 114 104 113 246 q 143 36 115 64 q 219 -3 172 -1 z "},"M":{"ha":1197,"x_min":101,"x_max":1094,"o":"m 1092 93 l 1092 93 q 1090 490 1094 218 q 1090 893 1086 761 q 1064 963 1092 933 q 996 993 1036 992 q 910 944 939 994 q 604 569 754 778 l 296 957 q 233 994 272 989 q 194 1000 215 1001 q 128 967 154 997 q 104 896 101 936 q 114 692 111 790 q 115 608 115 658 q 116 501 115 558 q 117 390 117 444 q 117 293 117 335 q 115 97 115 156 q 135 35 115 58 q 183 5 154 13 q 242 5 213 -3 q 290 35 271 13 q 310 97 310 58 q 311 363 310 99 q 310 628 311 625 l 524 358 q 550 335 535 344 q 557 329 553 332 q 629 315 590 307 q 692 356 668 322 q 894 632 792 503 q 897 99 900 189 q 915 36 896 60 q 963 4 933 13 q 1021 3 992 -4 q 1070 32 1050 10 q 1092 93 1090 54 z "},"N":{"ha":1043,"x_min":101,"x_max":940,"o":"m 842 6 l 842 6 q 907 35 881 8 q 935 101 933 63 q 939 906 940 717 q 908 976 938 953 q 840 999 878 1000 q 773 974 801 999 q 744 903 744 950 q 743 379 747 701 l 676 475 q 446 772 524 692 q 367 868 419 804 q 290 960 314 931 q 244 990 271 982 q 207 999 226 997 q 138 972 167 1000 q 107 904 108 944 q 110 492 101 764 q 117 96 117 218 q 136 34 117 57 q 185 3 156 11 q 243 3 214 -4 q 292 34 272 11 q 311 96 311 57 q 306 414 311 222 q 299 660 300 604 q 517 364 363 582 q 751 39 658 149 q 842 6 788 -4 z "},"O":{"ha":1017,"x_min":42,"x_max":974,"o":"m 461 -12 l 461 -12 q 669 33 575 -17 q 831 166 763 82 q 935 349 899 250 q 972 558 971 449 q 928 768 974 667 q 783 936 881 869 q 696 981 740 965 q 625 999 651 996 q 553 1003 597 1001 q 532 1004 542 1003 q 500 1006 522 1006 l 471 1006 q 392 997 426 1006 q 235 915 304 972 q 125 783 165 857 q 63 626 83 708 q 44 450 42 544 q 149 142 47 278 q 278 33 197 75 q 461 -12 358 -8 m 469 178 l 469 178 q 348 216 399 179 q 269 315 297 253 q 239 457 240 378 q 292 683 236 589 q 447 813 349 776 q 485 817 467 819 q 511 815 504 817 q 533 811 518 813 q 575 808 549 810 q 618 801 601 807 q 645 790 633 796 q 675 771 657 783 q 770 626 747 721 q 750 415 793 532 q 680 292 724 346 q 582 207 636 238 q 469 178 528 176 z "},"P":{"ha":869,"x_min":104,"x_max":864,"o":"m 303 88 l 303 88 q 300 390 303 181 q 352 383 314 386 q 429 379 390 381 q 488 379 468 378 q 654 417 572 383 q 790 510 736 450 q 849 620 835 557 q 847 751 864 683 q 779 881 829 819 q 493 1013 682 1000 q 228 990 397 1018 q 221 989 224 989 q 207 990 214 990 q 138 963 167 990 q 107 896 108 936 q 105 815 106 876 q 104 669 104 754 q 105 492 104 585 q 106 315 106 400 q 108 169 107 231 q 108 88 108 107 q 138 19 108 47 q 206 -10 167 -11 q 274 18 246 -8 q 303 88 303 44 m 479 574 l 479 574 q 428 574 454 572 q 365 578 401 575 l 300 585 l 299 585 q 300 806 299 713 q 481 818 411 822 q 629 758 585 813 q 660 691 658 722 q 644 639 663 660 q 576 594 622 613 q 479 574 531 575 z "},"Q":{"ha":1050,"x_min":44,"x_max":1018,"o":"m 885 -12 l 885 -12 q 949 -20 921 -29 q 995 12 978 -11 q 1015 65 1013 35 q 1006 122 1018 94 q 960 163 993 149 l 911 183 q 938 219 926 201 q 994 372 978 288 q 1004 544 1011 456 q 967 715 997 633 q 832 919 919 839 q 728 993 778 969 q 621 1018 679 1017 q 526 1011 588 1019 l 511 1008 q 410 1021 465 1047 q 390 1011 408 1019 q 346 991 371 1003 q 301 969 321 979 q 276 957 281 960 q 151 829 204 904 q 72 671 99 754 q 44 497 44 588 q 71 323 44 406 q 160 169 97 240 q 313 51 222 97 q 430 8 375 22 q 541 -3 485 -6 q 667 19 597 -1 q 744 51 704 32 q 885 -12 803 21 m 544 188 q 397 224 485 182 q 296 310 336 254 q 243 430 256 364 q 240 564 231 496 q 289 696 250 631 q 388 801 328 758 q 397 807 393 804 q 407 813 401 810 q 440 808 424 808 q 553 822 482 813 q 615 828 597 828 q 703 778 650 826 q 772 682 744 740 q 810 558 800 624 q 811 430 819 493 q 774 318 803 367 q 739 279 763 300 q 638 358 692 313 q 567 383 606 388 q 503 350 529 378 q 479 282 476 322 q 511 217 482 242 l 544 188 l 544 188 z "},"R":{"ha":951,"x_min":104,"x_max":908,"o":"m 710 74 l 710 74 q 744 19 719 36 q 798 1 768 1 q 854 15 828 0 q 894 56 881 29 q 899 121 908 83 q 858 292 878 224 q 813 409 838 361 q 756 496 789 457 q 894 707 886 574 q 786 924 901 843 q 578 997 710 978 q 208 999 407 1024 l 201 999 q 133 970 161 999 q 104 901 104 942 q 107 513 104 772 q 110 96 110 253 q 129 34 110 57 q 178 3 149 11 q 236 3 207 -4 q 285 34 265 11 q 304 96 304 57 q 303 415 304 226 l 344 415 q 428 418 374 417 q 456 419 429 418 q 497 421 482 419 q 597 381 563 413 q 654 289 629 351 q 710 74 678 217 m 300 610 q 299 813 299 728 q 547 806 442 822 q 676 764 635 793 q 700 718 703 746 q 653 660 699 686 q 521 618 603 632 q 501 615 513 617 q 304 610 419 624 l 300 610 l 300 610 z "},"S":{"ha":843,"x_min":50,"x_max":797,"o":"m 429 -12 l 429 -12 q 606 26 521 -12 q 744 133 692 64 q 797 289 797 201 q 761 425 797 371 q 638 528 725 479 q 426 610 585 557 q 299 665 344 636 q 254 740 254 694 q 294 799 254 776 q 394 822 333 822 q 474 814 446 822 q 536 786 501 806 q 578 753 563 771 q 603 701 594 735 q 636 660 610 676 q 690 643 663 643 q 761 673 731 643 q 792 744 792 703 q 738 884 792 822 q 597 979 685 946 q 415 1010 510 1013 q 242 975 324 1010 q 111 875 161 940 q 61 722 61 810 q 138 542 61 608 q 365 426 214 476 q 544 357 504 379 q 603 288 603 324 q 553 204 603 233 q 432 175 503 175 q 269 214 301 175 q 249 256 253 233 q 244 314 244 279 q 219 377 244 349 q 154 406 194 406 q 82 374 114 406 q 50 288 50 343 q 100 126 50 196 q 236 21 150 57 q 429 -12 322 -15 z "},"T":{"ha":790,"x_min":11,"x_max":782,"o":"m 486 96 l 486 96 q 485 493 488 139 q 490 806 483 685 q 686 807 599 807 q 746 826 724 807 q 775 875 768 846 q 774 933 782 904 q 742 982 765 963 q 681 1001 719 1001 q 588 1001 646 1001 q 462 1001 531 1001 q 324 1001 393 1001 q 198 999 256 1000 q 106 999 140 999 q 35 967 58 997 q 12 899 11 938 q 37 833 13 861 q 108 804 61 804 q 296 806 185 806 q 290 492 289 679 q 292 99 293 142 q 320 27 292 51 q 387 2 349 3 q 455 25 425 1 q 486 96 485 49 z "},"U":{"ha":989,"x_min":74,"x_max":918,"o":"m 140 163 l 140 163 q 294 35 200 76 q 485 -1 389 -7 q 669 51 579 4 q 814 176 760 97 q 915 553 910 317 q 911 738 918 625 q 903 901 903 874 q 872 973 901 950 q 803 994 842 996 q 737 968 765 993 q 708 896 708 943 q 718 726 710 865 q 722 558 724 622 q 653 285 718 379 q 544 204 614 228 q 407 200 476 182 q 299 274 338 218 q 276 365 283 296 q 272 543 268 433 q 283 738 274 593 q 292 881 289 826 q 265 967 296 935 q 197 996 238 994 q 128 968 157 996 q 99 900 100 940 q 90 751 99 865 q 78 549 81 615 q 83 343 74 426 q 140 163 96 225 z "},"V":{"ha":854,"x_min":15,"x_max":844,"o":"m 465 -1 l 465 -1 q 479 7 472 1 q 524 58 511 24 q 613 303 554 138 l 718 594 q 829 864 765 722 q 836 928 844 900 q 804 976 828 957 q 751 999 781 994 q 694 990 721 1003 q 651 942 667 976 q 425 353 558 728 q 321 642 386 454 l 214 935 q 162 992 197 981 q 90 991 126 1004 q 35 945 54 978 q 31 868 15 913 q 132 592 60 790 l 240 293 q 338 49 283 175 q 390 -3 353 13 q 465 -1 428 -18 z "},"W":{"ha":1283,"x_min":19,"x_max":1275,"o":"m 332 -1 l 332 -1 q 392 12 365 -6 q 432 61 419 29 l 642 638 q 706 460 671 568 q 838 64 769 257 q 884 10 853 26 q 951 3 915 -7 q 1002 25 981 6 q 1032 74 1024 44 l 1078 231 l 1132 396 q 1185 600 1144 439 q 1264 876 1225 761 q 1263 942 1275 914 q 1224 985 1250 969 q 1169 1001 1199 1000 q 1114 985 1139 1001 q 1078 932 1089 968 q 989 601 1039 815 q 926 353 938 388 l 865 563 l 767 842 q 714 976 742 956 q 653 996 686 996 q 599 980 624 996 q 563 936 574 964 q 351 363 454 643 q 217 922 258 739 q 185 978 208 960 q 131 998 161 996 q 75 987 101 1000 q 34 947 49 974 q 28 883 19 921 q 135 460 74 701 q 233 74 203 200 q 268 15 240 38 q 332 -1 296 -7 z "},"X":{"ha":824,"x_min":18,"x_max":810,"o":"m 200 39 l 200 39 l 414 338 q 633 40 536 168 q 692 -1 657 3 q 758 14 728 -6 q 799 67 788 33 q 785 138 810 100 q 526 489 678 294 l 771 840 q 790 914 799 878 q 751 972 782 950 q 683 993 721 994 q 617 954 646 992 l 406 644 q 193 956 271 844 q 133 997 168 993 q 67 980 97 1000 q 28 926 38 960 q 44 856 18 892 q 293 494 126 722 l 46 153 q 28 78 18 114 q 67 19 38 42 q 135 -1 97 -3 q 200 39 172 1 z "},"Y":{"ha":817,"x_min":8,"x_max":822,"o":"m 319 92 l 319 92 q 341 31 321 53 q 390 1 361 8 q 449 3 419 -6 q 497 35 478 11 q 514 97 515 58 q 513 256 513 147 q 511 396 513 364 q 640 603 558 479 q 801 847 793 833 q 818 910 822 881 q 793 962 814 940 q 744 992 772 983 q 686 991 715 1000 q 638 950 657 982 l 479 711 l 404 594 q 196 946 242 864 q 149 990 178 979 q 92 994 121 1001 q 41 967 63 988 q 14 917 19 946 q 26 854 8 888 q 179 592 76 760 l 318 361 l 318 282 q 319 188 318 247 q 319 92 319 126 z "},"Z":{"ha":856,"x_min":24,"x_max":835,"o":"m 422 0 l 422 0 q 738 6 686 6 q 805 34 782 6 q 828 99 828 63 q 805 165 828 136 q 738 193 782 193 q 418 188 683 193 q 306 190 351 190 l 333 225 q 697 668 628 582 q 810 828 765 753 q 814 836 811 832 q 835 899 835 863 q 808 965 835 938 q 743 993 781 993 q 622 992 693 993 q 473 989 550 990 q 329 989 396 988 q 139 996 231 990 q 80 981 103 999 q 48 935 57 964 q 44 878 39 907 q 70 829 50 850 q 128 806 90 808 q 569 801 268 796 q 186 338 526 724 q 56 171 96 215 q 25 104 26 143 q 49 36 24 65 q 113 6 74 7 q 422 0 233 0 z "},"a":{"ha":797,"x_min":50,"x_max":722,"o":"m 346 -1 l 346 -1 q 454 24 400 1 q 532 81 500 42 q 569 17 543 35 q 626 1 594 0 q 690 31 665 3 q 719 100 714 60 q 722 142 722 119 q 718 232 721 163 l 715 307 q 708 515 711 454 l 699 611 q 667 672 694 647 q 606 697 640 697 l 592 696 l 585 696 q 522 725 554 717 q 432 736 474 736 q 226 665 317 736 q 86 479 136 594 q 50 304 50 397 q 58 221 50 264 q 117 100 69 156 q 238 18 165 46 q 346 -1 296 -1 m 347 194 l 347 194 q 308 201 329 194 q 242 300 242 225 q 264 397 242 343 q 338 506 292 467 q 435 544 385 544 q 469 539 447 544 l 482 531 l 501 515 l 515 506 q 522 308 522 425 q 503 294 511 304 l 479 261 l 458 242 q 433 221 444 228 q 347 194 389 194 z "},"b":{"ha":817,"x_min":75,"x_max":788,"o":"m 171 1 l 171 1 q 246 49 215 0 l 263 38 q 471 4 353 -10 q 628 60 563 14 q 728 178 693 106 q 747 446 788 303 q 597 683 708 600 q 458 743 533 732 q 293 722 382 754 l 274 714 q 274 813 274 744 q 272 903 272 881 q 241 974 271 950 q 173 997 211 997 q 106 972 135 996 q 78 900 78 947 q 76 101 85 347 q 103 33 75 63 q 171 1 131 3 m 451 196 l 451 196 q 354 210 390 190 q 328 235 344 214 l 304 265 q 275 301 289 286 q 276 463 276 368 l 278 464 q 311 507 286 486 q 365 542 356 538 q 481 529 429 567 q 560 397 538 486 q 553 261 582 324 q 451 196 525 204 z "},"c":{"ha":760,"x_min":49,"x_max":726,"o":"m 519 6 l 519 6 q 632 74 585 25 q 685 157 663 104 q 698 185 690 167 q 710 213 706 203 q 719 274 726 246 q 690 322 713 303 q 640 349 668 342 q 583 344 611 356 q 538 299 556 332 q 507 232 536 296 q 490 203 497 210 q 435 177 469 182 q 353 190 401 172 q 279 249 307 208 q 249 329 251 290 q 263 418 244 371 q 315 500 282 465 q 454 538 379 568 q 479 519 463 533 q 532 475 529 476 q 592 452 563 451 q 646 471 622 453 q 681 515 669 489 q 688 571 693 542 q 651 624 682 600 l 626 644 q 608 661 611 658 q 529 711 567 696 q 392 735 460 742 q 271 701 324 728 q 174 629 217 674 q 81 483 114 568 q 54 315 49 397 q 90 191 60 250 q 169 86 121 132 q 276 17 217 40 q 394 -11 333 -6 q 519 6 456 -17 z "},"d":{"ha":811,"x_min":53,"x_max":735,"o":"m 372 -14 l 372 -14 q 483 13 439 -14 q 557 83 526 39 q 585 13 561 36 q 647 -10 610 -10 q 712 17 689 -10 q 735 94 735 44 q 728 901 735 219 q 697 971 726 946 q 631 996 668 996 q 563 970 592 996 q 533 899 533 944 q 536 715 535 878 q 400 740 471 740 q 222 685 301 740 q 97 538 142 631 q 53 335 53 444 q 99 149 53 228 q 219 28 146 69 q 372 -14 293 -14 m 407 171 l 407 171 q 290 222 335 171 q 246 350 246 272 q 265 451 246 406 q 317 525 283 497 q 399 553 351 553 q 489 529 453 553 q 524 503 510 514 q 539 488 536 490 q 542 313 539 432 q 525 281 535 306 q 481 200 506 225 q 407 171 451 171 z "},"e":{"ha":799,"x_min":56,"x_max":757,"o":"m 421 -12 l 421 -12 q 563 11 493 -12 q 678 75 633 35 q 722 160 722 115 q 698 216 722 192 q 638 240 674 240 q 588 226 606 240 q 549 190 569 211 q 504 163 529 172 q 438 153 479 154 q 301 188 346 150 q 247 294 256 226 l 296 293 q 460 289 383 289 q 644 299 540 289 q 726 329 696 303 q 757 403 757 356 q 718 572 757 496 q 603 692 679 647 q 417 736 525 736 q 228 685 311 736 q 100 546 144 633 q 56 336 56 457 q 99 161 56 240 q 226 35 143 82 q 421 -12 310 -12 m 250 436 l 250 436 q 304 539 260 508 q 419 571 349 569 q 537 536 504 572 q 572 440 569 500 q 432 428 528 429 q 250 436 332 425 z "},"f":{"ha":519,"x_min":17,"x_max":536,"o":"m 215 0 l 215 0 q 283 24 254 0 q 313 89 311 47 l 314 142 q 318 369 318 267 q 315 519 318 414 l 367 519 q 441 548 414 519 q 468 617 468 576 q 443 683 468 656 q 372 713 418 711 l 303 714 l 303 717 q 301 751 303 736 q 301 776 300 767 q 350 818 306 818 q 410 804 376 818 q 458 793 440 793 q 514 819 492 793 q 536 878 536 844 q 472 974 536 942 q 317 1007 408 1007 q 165 947 219 1004 q 111 785 111 889 l 111 708 l 92 708 q 38 681 58 708 q 17 608 17 654 q 40 544 17 569 q 106 519 64 519 l 122 519 q 124 400 124 478 q 119 153 124 286 l 118 103 q 146 27 117 54 q 215 0 175 0 z "},"g":{"ha":788,"x_min":50,"x_max":715,"o":"m 374 -286 l 374 -286 q 489 -265 439 -286 q 581 -203 539 -244 q 674 -65 640 -140 q 711 94 708 11 q 711 638 715 376 q 687 709 710 683 q 626 735 664 735 q 539 692 557 735 q 385 736 457 736 q 210 687 286 736 q 92 550 133 638 q 50 347 50 461 q 91 165 50 244 q 200 42 132 85 q 349 -3 268 -3 q 460 18 408 -3 q 540 83 513 39 q 489 -57 528 -1 q 383 -112 450 -112 q 318 -95 349 -112 q 257 -37 288 -78 q 185 -1 231 -1 q 119 -28 146 -1 q 93 -94 93 -54 q 106 -143 93 -119 q 150 -193 119 -167 q 255 -263 203 -240 q 374 -286 307 -286 m 371 178 l 371 178 q 271 224 308 178 q 233 347 233 271 q 270 500 233 444 q 385 556 307 556 q 461 545 431 556 q 524 510 492 535 q 525 303 525 478 q 506 265 518 286 q 479 229 494 244 q 371 178 428 178 z "},"h":{"ha":758,"x_min":76,"x_max":689,"o":"m 185 -6 l 185 -6 q 253 19 224 -6 q 282 90 282 44 q 276 488 282 219 q 343 535 300 514 q 426 553 383 553 q 499 511 485 553 q 506 451 503 500 l 507 394 l 506 319 l 497 93 q 524 24 496 49 q 590 -1 551 -1 q 653 21 626 -1 q 681 85 679 43 l 689 317 l 689 371 q 688 458 689 435 q 668 588 685 538 q 578 697 644 656 q 432 739 513 739 q 331 717 375 739 q 272 681 300 701 q 271 915 271 751 q 242 986 271 961 q 174 1011 213 1011 q 106 986 135 1011 q 76 915 76 961 q 82 486 76 753 q 88 90 88 219 q 117 19 88 44 q 185 -6 146 -6 z "},"i":{"ha":340,"x_min":60,"x_max":269,"o":"m 69 94 l 69 94 q 101 24 71 47 q 169 1 131 0 q 235 26 207 1 q 264 97 264 50 q 268 638 260 378 q 251 700 269 676 q 203 733 232 724 q 144 735 174 742 q 95 707 115 729 q 74 646 75 685 q 69 94 65 389 m 235 976 l 235 976 q 176 1008 207 1006 q 118 995 144 1011 q 76 953 92 979 q 63 894 60 926 q 93 835 65 863 q 152 804 121 807 q 210 817 183 801 q 253 860 238 833 q 265 919 268 888 q 235 976 263 950 z "},"j":{"ha":371,"x_min":-67,"x_max":303,"o":"m 43 -283 l 43 -283 q 64 -283 43 -281 q 83 -283 74 -283 q 100 -283 92 -283 q 215 -253 171 -283 q 278 -156 260 -224 q 294 -56 289 -115 q 303 192 303 24 q 301 306 303 243 q 298 433 300 368 q 293 553 296 497 q 289 644 289 636 q 267 706 288 683 q 218 734 247 728 q 160 732 189 740 q 112 700 131 724 q 94 639 93 676 q 99 578 97 621 q 103 479 101 535 q 106 365 104 424 q 110 190 108 268 q 101 -36 110 47 q 99 -65 100 -51 q 94 -90 97 -79 q 51 -90 69 -89 q 21 -92 32 -90 q -38 -118 -18 -96 q -62 -170 -58 -140 q -56 -228 -67 -200 q -19 -272 -44 -256 q 43 -283 6 -289 m 243 972 l 243 972 q 187 1003 217 1000 q 131 990 157 1006 q 90 949 106 975 q 77 893 75 924 q 107 836 79 863 q 165 806 135 808 q 220 819 194 804 q 261 860 246 835 q 274 916 276 886 q 243 972 271 946 z "},"k":{"ha":728,"x_min":75,"x_max":710,"o":"m 540 28 l 540 28 q 597 -3 567 0 q 653 9 626 -6 q 694 49 679 24 q 708 105 710 75 q 679 161 706 135 q 488 401 565 278 l 653 571 q 681 630 679 600 q 666 685 682 660 q 624 725 650 711 q 567 735 597 739 q 511 704 538 732 q 283 471 392 576 q 271 904 279 661 q 238 974 268 951 q 169 996 207 997 q 103 969 131 994 q 76 896 75 944 q 90 96 94 346 q 119 24 90 49 q 185 -1 147 0 q 253 22 224 -1 q 285 93 283 46 l 285 206 q 290 210 288 208 l 346 263 q 540 28 425 146 z "},"l":{"ha":349,"x_min":76,"x_max":272,"o":"m 271 79 l 271 79 q 272 194 271 126 q 272 340 272 263 q 272 492 272 417 q 272 631 272 568 q 271 907 271 796 q 251 969 271 946 q 203 999 232 992 q 144 999 174 1007 q 96 969 115 992 q 76 907 76 946 l 78 482 q 76 82 79 82 q 105 10 76 35 q 172 -15 133 -14 q 240 8 210 -15 q 271 79 269 32 z "},"m":{"ha":1185,"x_min":76,"x_max":1115,"o":"m 686 88 l 686 88 q 689 208 686 153 q 693 317 692 263 q 688 440 694 372 q 690 463 689 450 q 690 467 690 465 q 690 471 690 469 l 693 482 q 693 487 693 485 q 693 490 693 489 q 697 506 696 501 q 745 542 713 529 q 817 551 778 556 q 879 531 854 549 q 913 488 904 514 q 924 429 919 465 q 930 356 928 393 q 932 296 932 319 q 927 187 931 243 q 924 94 924 131 q 949 26 922 50 q 1012 1 975 3 q 1077 22 1049 0 q 1107 89 1106 44 q 1110 176 1107 118 q 1115 296 1114 235 q 1113 371 1115 325 q 1103 464 1110 417 q 1088 543 1097 511 q 989 678 1060 629 q 832 735 918 726 q 706 722 769 740 q 592 661 642 704 q 411 738 518 728 q 240 708 321 746 q 172 735 211 735 q 104 705 132 733 q 76 636 76 676 q 81 97 81 229 q 100 35 81 58 q 149 5 119 13 q 207 5 178 -3 q 256 35 236 13 q 275 97 275 58 q 272 488 275 235 l 272 493 q 276 508 275 504 q 324 545 292 532 q 396 554 357 558 q 458 534 433 551 q 492 490 483 517 q 503 439 499 468 q 504 428 503 433 q 510 342 508 394 q 510 256 511 290 l 507 175 q 503 93 504 117 q 528 25 501 49 q 591 0 554 1 q 656 21 628 -1 q 686 88 685 43 z "},"n":{"ha":775,"x_min":68,"x_max":706,"o":"m 697 88 l 697 88 q 701 177 697 117 q 706 303 704 238 q 703 379 706 335 q 694 467 700 424 q 678 543 688 511 q 588 681 650 629 q 426 735 525 733 q 250 650 314 731 q 163 722 238 718 q 94 692 121 722 q 75 613 68 663 q 81 517 79 574 q 85 398 83 461 q 88 275 88 335 q 89 168 89 215 q 89 97 89 121 q 108 35 89 58 q 157 5 128 13 q 215 5 186 -3 q 264 35 244 13 q 283 97 283 58 q 282 289 283 163 q 281 463 281 414 q 281 481 281 475 q 288 506 282 488 q 335 542 303 529 q 407 551 368 556 q 469 531 444 549 q 503 488 494 514 q 518 399 514 454 q 522 303 522 344 q 517 188 521 247 q 514 93 514 129 q 539 25 513 49 q 602 0 565 1 q 667 21 639 -1 q 697 88 696 43 z "},"o":{"ha":792,"x_min":47,"x_max":747,"o":"m 328 -10 l 328 -10 l 328 -10 q 518 -4 439 -32 q 632 76 583 19 q 704 197 681 133 q 735 328 728 260 q 733 467 747 393 q 678 602 718 540 q 576 694 639 664 q 401 738 532 717 q 324 740 363 756 q 307 735 318 738 q 278 726 279 726 q 196 683 228 711 q 108 575 142 638 q 60 442 74 513 q 56 301 47 371 q 139 101 69 189 q 328 -10 207 14 m 364 179 l 364 179 l 364 179 q 249 324 263 200 q 261 444 240 386 q 321 536 282 503 l 335 542 q 360 549 336 542 q 433 535 400 539 q 493 519 465 532 q 531 472 518 507 q 544 392 543 438 q 534 302 544 347 q 503 224 524 257 q 454 179 483 190 q 364 179 424 168 z "},"p":{"ha":797,"x_min":76,"x_max":753,"o":"m 271 -183 l 271 -183 q 274 43 272 -62 q 350 7 311 18 q 564 39 444 -21 q 676 128 633 74 q 735 249 718 183 q 749 383 753 315 q 721 513 744 451 q 546 710 665 654 q 260 688 410 771 q 178 733 231 733 q 109 705 138 733 q 81 636 81 676 q 76 -181 81 60 q 105 -252 76 -228 q 172 -277 133 -276 q 240 -254 210 -278 q 271 -183 269 -231 m 406 186 l 406 186 q 338 209 372 186 q 275 283 303 232 l 275 443 q 371 538 325 519 q 465 533 417 556 q 543 443 513 511 q 550 299 568 367 q 478 204 532 232 q 406 186 426 179 z "},"q":{"ha":799,"x_min":49,"x_max":725,"o":"m 715 -186 l 715 -186 q 721 640 725 279 q 691 708 719 681 q 622 736 663 736 q 571 719 594 735 q 536 679 547 704 q 331 740 429 742 q 160 668 232 738 q 74 527 100 613 q 53 357 49 442 q 88 188 56 269 q 182 54 119 106 q 345 -1 257 -4 q 525 61 433 3 q 521 -181 524 -42 q 549 -253 521 -228 q 616 -279 578 -278 q 684 -258 654 -281 q 715 -186 714 -235 m 321 204 l 321 204 q 254 287 274 239 q 236 381 235 335 q 251 460 238 428 q 290 521 271 507 q 449 538 354 571 q 501 503 481 524 q 531 463 522 482 l 529 322 q 446 204 496 228 q 321 204 396 181 z "},"r":{"ha":554,"x_min":75,"x_max":557,"o":"m 108 29 l 108 29 q 178 0 139 -1 q 245 28 217 1 q 274 99 274 56 q 271 346 272 258 q 272 472 267 428 q 490 560 363 515 q 545 608 533 575 q 545 676 557 642 q 503 728 533 710 q 429 732 472 747 q 263 663 318 693 q 227 719 251 703 q 174 735 203 735 q 105 706 133 735 q 76 624 76 678 q 78 344 76 499 q 78 313 75 329 q 79 96 78 233 q 108 29 79 57 z "},"s":{"ha":683,"x_min":38,"x_max":642,"o":"m 340 -10 l 340 -10 q 404 -6 374 -10 q 562 56 496 8 q 640 189 628 103 q 642 217 642 199 q 615 317 642 272 q 543 393 589 363 q 488 426 514 414 q 438 447 460 438 q 372 472 404 463 q 300 499 325 488 q 271 514 279 508 q 261 528 261 519 q 279 547 261 540 q 339 554 304 554 q 418 540 376 554 q 453 519 429 536 l 486 494 q 544 475 515 475 q 608 504 582 475 q 633 569 633 533 q 604 633 633 608 q 390 729 513 717 q 349 732 363 732 q 211 706 278 732 q 82 596 110 664 q 68 533 68 567 q 89 451 68 493 q 221 343 119 388 q 294 314 243 332 l 356 290 q 439 247 421 264 q 454 215 454 232 l 454 210 q 378 164 451 179 q 329 160 349 160 q 267 171 303 160 q 235 197 243 181 l 226 214 l 210 242 q 135 283 182 283 q 67 256 97 283 q 38 193 38 229 q 50 150 38 174 l 63 128 l 72 111 q 125 49 96 72 q 222 6 164 21 q 340 -10 279 -10 z "},"t":{"ha":464,"x_min":-14,"x_max":443,"o":"m 338 -3 l 338 -3 q 404 28 376 -3 q 432 99 432 60 q 389 176 432 147 q 346 201 371 190 l 335 207 l 322 214 l 311 219 l 297 229 q 290 235 296 229 q 285 389 285 300 q 286 472 285 443 q 288 557 288 500 l 339 557 q 417 584 390 557 q 443 650 443 611 q 418 717 443 690 q 343 743 393 743 l 292 743 l 294 838 q 265 910 294 883 q 196 936 235 936 q 130 912 158 936 q 100 843 101 888 l 100 800 l 99 740 l 74 740 q 13 715 39 740 q -14 650 -14 689 q 12 588 -14 613 q 72 564 38 564 l 99 564 q 97 474 97 533 q 99 286 97 326 l 99 258 q 106 170 100 200 q 135 110 111 140 q 218 50 163 82 l 254 29 q 283 15 268 21 q 338 -3 310 -3 z "},"u":{"ha":779,"x_min":64,"x_max":704,"o":"m 603 -14 l 603 -14 q 672 14 643 -14 q 701 82 701 43 q 701 639 704 433 q 680 701 700 678 q 631 731 660 724 q 573 731 601 739 q 525 699 544 722 q 506 636 506 675 q 507 271 508 475 q 490 257 499 265 q 415 184 453 197 q 347 179 378 171 q 280 226 301 190 q 253 329 258 261 q 251 396 249 353 q 259 484 254 439 q 268 558 264 529 l 278 631 q 258 703 283 676 q 197 733 233 729 q 131 718 161 738 q 93 653 100 699 q 85 585 90 631 q 74 488 79 540 q 67 389 69 436 q 68 317 64 342 q 97 181 74 244 q 169 69 121 117 q 299 0 218 22 q 524 88 444 -24 q 603 -14 524 17 z "},"v":{"ha":660,"x_min":-3,"x_max":658,"o":"m 274 6 l 274 6 q 344 6 310 -8 q 393 56 378 21 l 415 110 q 439 169 433 156 q 460 221 443 182 l 483 276 l 506 325 l 604 531 l 633 593 q 648 667 658 635 q 608 717 638 700 q 545 728 579 735 q 489 686 511 722 q 329 335 410 539 q 179 688 256 529 q 124 735 158 728 q 57 724 89 742 q 11 672 25 706 q 19 599 -3 639 q 218 79 129 372 q 219 72 219 76 q 274 6 231 25 z "},"w":{"ha":910,"x_min":8,"x_max":897,"o":"m 268 -4 l 268 -4 q 378 100 347 -4 l 456 371 l 554 71 q 591 17 565 38 q 650 -3 617 -3 q 711 17 683 -3 q 751 76 739 38 q 885 597 813 276 q 875 692 897 653 q 803 731 853 731 q 706 636 725 731 l 647 344 l 560 642 q 524 701 549 682 q 467 719 499 719 q 409 699 435 719 q 371 636 383 678 l 335 504 q 286 329 306 385 l 276 365 q 207 649 233 526 q 117 731 189 731 q 36 688 64 731 q 22 589 8 646 q 151 122 90 322 q 200 24 172 51 q 268 -4 228 -4 z "},"x":{"ha":611,"x_min":4,"x_max":607,"o":"m 425 39 q 476 -1 447 7 q 534 2 506 -8 q 582 37 563 13 q 604 92 601 61 q 585 154 607 122 l 429 374 l 565 571 q 588 634 589 603 q 567 690 586 665 q 521 726 549 714 q 463 731 493 738 q 411 694 433 725 l 304 539 l 181 696 q 125 732 156 726 q 67 725 94 738 q 23 688 40 713 q 5 631 6 663 q 28 569 4 600 l 185 369 q 47 149 110 254 q 33 85 28 115 q 58 32 38 54 q 108 1 79 10 q 167 3 138 -7 q 217 46 196 13 q 313 197 260 121 l 425 39 l 425 39 z "},"y":{"ha":636,"x_min":4,"x_max":628,"o":"m 178 -251 l 178 -251 q 213 -218 185 -243 l 268 -168 q 313 -121 294 -144 q 364 -51 339 -87 q 411 29 389 -14 l 450 104 q 486 188 467 138 l 517 268 q 570 445 551 353 q 615 615 589 538 q 608 690 628 660 q 553 729 588 719 q 485 725 518 739 q 440 668 451 711 q 332 299 364 383 l 197 675 q 158 726 183 711 q 102 737 132 740 q 48 716 72 733 q 14 670 24 699 q 17 606 4 642 l 213 75 q 218 63 214 68 q 168 -7 194 25 q 115 -60 149 -32 q 50 -118 81 -89 q 21 -186 18 -150 q 49 -249 24 -222 q 109 -279 74 -275 q 178 -251 144 -283 z "},"z":{"ha":681,"x_min":22,"x_max":661,"o":"m 313 0 l 313 0 q 575 7 439 0 q 639 36 617 10 q 661 99 661 63 q 635 165 661 138 q 564 190 608 193 q 294 183 426 183 q 403 306 351 243 l 565 503 q 613 569 597 542 q 628 624 628 597 q 601 688 628 660 q 533 717 574 715 q 108 724 290 724 q 44 696 67 724 q 22 632 22 668 q 49 568 22 594 q 119 540 75 542 q 214 538 150 540 q 293 535 256 536 q 368 535 332 533 q 268 416 315 471 q 179 314 221 361 q 60 171 79 197 q 33 127 40 143 q 26 96 26 111 q 65 19 26 50 q 125 3 88 3 l 256 1 q 313 0 278 0 z "},"Á":{"ha":849,"x_min":-3,"x_max":850,"o":"m 14 57 l 14 57 q 67 5 31 18 q 141 5 104 -8 q 196 57 178 18 l 264 240 q 572 243 417 247 l 653 60 q 695 11 668 25 q 752 1 722 -3 q 806 22 782 4 q 840 69 831 40 q 836 133 850 97 l 740 383 l 619 682 l 517 938 q 472 983 501 967 q 411 993 442 999 q 358 975 382 992 q 324 932 335 958 l 13 131 q 14 57 -3 94 m 344 439 l 344 439 l 424 639 l 497 439 q 409 439 447 439 q 344 439 371 439 m 399 1056 l 399 1056 q 471 1075 439 1050 l 601 1169 q 640 1233 636 1194 q 622 1303 644 1271 q 558 1343 600 1336 q 486 1324 519 1349 l 356 1229 q 317 1166 321 1204 q 335 1095 313 1128 q 399 1056 357 1063 z "},"Ă":{"ha":861,"x_min":0,"x_max":864,"o":"m 669 60 q 710 12 683 25 q 768 2 738 -1 q 822 24 799 6 q 855 70 846 42 q 847 135 864 99 l 758 360 l 628 679 q 515 929 572 808 q 465 978 500 964 q 443 990 456 986 q 369 988 406 1004 q 318 935 332 972 l 13 131 q 10 66 0 94 q 44 20 19 38 q 98 -1 68 3 q 153 10 128 -4 q 193 61 179 25 l 264 254 q 589 261 315 256 l 669 60 l 669 60 m 339 449 l 339 449 l 422 665 l 511 453 q 339 449 392 450 m 438 1046 l 438 1046 q 515 1060 482 1046 q 603 1131 560 1078 q 649 1228 649 1176 q 626 1292 649 1268 q 571 1317 603 1317 q 517 1296 540 1317 q 485 1236 493 1275 l 483 1228 q 489 1253 486 1236 q 425 1213 449 1213 q 394 1222 411 1213 q 343 1253 376 1231 l 333 1275 l 344 1242 q 346 1244 346 1239 q 343 1253 344 1250 q 310 1307 333 1288 q 261 1326 288 1326 q 210 1305 233 1326 q 178 1246 186 1283 q 221 1144 182 1190 q 319 1072 260 1099 q 438 1046 378 1046 z "},"Â":{"ha":831,"x_min":-1,"x_max":832,"o":"m 192 63 l 192 63 l 267 240 q 424 247 419 247 q 575 243 426 247 q 635 68 610 149 q 672 15 647 31 q 727 0 697 -1 q 782 17 757 1 q 819 60 807 33 q 821 124 832 88 q 675 526 781 254 q 538 914 574 789 q 492 972 526 953 q 418 981 457 992 q 407 976 413 979 q 359 958 381 974 q 328 915 338 942 l 14 138 q 8 74 -1 103 q 40 26 17 44 q 94 4 64 8 q 151 13 124 0 q 192 63 178 26 m 347 439 l 347 439 l 426 635 l 494 456 l 500 439 q 347 439 421 442 m 283 1058 l 283 1058 q 349 1072 318 1051 l 439 1136 l 526 1071 q 590 1057 556 1049 q 645 1092 624 1065 q 660 1156 667 1119 q 624 1211 653 1192 l 493 1308 q 429 1321 465 1328 q 422 1319 426 1319 q 415 1318 418 1319 q 386 1306 400 1315 l 253 1214 q 216 1158 221 1192 q 228 1094 211 1124 q 283 1058 246 1065 z "},"Ä":{"ha":831,"x_min":-1,"x_max":832,"o":"m 192 65 l 192 65 l 267 243 q 424 250 419 250 q 575 246 426 250 q 635 71 610 151 q 672 17 647 33 q 727 3 697 1 q 782 20 757 4 q 819 63 807 36 q 821 126 832 90 q 675 529 781 257 q 538 931 574 806 q 492 989 526 969 q 418 997 457 1008 q 407 993 413 996 q 359 974 381 990 q 328 932 338 958 l 14 140 q 8 76 -1 106 q 40 29 17 47 q 94 7 64 11 q 151 16 124 3 q 192 65 178 29 m 347 442 l 347 442 l 426 638 l 494 458 l 500 442 q 347 442 421 444 m 379 1247 l 379 1247 q 317 1278 351 1274 q 251 1268 282 1282 q 201 1229 219 1254 q 183 1173 182 1204 q 215 1111 183 1142 q 277 1078 243 1082 q 342 1090 311 1075 q 393 1130 374 1104 q 411 1187 413 1156 q 379 1247 410 1218 m 667 1240 l 667 1240 q 604 1271 639 1267 q 538 1261 569 1275 q 488 1222 507 1247 q 470 1166 469 1197 q 503 1104 471 1135 q 565 1072 531 1075 q 630 1083 599 1068 q 681 1123 661 1097 q 699 1180 700 1149 q 667 1240 697 1211 z "},"À":{"ha":840,"x_min":-3,"x_max":842,"o":"m 192 58 l 192 58 l 274 247 l 569 250 l 649 60 q 691 12 664 25 q 748 3 718 -1 q 801 26 778 7 q 833 73 825 44 q 826 138 842 101 q 532 935 703 421 q 484 990 519 972 q 410 996 449 1008 q 353 944 369 983 q 343 926 347 936 q 14 133 238 658 q 6 70 -3 99 q 39 23 15 42 q 92 0 63 4 q 150 9 122 -4 q 192 58 178 22 m 356 442 l 432 626 l 497 443 l 356 442 l 356 442 m 443 1042 l 443 1042 q 513 1067 486 1040 q 544 1131 540 1093 q 521 1203 549 1169 l 413 1322 q 346 1356 386 1353 q 276 1331 303 1357 q 244 1266 249 1304 q 268 1194 240 1228 l 376 1075 q 443 1042 403 1044 z "},"Ā":{"ha":849,"x_min":-1,"x_max":864,"o":"m 669 60 q 710 12 683 25 q 768 2 738 -1 q 822 24 799 6 q 855 70 846 42 q 847 135 864 99 l 758 360 l 628 679 q 529 929 576 804 q 479 978 515 965 q 457 990 469 986 q 383 988 419 1003 q 332 935 347 972 l 13 131 q 8 67 -1 94 q 42 21 18 39 q 97 0 67 3 q 153 11 126 -3 q 193 61 179 25 l 264 254 q 589 261 315 256 l 669 60 l 669 60 m 339 449 l 339 449 l 422 665 l 511 453 q 339 449 392 450 m 310 1092 l 310 1092 l 433 1092 q 607 1097 519 1090 q 677 1126 654 1099 q 699 1190 700 1154 q 675 1252 699 1225 q 604 1279 651 1279 q 482 1275 547 1276 q 354 1274 417 1274 q 242 1278 292 1275 q 172 1248 194 1276 q 150 1183 149 1219 q 176 1121 151 1147 q 247 1096 200 1094 q 310 1092 283 1092 z "},"Ą":{"ha":849,"x_min":-3,"x_max":875,"o":"m 14 57 l 14 57 q 67 5 31 18 q 141 5 104 -8 q 196 57 178 18 l 264 240 q 572 243 417 247 l 653 60 q 695 11 668 25 q 752 1 722 -3 q 806 22 782 4 q 840 69 831 40 q 836 133 850 97 l 740 383 l 619 682 l 517 938 q 472 983 501 967 q 411 993 442 999 q 358 975 382 992 q 324 932 335 958 l 13 131 q 14 57 -3 94 m 344 439 l 344 439 l 424 639 l 497 439 q 409 439 447 439 q 344 439 371 439 m 696 -268 l 696 -268 q 765 -259 736 -268 q 825 -235 794 -250 q 875 -161 875 -204 q 859 -116 875 -136 q 814 -96 843 -96 q 761 -117 788 -96 q 734 -133 746 -128 q 704 -139 722 -139 q 664 -126 681 -139 q 646 -93 647 -114 q 685 -25 642 -51 q 746 -3 708 -11 q 767 3 756 0 q 786 10 776 6 q 822 46 811 21 q 818 96 833 71 q 717 126 793 136 q 633 99 676 122 q 558 40 589 75 q 508 -96 506 -21 q 551 -207 508 -158 q 615 -251 575 -235 q 696 -268 654 -268 z "},"Å":{"ha":849,"x_min":-3,"x_max":850,"o":"m 14 57 l 14 57 q 67 5 31 18 q 141 5 104 -8 q 196 57 178 18 l 264 240 q 572 243 417 247 l 653 60 q 695 11 668 25 q 752 1 722 -3 q 806 22 782 4 q 840 69 831 40 q 836 133 850 97 l 740 383 l 619 682 l 517 938 q 472 983 501 967 q 411 993 442 999 q 358 975 382 992 q 324 932 335 958 l 13 131 q 14 57 -3 94 m 344 439 l 344 439 l 424 639 l 497 439 q 409 439 447 439 q 344 439 371 439 m 440 1028 l 440 1028 q 549 1063 508 1026 q 598 1154 589 1099 q 579 1267 607 1210 q 510 1337 556 1315 q 414 1367 465 1358 q 389 1363 397 1365 q 379 1364 385 1364 q 374 1364 376 1364 q 368 1364 371 1364 q 347 1357 357 1361 q 332 1351 340 1354 q 321 1347 322 1349 q 271 1291 289 1328 q 251 1210 253 1254 q 263 1128 249 1167 q 308 1069 276 1090 q 371 1038 342 1047 q 440 1028 400 1029 m 435 1147 l 435 1147 q 385 1165 403 1143 q 369 1212 367 1186 q 399 1249 371 1238 q 417 1247 407 1247 q 435 1242 426 1246 q 475 1212 463 1233 q 478 1170 488 1190 q 435 1147 469 1150 z "},"Ǻ":{"ha":849,"x_min":-3,"x_max":850,"o":"m 14 57 l 14 57 q 67 5 31 18 q 141 5 104 -8 q 196 57 178 18 l 264 240 q 572 243 417 247 l 653 60 q 695 11 668 25 q 752 1 722 -3 q 806 22 782 4 q 840 69 831 40 q 836 133 850 97 l 740 383 l 619 682 l 517 938 q 472 983 501 967 q 411 993 442 999 q 358 975 382 992 q 324 932 335 958 l 13 131 q 14 57 -3 94 m 344 439 l 344 439 l 424 639 l 497 439 q 409 439 447 439 q 344 439 371 439 m 440 1028 l 440 1028 q 549 1063 508 1026 q 598 1154 589 1099 q 579 1267 607 1210 q 510 1337 556 1315 q 414 1367 465 1358 q 389 1363 397 1365 q 379 1364 385 1364 q 374 1364 376 1364 q 368 1364 371 1364 q 347 1357 357 1361 q 332 1351 340 1354 q 321 1347 322 1349 q 271 1291 289 1328 q 251 1210 253 1254 q 263 1128 249 1167 q 308 1069 276 1090 q 371 1038 342 1047 q 440 1028 400 1029 m 435 1147 l 435 1147 q 385 1165 403 1143 q 369 1212 367 1186 q 399 1249 371 1238 q 417 1247 407 1247 q 435 1242 426 1246 q 475 1212 463 1233 q 478 1170 488 1190 q 435 1147 469 1150 m 400 1399 l 400 1399 q 469 1417 439 1393 l 593 1507 q 630 1567 626 1531 q 613 1635 633 1604 q 553 1672 593 1665 q 483 1654 515 1678 l 360 1564 q 323 1503 326 1539 q 340 1436 319 1467 q 400 1399 360 1406 z "},"Ã":{"ha":831,"x_min":-1,"x_max":832,"o":"m 192 65 l 192 65 l 267 243 q 424 250 419 250 q 575 246 426 250 q 635 71 610 151 q 672 17 647 33 q 727 3 697 1 q 782 20 757 4 q 819 63 807 36 q 821 126 832 90 q 675 529 781 257 q 538 917 574 792 q 494 970 526 956 q 424 986 461 985 q 367 971 393 988 q 328 918 342 954 l 167 506 l 14 140 q 8 76 -1 104 q 42 28 18 47 q 94 6 65 10 q 151 17 124 3 q 192 65 178 31 m 347 442 l 347 442 l 426 638 l 494 458 l 500 442 q 347 442 421 444 m 185 1044 l 185 1044 q 225 1055 213 1044 q 254 1089 238 1065 q 283 1117 268 1107 q 326 1128 299 1128 q 369 1119 350 1128 q 426 1088 389 1110 q 492 1056 463 1067 q 560 1044 522 1044 q 664 1072 617 1044 q 739 1142 711 1099 q 765 1228 765 1183 q 745 1285 765 1264 q 689 1307 725 1307 q 642 1296 657 1307 q 611 1261 626 1285 q 585 1231 597 1240 q 549 1221 572 1221 q 502 1230 522 1221 q 450 1260 482 1239 q 388 1292 418 1281 q 314 1304 358 1304 q 219 1277 267 1304 q 141 1209 172 1250 q 110 1125 110 1168 q 129 1066 110 1088 q 185 1044 149 1044 z "},"Æ":{"ha":1321,"x_min":-1,"x_max":1285,"o":"m 675 -10 l 675 -10 q 803 -6 781 -6 q 861 -4 824 -6 q 933 -2 899 -3 q 975 -1 967 -1 l 1185 -1 q 1247 18 1224 -1 q 1277 67 1269 38 q 1277 125 1285 96 q 1247 174 1269 154 q 1185 193 1224 193 q 767 188 964 193 q 758 404 764 271 q 1131 406 953 406 q 1192 425 1169 406 q 1223 474 1215 444 q 1223 532 1231 503 q 1192 581 1215 561 q 1131 600 1169 600 q 750 597 953 600 q 743 803 746 714 q 813 803 775 803 q 896 803 851 803 q 1161 801 1031 801 q 1222 823 1200 803 q 1251 872 1244 843 q 1250 931 1258 901 q 1218 978 1242 960 q 1156 996 1194 997 q 796 994 1056 993 q 418 994 550 993 q 360 969 385 992 q 329 914 335 946 l 321 897 l 14 139 q 8 75 -1 104 q 40 28 17 46 q 94 6 64 10 q 151 15 124 1 q 192 64 178 28 l 265 243 q 315 245 281 243 q 383 249 350 247 q 425 250 415 250 l 453 250 q 475 249 456 250 q 521 248 494 249 q 571 246 547 247 q 575 93 574 163 l 575 85 q 606 17 576 44 q 675 -10 635 -11 m 344 440 l 344 440 l 493 804 q 549 806 519 804 q 563 440 553 688 q 438 444 443 444 q 344 440 431 444 z "},"Ǽ":{"ha":1419,"x_min":71,"x_max":1375,"o":"m 1272 0 l 1272 0 q 1335 17 1311 -1 q 1367 65 1358 36 q 1368 124 1375 94 q 1339 173 1361 153 q 1278 194 1317 193 q 1219 195 1265 194 q 1121 197 1172 196 q 1003 199 1057 197 q 838 207 899 201 l 825 207 q 833 290 833 264 q 828 438 831 360 q 1250 442 1104 436 q 1311 463 1289 443 q 1340 513 1333 483 q 1337 571 1346 542 q 1304 619 1328 600 q 1242 636 1281 638 q 819 632 1085 631 l 813 783 q 1246 778 1049 785 q 1308 795 1285 776 q 1341 842 1332 814 q 1343 901 1350 871 q 1314 951 1336 931 q 1254 972 1292 971 q 1017 978 1139 976 q 726 976 893 978 q 489 975 558 975 q 420 947 449 975 q 392 878 392 918 q 393 861 392 869 q 231 463 306 632 q 89 150 157 294 q 76 87 71 117 q 103 36 82 57 q 154 8 125 15 q 211 12 183 1 q 258 56 239 22 q 358 275 299 150 q 639 282 513 278 q 636 254 639 274 q 629 211 632 235 q 675 57 618 113 q 725 28 694 36 q 756 21 738 24 q 822 14 781 17 q 997 6 888 8 q 1114 3 1053 4 q 1222 1 1178 1 q 1272 0 1265 0 m 446 471 l 446 471 q 569 781 500 597 q 618 782 593 781 l 629 547 q 628 535 628 540 q 631 514 628 524 l 632 475 q 446 471 501 472 m 846 1025 l 846 1025 q 913 1058 886 1028 l 1021 1178 q 1044 1249 1049 1211 q 1013 1314 1040 1288 q 943 1339 986 1340 q 876 1306 903 1336 l 768 1186 q 744 1115 740 1153 q 776 1050 749 1076 q 846 1025 803 1024 z "},"Ć":{"ha":963,"x_min":29,"x_max":931,"o":"m 504 -17 l 504 -17 q 695 8 603 -24 q 843 121 788 40 q 885 208 872 161 q 914 286 899 254 q 915 363 931 329 q 867 413 899 397 q 801 418 835 428 q 747 364 767 408 q 721 291 732 325 q 697 235 710 257 q 629 189 676 206 q 517 178 582 172 q 395 208 453 182 q 313 263 338 233 q 282 311 300 278 q 250 379 264 344 q 232 436 236 414 q 238 577 221 510 q 294 699 256 644 q 386 787 333 753 q 499 830 439 821 q 621 814 560 839 q 663 791 646 804 q 694 760 679 778 l 721 726 l 753 685 q 817 651 782 650 q 881 676 853 651 q 915 737 908 700 q 890 810 921 774 l 864 847 q 794 926 831 889 q 688 994 757 964 q 512 1026 600 1032 q 350 985 424 1019 q 214 888 275 949 q 74 676 119 796 q 53 400 29 556 q 80 312 60 363 q 126 213 100 261 q 178 135 153 164 q 324 28 238 65 q 504 -17 411 -10 m 492 1083 l 492 1083 q 558 1117 532 1086 l 667 1236 q 690 1308 694 1269 q 659 1372 686 1346 q 589 1397 632 1399 q 522 1364 549 1394 l 414 1244 q 390 1173 386 1211 q 422 1108 394 1135 q 492 1083 449 1082 z "},"Č":{"ha":986,"x_min":44,"x_max":946,"o":"m 533 -17 l 533 -17 q 724 14 635 -17 q 864 115 813 44 q 898 174 885 146 q 925 240 911 203 l 938 275 q 946 313 946 296 q 916 378 946 351 q 849 406 886 406 q 767 350 794 406 l 744 294 q 714 226 728 246 q 656 185 694 200 q 561 169 617 169 q 421 192 488 169 q 326 247 354 214 q 263 360 290 292 q 235 497 235 429 q 278 655 235 581 q 394 775 322 729 q 544 819 465 819 q 638 803 592 819 q 711 751 683 786 l 772 679 q 840 646 800 646 q 908 674 878 646 q 938 740 938 703 q 906 810 938 772 q 835 890 865 860 q 775 940 806 921 q 704 976 744 960 q 543 1007 625 1007 q 375 974 456 1007 q 227 883 294 942 q 114 744 160 824 q 44 494 44 626 q 64 365 44 438 q 115 228 83 293 q 182 122 146 163 q 331 21 238 58 q 533 -17 425 -17 m 543 1065 l 543 1065 q 610 1090 578 1065 l 728 1178 q 764 1250 764 1206 q 738 1309 764 1285 q 676 1333 711 1333 q 621 1311 649 1333 l 543 1253 l 453 1317 q 404 1333 433 1331 q 342 1306 365 1332 q 318 1247 318 1281 q 328 1207 318 1226 q 357 1175 338 1188 l 483 1089 q 543 1065 517 1065 z "},"Ç":{"ha":986,"x_min":44,"x_max":946,"o":"m 533 -17 l 533 -17 q 724 14 635 -17 q 864 115 813 44 q 898 174 885 146 q 925 240 911 203 l 938 275 q 946 313 946 296 q 916 378 946 351 q 849 406 886 406 q 767 350 794 406 l 744 294 q 714 226 728 246 q 656 185 694 200 q 561 169 617 169 q 421 192 488 169 q 326 247 354 214 q 263 360 290 292 q 235 497 235 429 q 278 655 235 581 q 394 775 322 729 q 544 819 465 819 q 638 803 592 819 q 711 751 683 786 l 772 679 q 840 646 800 646 q 908 674 878 646 q 938 740 938 703 q 906 810 938 772 q 835 890 865 860 q 775 940 806 921 q 704 976 744 960 q 543 1007 625 1007 q 375 974 456 1007 q 227 883 294 942 q 114 744 160 824 q 44 494 44 626 q 64 365 44 438 q 115 228 83 293 q 182 122 146 163 q 331 21 238 58 q 533 -17 425 -17 m 522 -342 l 522 -342 q 608 -322 568 -342 q 674 -266 649 -301 q 700 -183 700 -231 q 656 -95 700 -131 q 551 -60 613 -60 q 514 -65 526 -60 l 538 -87 q 553 -37 538 -62 q 597 24 568 -11 q 513 57 563 50 q 446 -22 475 21 q 417 -97 417 -64 q 476 -150 417 -144 q 514 -151 494 -151 q 544 -157 532 -153 q 572 -190 572 -162 q 560 -215 572 -204 q 531 -226 549 -226 q 499 -221 511 -226 q 476 -203 488 -215 q 451 -181 464 -189 q 422 -174 439 -174 q 383 -190 400 -174 q 367 -235 367 -207 q 412 -312 367 -282 q 522 -342 457 -342 z "},"Ĉ":{"ha":986,"x_min":44,"x_max":946,"o":"m 533 -17 l 533 -17 q 724 14 635 -17 q 864 115 813 44 q 898 174 885 146 q 925 240 911 203 l 938 275 q 946 313 946 296 q 916 378 946 351 q 849 406 886 406 q 767 350 794 406 l 744 294 q 714 226 728 246 q 656 185 694 200 q 561 169 617 169 q 421 192 488 169 q 326 247 354 214 q 263 360 290 292 q 235 497 235 429 q 278 655 235 581 q 394 775 322 729 q 544 819 465 819 q 638 803 592 819 q 711 751 683 786 l 772 679 q 840 646 800 646 q 908 674 878 646 q 938 740 938 703 q 906 810 938 772 q 835 890 865 860 q 775 940 806 921 q 704 976 744 960 q 543 1007 625 1007 q 375 974 456 1007 q 227 883 294 942 q 114 744 160 824 q 44 494 44 626 q 64 365 44 438 q 115 228 83 293 q 182 122 146 163 q 331 21 238 58 q 533 -17 425 -17 m 388 1065 l 388 1065 q 453 1079 422 1058 l 543 1143 l 631 1078 q 695 1065 661 1057 q 750 1100 729 1074 q 764 1163 771 1126 q 728 1218 758 1199 l 597 1315 q 533 1328 568 1335 q 526 1326 531 1326 q 519 1325 522 1326 q 490 1313 504 1321 l 357 1221 q 320 1165 325 1199 q 333 1101 315 1131 q 388 1065 350 1072 z "},"Ċ":{"ha":986,"x_min":44,"x_max":946,"o":"m 533 -17 l 533 -17 q 724 14 635 -17 q 864 115 813 44 q 898 174 885 146 q 925 240 911 203 l 938 275 q 946 313 946 296 q 916 378 946 351 q 849 406 886 406 q 767 350 794 406 l 744 294 q 714 226 728 246 q 656 185 694 200 q 561 169 617 169 q 421 192 488 169 q 326 247 354 214 q 263 360 290 292 q 235 497 235 429 q 278 655 235 581 q 394 775 322 729 q 544 819 465 819 q 638 803 592 819 q 711 751 683 786 l 772 679 q 840 646 800 646 q 908 674 878 646 q 938 740 938 703 q 906 810 938 772 q 835 890 865 860 q 775 940 806 921 q 704 976 744 960 q 543 1007 625 1007 q 375 974 456 1007 q 227 883 294 942 q 114 744 160 824 q 44 494 44 626 q 64 365 44 438 q 115 228 83 293 q 182 122 146 163 q 331 21 238 58 q 533 -17 425 -17 m 656 1176 l 656 1176 q 631 1274 667 1228 q 499 1306 586 1331 q 449 1273 468 1297 q 426 1217 431 1249 q 433 1157 422 1186 q 474 1111 444 1128 q 553 1089 514 1088 q 622 1113 593 1090 q 656 1176 650 1136 z "},"Ď":{"ha":1039,"x_min":103,"x_max":1004,"o":"m 225 1 l 225 1 q 336 3 258 4 q 465 4 421 1 q 740 76 632 14 q 914 249 847 139 q 992 481 979 357 q 957 726 1004 608 q 799 919 910 842 q 692 972 750 951 q 472 1012 578 1013 q 263 1004 365 1011 q 242 1003 249 1003 q 210 996 225 1003 q 139 970 168 996 q 108 907 110 944 q 106 504 103 803 q 107 103 108 206 q 125 49 107 72 q 174 15 143 25 q 225 1 197 0 m 339 185 l 339 185 q 303 188 317 188 q 301 507 303 256 q 301 824 299 757 q 448 829 382 828 q 576 817 514 831 q 683 772 639 801 q 776 656 747 729 q 797 497 806 583 q 745 342 788 414 q 636 231 703 269 q 456 188 572 193 q 339 185 417 185 m 457 1061 l 457 1061 q 521 1074 492 1054 l 651 1171 q 688 1226 682 1190 q 674 1289 694 1263 q 619 1324 653 1315 q 554 1311 585 1332 l 467 1246 l 376 1310 q 311 1324 346 1331 q 256 1288 274 1317 q 244 1224 239 1258 q 281 1168 249 1190 l 414 1076 q 443 1064 428 1068 q 450 1063 446 1063 q 457 1061 454 1063 z "},"Đ":{"ha":1100,"x_min":28,"x_max":1065,"o":"m 286 1 l 286 1 q 397 3 319 4 q 526 4 482 1 q 801 76 693 14 q 975 249 908 139 q 1053 481 1040 357 q 1018 726 1065 608 q 860 919 971 842 q 753 972 811 951 q 533 1012 639 1013 q 324 1004 426 1011 q 303 1003 310 1003 q 271 996 286 1003 q 200 970 229 996 q 169 907 171 944 q 165 626 165 826 l 128 626 q 66 607 89 626 q 35 558 43 588 q 35 500 28 529 q 66 451 43 471 q 128 432 89 432 l 167 432 q 168 103 169 192 q 186 49 168 72 q 235 15 204 25 q 286 1 258 0 m 400 185 l 400 185 q 364 188 378 188 q 363 432 364 244 q 430 461 404 432 q 457 529 456 490 q 428 597 458 568 q 361 626 400 625 q 363 824 360 778 q 509 829 443 828 q 638 817 575 831 q 744 772 700 801 q 838 656 808 729 q 858 497 867 583 q 806 342 849 414 q 697 231 764 269 q 517 188 633 193 q 400 185 478 185 z "},"Ð":{"ha":967,"x_min":13,"x_max":919,"o":"m 97 456 l 97 456 l 472 456 q 531 478 507 456 q 554 539 554 501 q 531 600 554 578 q 472 622 508 622 l 97 622 q 38 599 63 622 q 13 539 13 575 q 38 480 13 504 q 97 456 63 456 m 219 0 l 219 0 q 314 0 239 0 q 418 0 389 -1 q 649 49 561 7 q 794 165 732 90 q 888 331 857 239 q 918 529 917 421 q 883 728 919 636 q 774 885 846 819 q 690 944 736 919 q 593 982 644 969 q 500 1000 540 993 q 435 1005 472 1004 q 365 1004 399 1006 q 315 1001 332 1003 q 235 994 289 1000 q 210 990 222 994 q 140 964 169 992 q 108 899 110 936 q 106 499 103 835 q 107 99 108 161 q 135 31 107 60 q 201 1 163 3 q 219 0 210 0 m 410 190 l 410 190 q 301 192 369 189 q 301 322 301 250 q 299 468 300 394 q 299 604 299 542 q 300 807 299 675 q 506 804 424 817 q 643 743 589 792 q 708 635 688 703 q 724 493 728 568 q 690 356 719 418 q 563 221 646 261 q 410 190 513 197 z "},"É":{"ha":932,"x_min":104,"x_max":889,"o":"m 206 0 l 206 0 q 790 7 508 11 q 862 35 838 7 q 887 102 886 64 q 864 170 888 140 q 793 201 840 200 q 303 199 519 204 q 308 401 304 269 q 497 406 336 403 q 743 411 658 408 q 813 444 790 414 q 835 513 836 475 q 808 579 833 551 q 735 606 783 607 q 602 601 672 603 q 447 599 532 599 q 314 596 363 597 q 315 797 317 700 q 792 800 521 804 q 863 828 839 800 q 888 895 888 857 q 865 963 889 933 q 794 994 842 993 q 229 988 474 999 q 188 976 207 986 q 138 940 157 967 q 119 879 118 913 q 118 461 125 722 q 108 125 110 199 q 104 93 104 110 q 136 26 107 53 q 206 0 165 -1 m 482 1038 l 482 1038 q 549 1071 522 1040 l 657 1190 q 681 1262 685 1224 q 649 1326 676 1300 q 579 1351 622 1353 q 513 1318 539 1349 l 404 1199 q 381 1127 376 1165 q 412 1063 385 1089 q 482 1038 439 1036 z "},"Ĕ":{"ha":938,"x_min":103,"x_max":899,"o":"m 799 -8 l 799 -8 q 860 11 838 -8 q 891 60 883 31 q 891 118 899 89 q 860 167 883 147 q 799 186 838 186 q 300 189 599 186 q 299 401 301 263 q 449 402 368 404 q 605 400 529 400 q 736 406 681 400 q 811 432 792 413 q 839 501 840 461 q 811 569 838 540 q 742 597 785 597 q 297 596 347 597 q 303 808 297 711 q 550 806 388 808 q 792 800 713 801 q 853 819 829 800 q 885 868 876 839 q 886 926 893 897 q 856 975 879 956 q 794 994 833 994 q 532 999 719 994 q 240 1003 343 1003 q 181 982 207 1003 q 136 950 154 972 q 117 899 118 928 q 104 515 103 750 q 106 128 107 179 q 114 86 106 107 q 144 23 117 49 q 210 -4 172 -3 q 799 -8 582 -8 m 526 1051 l 526 1051 q 604 1065 571 1051 q 692 1136 649 1083 q 738 1233 738 1182 q 715 1298 738 1274 q 660 1322 692 1322 q 606 1301 629 1322 q 574 1242 582 1281 l 572 1233 q 578 1258 575 1242 q 514 1218 538 1218 q 483 1228 500 1218 q 432 1258 465 1236 l 422 1281 l 433 1247 q 435 1250 435 1244 q 432 1258 433 1256 q 399 1313 422 1293 q 350 1332 376 1332 q 299 1310 322 1332 q 267 1251 275 1289 q 310 1150 271 1196 q 408 1078 349 1104 q 526 1051 467 1051 z "},"Ě":{"ha":938,"x_min":103,"x_max":899,"o":"m 799 -8 l 799 -8 q 860 11 838 -8 q 891 60 883 31 q 891 118 899 89 q 860 167 883 147 q 799 186 838 186 q 300 189 599 186 q 299 401 301 263 q 449 402 368 404 q 605 400 529 400 q 736 406 681 400 q 811 432 792 413 q 839 501 840 461 q 811 569 838 540 q 742 597 785 597 q 297 596 347 597 q 303 808 297 711 q 550 806 388 808 q 792 800 713 801 q 853 819 829 800 q 885 868 876 839 q 886 926 893 897 q 856 975 879 956 q 794 994 833 994 q 532 999 719 994 q 240 1003 343 1003 q 181 982 207 1003 q 136 950 154 972 q 117 899 118 928 q 104 515 103 750 q 106 128 107 179 q 114 86 106 107 q 144 23 117 49 q 210 -4 172 -3 q 799 -8 582 -8 m 496 1063 l 496 1063 q 560 1075 531 1056 l 690 1172 q 726 1228 721 1192 q 713 1290 733 1264 q 658 1325 692 1317 q 593 1313 624 1333 l 506 1247 l 415 1311 q 350 1325 385 1332 q 295 1289 313 1318 q 283 1226 278 1260 q 319 1169 288 1192 l 453 1078 q 482 1065 467 1069 q 489 1064 485 1064 q 496 1063 493 1064 z "},"Ê":{"ha":932,"x_min":104,"x_max":889,"o":"m 206 0 l 206 0 q 790 7 508 11 q 862 35 838 7 q 887 102 886 64 q 864 170 888 140 q 793 201 840 200 q 303 199 519 204 q 308 401 304 269 q 497 406 336 403 q 743 411 658 408 q 813 444 790 414 q 835 513 836 475 q 808 579 833 551 q 735 606 783 607 q 602 601 672 603 q 447 599 532 599 q 314 596 363 597 q 315 783 317 700 q 792 786 521 790 q 863 815 839 786 q 888 881 888 843 q 865 949 889 919 q 794 981 842 979 l 749 981 q 692 982 690 982 q 414 979 543 982 l 417 982 l 356 978 q 229 974 290 976 q 188 963 207 972 q 138 926 157 953 q 119 865 118 899 q 118 461 125 722 q 108 125 110 199 q 104 93 104 110 q 136 26 107 53 q 206 0 165 -1 m 369 1063 l 369 1063 q 435 1076 404 1056 l 511 1126 l 585 1075 q 649 1063 615 1054 q 704 1097 683 1071 q 718 1160 725 1124 q 682 1215 713 1196 l 565 1299 q 501 1311 536 1318 q 494 1310 499 1310 q 488 1308 490 1310 q 458 1296 472 1304 l 339 1218 q 302 1162 307 1196 q 315 1099 297 1128 q 369 1063 332 1069 z "},"Ë":{"ha":932,"x_min":104,"x_max":889,"o":"m 206 -3 l 206 -3 q 790 4 508 8 q 862 33 838 4 q 887 99 886 61 q 864 167 888 138 q 793 199 840 197 q 303 196 519 201 q 308 399 304 267 q 497 403 336 400 q 743 408 658 406 q 813 442 790 411 q 835 510 836 472 q 808 576 833 549 q 735 603 783 604 q 602 598 672 600 q 447 596 532 596 q 314 593 363 594 q 315 781 317 697 q 792 783 521 788 q 863 812 839 783 q 888 878 888 840 q 865 947 889 917 q 794 978 842 976 q 229 971 474 982 q 188 960 207 969 q 138 923 157 950 q 119 863 118 896 q 118 458 125 719 q 108 122 110 196 q 104 90 104 107 q 136 23 107 50 q 206 -3 165 -4 m 443 1240 l 443 1240 q 381 1271 415 1267 q 315 1261 346 1275 q 265 1222 283 1247 q 247 1166 246 1197 q 279 1104 247 1135 q 341 1072 307 1075 q 406 1083 375 1068 q 457 1123 438 1097 q 475 1180 476 1149 q 443 1240 474 1211 m 731 1233 l 731 1233 q 668 1264 703 1260 q 602 1254 633 1268 q 552 1215 571 1240 q 534 1159 533 1190 q 567 1097 535 1128 q 628 1065 594 1068 q 694 1076 663 1061 q 744 1116 725 1090 q 763 1173 764 1142 q 731 1233 761 1204 z "},"Ė":{"ha":903,"x_min":103,"x_max":867,"o":"m 768 -1 l 768 -1 q 828 18 806 -1 q 859 66 851 38 q 859 123 867 94 q 828 171 851 151 q 768 190 806 190 q 297 193 579 190 q 296 413 299 257 q 706 414 360 414 q 767 433 744 414 q 798 481 790 453 q 798 538 806 510 q 767 586 790 567 q 706 606 744 606 q 294 604 361 606 q 300 804 296 719 q 532 806 378 806 q 764 804 686 804 q 824 824 801 804 q 854 872 847 843 q 853 928 861 900 q 822 976 844 957 q 761 996 799 996 q 488 996 660 994 q 214 994 315 996 q 160 976 183 993 q 125 931 136 958 q 117 897 118 915 q 104 504 103 754 q 106 113 107 161 q 122 58 106 83 q 156 19 133 35 q 207 3 179 3 q 768 -1 563 -1 m 629 1176 l 629 1176 q 604 1274 640 1228 q 472 1306 560 1331 q 423 1273 442 1297 q 400 1217 404 1249 q 407 1157 396 1186 q 447 1111 418 1128 q 527 1089 488 1088 q 595 1113 567 1090 q 629 1176 624 1136 z "},"È":{"ha":932,"x_min":104,"x_max":889,"o":"m 206 -3 l 206 -3 q 790 4 508 8 q 862 33 838 4 q 887 99 886 61 q 864 167 888 138 q 793 199 840 197 q 303 196 519 201 q 308 399 304 267 q 497 403 336 400 q 743 408 658 406 q 813 442 790 411 q 835 510 836 472 q 808 576 833 549 q 735 603 783 604 q 602 598 672 600 q 447 596 532 596 q 314 593 363 594 q 315 781 317 697 q 792 783 521 788 q 863 812 839 783 q 888 878 888 840 q 865 947 889 917 q 794 978 842 976 q 229 971 474 982 q 188 960 207 969 q 138 923 157 950 q 119 863 118 896 q 118 458 125 719 q 108 122 110 196 q 104 90 104 107 q 136 23 107 50 q 206 -3 165 -4 m 528 1042 l 528 1042 q 598 1067 571 1040 q 629 1131 625 1093 q 606 1203 633 1169 l 497 1322 q 431 1356 471 1353 q 360 1331 388 1357 q 329 1266 333 1304 q 353 1194 325 1228 l 461 1075 q 528 1042 488 1044 z "},"Ē":{"ha":938,"x_min":103,"x_max":899,"o":"m 799 6 l 799 6 q 860 25 838 6 q 891 74 883 44 q 891 132 899 103 q 860 181 883 161 q 799 200 838 200 q 300 203 599 200 q 299 415 301 276 q 449 416 368 418 q 605 414 529 414 q 736 420 681 414 q 811 446 792 426 q 839 515 840 475 q 811 583 838 554 q 742 611 785 611 q 297 610 347 611 q 303 808 297 725 q 550 806 388 808 q 792 800 713 801 q 853 819 829 800 q 885 868 876 839 q 886 926 893 897 q 856 975 879 956 q 794 994 833 994 q 532 999 719 994 q 240 1003 343 1003 q 181 982 207 1003 q 136 950 154 972 q 117 899 118 928 q 104 529 103 750 q 106 142 107 193 q 114 100 106 121 q 144 37 117 63 q 210 10 172 11 q 799 6 582 6 m 363 1082 l 363 1082 q 682 1086 513 1085 q 743 1115 718 1086 q 767 1184 769 1146 q 742 1251 765 1222 q 682 1279 719 1279 q 360 1275 510 1278 q 298 1244 318 1274 q 278 1176 278 1214 q 300 1110 279 1139 q 363 1082 321 1082 z "},"Ę":{"ha":938,"x_min":103,"x_max":899,"o":"m 606 -317 l 606 -317 q 687 -303 643 -317 q 768 -269 731 -289 q 813 -230 800 -256 q 819 -177 825 -204 q 792 -134 814 -150 q 735 -125 771 -118 q 596 -172 626 -178 q 554 -131 571 -169 q 553 -68 539 -100 q 676 -8 565 -40 l 799 -8 q 860 11 838 -8 q 891 60 883 31 q 891 118 899 89 q 860 167 883 147 q 799 186 838 186 q 300 189 599 186 q 299 401 301 263 q 449 402 368 404 q 605 400 529 400 q 736 406 681 400 q 811 432 792 413 q 839 501 840 461 q 811 569 838 540 q 742 597 785 597 q 297 596 347 597 q 303 808 297 711 q 550 806 388 808 q 792 800 713 801 q 853 819 829 800 q 885 868 876 839 q 886 926 893 897 q 856 975 879 956 q 794 994 833 994 q 532 999 719 994 q 240 1003 343 1003 q 181 982 207 1003 q 136 950 154 972 q 117 899 118 928 q 104 515 103 750 q 106 128 107 179 q 114 86 106 107 q 144 23 117 49 q 210 -4 172 -3 q 415 -6 319 -6 q 390 -117 390 -58 q 431 -235 390 -183 q 564 -311 472 -287 q 606 -317 581 -317 z "},"Ğ":{"ha":1090,"x_min":35,"x_max":1047,"o":"m 390 28 l 390 28 q 561 -8 474 -4 q 740 18 649 -12 q 903 115 831 47 q 996 247 974 181 q 1010 310 1004 274 q 1018 381 1015 347 q 1021 435 1021 415 q 1021 456 1022 446 q 1022 464 1022 460 q 992 529 1022 501 q 921 557 963 557 l 750 557 q 719 556 743 557 q 667 553 696 554 q 614 550 639 551 q 578 549 589 549 q 506 517 529 546 q 485 452 482 488 q 513 390 488 417 q 589 365 539 364 q 674 369 626 368 q 790 374 743 374 q 815 372 807 372 q 804 303 814 329 q 760 244 797 279 q 621 178 700 189 q 464 197 542 167 q 324 289 382 228 q 251 424 267 350 q 255 576 235 504 q 322 701 275 647 q 435 787 369 756 q 577 819 501 818 q 728 782 653 819 q 769 756 754 768 q 797 729 785 744 q 826 692 810 714 l 857 651 q 926 613 888 615 q 996 632 965 611 q 1037 688 1026 653 q 1021 760 1047 722 q 1008 775 1019 761 q 980 808 996 789 q 950 845 964 828 q 931 868 936 863 q 885 906 910 890 q 831 940 861 922 q 621 1005 729 996 q 421 985 513 1014 q 250 893 328 956 q 123 752 174 833 q 53 578 72 671 q 54 389 35 485 q 174 169 81 265 q 390 28 265 74 m 568 1058 l 568 1058 q 650 1076 618 1060 q 738 1143 696 1100 q 783 1240 782 1196 q 760 1305 783 1281 q 706 1329 738 1329 q 648 1308 664 1329 q 622 1261 632 1286 q 560 1225 586 1225 q 524 1233 546 1225 q 485 1258 501 1240 q 468 1288 475 1268 q 442 1328 458 1318 q 396 1339 425 1339 q 340 1317 368 1339 q 313 1258 313 1296 q 353 1157 313 1203 q 454 1085 394 1111 q 568 1058 513 1057 z "},"Ǧ":{"ha":1021,"x_min":43,"x_max":976,"o":"m 874 160 l 874 160 q 944 288 928 225 q 952 345 950 313 q 953 411 954 378 l 953 443 q 924 515 954 486 q 854 544 894 544 q 600 540 713 544 q 540 519 563 539 q 512 470 518 499 q 515 413 506 442 q 547 366 524 385 q 608 349 571 347 q 761 353 721 354 q 757 335 760 344 q 725 283 753 315 q 575 195 665 211 q 400 222 485 179 q 268 356 314 265 q 242 545 224 450 q 332 713 260 640 q 492 801 401 785 q 679 767 582 817 q 715 740 696 756 q 744 708 735 724 l 767 678 l 794 642 q 861 602 824 604 q 929 624 899 600 q 968 683 960 647 q 949 757 976 719 q 910 808 931 781 q 865 861 889 835 q 824 899 846 882 q 775 931 803 917 q 561 996 672 992 q 358 960 450 1000 q 194 846 268 921 q 83 681 122 774 q 44 478 43 589 q 99 267 46 368 q 211 122 140 185 q 368 29 282 60 q 543 -1 454 -1 q 719 38 632 -3 q 874 160 807 79 m 513 1065 l 513 1065 q 579 1090 547 1065 l 697 1178 q 733 1250 733 1206 q 707 1309 733 1285 q 646 1333 681 1333 q 590 1311 618 1333 l 513 1253 l 422 1317 q 374 1333 403 1331 q 311 1306 335 1332 q 288 1247 288 1281 q 297 1207 288 1226 q 326 1175 307 1188 l 453 1089 q 513 1065 486 1065 z "},"Ĝ":{"ha":1060,"x_min":36,"x_max":1017,"o":"m 379 22 l 379 22 q 546 -14 461 -10 q 719 13 631 -18 q 876 113 807 43 q 967 247 944 179 q 979 310 974 272 q 988 384 985 349 q 990 439 990 419 q 990 460 992 450 q 992 468 992 464 q 963 535 992 507 q 894 563 935 563 l 728 563 q 699 561 722 563 q 649 558 676 560 q 596 556 621 557 q 561 554 571 554 q 492 522 514 551 q 472 456 469 492 q 499 392 474 419 q 572 367 525 365 q 654 372 608 369 q 768 376 722 376 q 792 375 783 375 q 781 303 790 331 q 738 244 774 279 q 603 176 681 188 q 451 196 526 165 q 316 289 372 226 q 246 426 260 351 q 248 583 229 510 q 313 710 267 656 q 423 797 358 765 q 560 830 488 829 q 707 793 633 831 q 762 753 744 772 q 803 700 779 733 l 832 660 q 899 620 861 622 q 967 640 936 618 q 1007 697 997 661 q 990 769 1017 732 q 960 809 969 794 q 939 839 950 824 q 904 881 928 854 q 860 919 883 903 q 807 954 836 936 q 603 1019 708 1010 q 410 999 499 1029 q 244 906 319 968 q 122 762 171 844 q 54 584 72 679 q 54 392 36 489 q 169 167 79 265 q 379 22 258 69 m 421 1078 l 421 1078 q 486 1092 456 1071 l 576 1156 l 664 1090 q 728 1078 694 1069 q 783 1113 763 1086 q 797 1175 804 1139 q 761 1231 792 1211 l 631 1328 q 567 1340 601 1347 q 560 1339 564 1339 q 553 1338 556 1339 q 524 1325 538 1333 l 390 1233 q 353 1177 358 1211 q 366 1114 349 1143 q 421 1078 383 1085 z "},"Ģ":{"ha":1060,"x_min":36,"x_max":1017,"o":"m 379 19 l 379 19 q 546 -17 461 -12 q 719 10 631 -21 q 876 108 807 40 q 967 242 944 175 q 979 304 974 267 q 988 377 985 342 q 990 431 990 413 q 990 451 992 442 q 992 460 992 456 q 963 526 992 499 q 894 553 935 553 l 728 553 q 701 552 722 553 q 651 550 679 551 q 599 547 624 549 q 561 546 574 546 q 491 514 514 543 q 471 448 468 485 q 499 385 474 411 q 572 360 525 358 q 654 365 608 363 q 768 368 722 368 q 792 367 783 367 q 781 297 790 324 q 738 239 774 274 q 603 172 681 183 q 451 190 526 160 q 316 283 372 221 q 246 419 260 344 q 249 573 229 501 q 314 699 268 644 q 424 785 360 754 q 560 817 488 817 q 707 781 633 818 q 748 753 733 765 q 774 727 763 742 q 803 689 786 713 l 832 649 q 899 609 861 611 q 966 628 936 607 q 1006 685 996 650 q 990 758 1017 721 q 966 788 983 765 q 931 833 949 810 q 904 868 913 857 q 860 906 883 889 q 807 939 836 922 q 603 1005 708 996 q 410 985 499 1014 q 244 892 319 954 q 122 750 171 832 q 54 574 72 668 q 54 385 36 481 q 169 163 79 260 q 379 19 258 65 m 569 -371 l 569 -371 q 631 -285 607 -336 q 661 -201 651 -246 q 640 -104 667 -140 q 578 -61 617 -69 q 556 -58 564 -58 q 526 -60 547 -57 l 503 -69 q 463 -112 472 -86 q 459 -165 453 -139 q 486 -208 465 -192 q 525 -225 501 -221 q 479 -293 497 -275 q 457 -344 454 -321 q 479 -382 460 -368 q 524 -394 499 -396 q 569 -371 549 -393 z "},"Ġ":{"ha":1057,"x_min":33,"x_max":1003,"o":"m 376 36 l 376 36 q 543 0 458 4 q 717 26 628 -4 q 874 126 804 57 q 964 261 942 193 q 976 324 971 286 q 985 398 982 363 q 988 453 988 433 q 988 472 989 464 q 989 482 989 478 q 960 549 989 521 q 892 576 932 576 l 725 576 q 697 575 719 576 q 646 572 674 574 q 593 569 618 571 q 558 568 568 568 q 488 535 510 565 q 468 469 465 506 q 497 406 471 433 q 569 381 522 379 q 651 386 606 383 q 765 389 719 389 q 789 388 781 388 q 778 317 788 344 q 735 258 771 293 q 601 190 678 201 q 449 210 524 178 q 313 303 369 240 q 243 440 257 365 q 245 597 226 524 q 310 724 264 669 q 420 811 356 779 q 558 844 485 843 q 704 807 631 844 q 758 767 742 785 q 800 714 775 749 l 824 681 q 885 639 850 642 q 951 657 921 636 q 992 713 981 678 q 981 788 1003 749 q 941 846 964 817 q 901 894 918 875 q 857 933 881 917 q 804 968 833 950 q 601 1033 706 1024 q 407 1013 496 1043 q 242 919 317 982 q 119 776 168 858 q 51 598 69 693 q 51 406 33 503 q 167 181 76 279 q 376 36 256 83 m 649 1176 l 649 1176 q 624 1274 660 1228 q 492 1306 579 1331 q 442 1273 461 1297 q 419 1217 424 1249 q 426 1157 415 1186 q 467 1111 438 1128 q 547 1089 507 1088 q 615 1113 586 1090 q 649 1176 643 1136 z "},"Ħ":{"ha":1028,"x_min":3,"x_max":1006,"o":"m 918 701 l 918 701 q 983 728 961 703 q 1004 788 1006 753 q 981 847 1004 821 q 918 872 957 872 q 499 864 765 874 l 94 850 q 27 825 51 849 q 4 763 3 801 q 31 701 6 724 q 97 679 57 678 l 497 694 q 610 697 551 697 q 669 698 639 697 q 729 699 699 699 q 918 701 838 699 m 301 96 l 301 96 l 301 96 q 299 436 301 208 q 728 444 583 446 l 728 96 q 747 34 728 57 q 796 3 767 11 q 854 3 825 -4 q 903 34 883 11 q 922 96 922 57 q 924 899 922 808 q 895 970 924 946 q 828 995 867 994 q 760 972 790 996 q 729 901 731 949 q 728 639 728 792 q 296 631 581 639 q 297 897 294 792 q 269 969 297 944 q 202 996 240 994 q 134 974 164 997 q 103 903 104 951 q 104 489 100 771 q 107 99 108 206 q 126 37 107 60 q 175 6 146 14 q 233 5 204 -3 q 282 35 263 13 q 301 96 301 58 z "},"Ĥ":{"ha":1039,"x_min":100,"x_max":935,"o":"m 111 93 l 111 93 q 131 33 111 56 q 179 1 150 10 q 238 1 208 -7 q 286 31 267 8 q 306 93 306 54 q 301 401 306 203 q 738 410 594 411 q 739 93 739 149 q 758 31 739 54 q 807 1 778 8 q 865 1 836 -7 q 914 31 894 8 q 933 93 933 54 q 933 252 933 158 q 931 448 932 346 q 932 639 931 550 q 935 900 932 775 q 906 972 935 947 q 840 999 878 997 q 772 977 801 1000 q 740 906 742 954 q 738 604 738 772 q 299 594 590 604 q 303 908 297 753 q 276 982 304 957 q 210 1008 249 1007 q 142 987 172 1010 q 108 917 111 964 q 107 506 100 829 q 111 93 113 182 m 364 1050 l 364 1050 q 429 1064 399 1043 l 519 1128 l 607 1063 q 672 1050 638 1042 q 726 1085 706 1058 q 740 1147 747 1111 q 704 1203 735 1183 l 574 1300 q 510 1313 544 1319 q 503 1311 507 1311 q 496 1310 499 1311 q 467 1297 481 1306 l 333 1206 q 297 1149 301 1183 q 309 1086 292 1115 q 364 1050 326 1057 z "},"Í":{"ha":404,"x_min":90,"x_max":422,"o":"m 299 90 l 299 90 q 300 493 300 222 q 300 728 300 628 q 300 893 300 828 q 281 954 300 931 q 232 986 261 978 q 174 988 203 994 q 125 958 144 981 q 106 896 106 935 q 106 730 106 831 q 106 494 106 629 q 104 93 106 224 q 124 32 104 56 q 172 0 143 8 q 231 -1 201 -8 q 279 28 260 6 q 299 90 299 51 m 176 1056 l 176 1056 q 249 1075 217 1050 l 379 1169 q 418 1233 414 1194 q 400 1303 422 1271 q 336 1343 378 1336 q 264 1324 297 1349 l 133 1229 q 94 1166 99 1204 q 113 1095 90 1128 q 176 1056 135 1063 z "},"Ĭ":{"ha":404,"x_min":-33,"x_max":440,"o":"m 299 90 l 299 90 q 300 493 300 222 q 300 728 300 628 q 300 893 300 828 q 281 954 300 931 q 232 986 261 978 q 174 988 203 994 q 125 958 144 981 q 106 896 106 935 q 106 730 106 831 q 106 494 106 629 q 104 93 106 224 q 124 32 104 56 q 172 0 143 8 q 231 -1 201 -8 q 279 28 260 6 q 299 90 299 51 m 222 1058 l 222 1058 q 304 1076 272 1060 q 392 1143 350 1100 q 438 1240 440 1193 q 413 1305 435 1281 q 360 1329 392 1329 q 302 1308 318 1329 q 276 1261 286 1286 q 214 1225 240 1225 q 178 1233 200 1225 q 139 1258 156 1240 q 122 1288 129 1268 q 96 1328 113 1318 q 50 1339 79 1339 q -6 1317 22 1339 q -33 1258 -33 1296 q 8 1157 -33 1203 q 108 1085 49 1111 q 222 1058 167 1057 z "},"Î":{"ha":404,"x_min":-24,"x_max":432,"o":"m 299 90 l 299 90 q 300 493 300 222 q 300 728 300 628 q 300 893 300 828 q 281 954 300 931 q 232 986 261 978 q 174 988 203 994 q 125 958 144 981 q 106 896 106 935 q 106 730 106 831 q 106 494 106 629 q 104 93 106 224 q 124 32 104 56 q 172 0 143 8 q 231 -1 201 -8 q 279 28 260 6 q 299 90 299 51 m 49 1065 l 49 1065 q 114 1079 83 1058 l 204 1143 l 292 1078 q 356 1065 322 1057 q 411 1100 390 1074 q 425 1163 432 1126 q 389 1218 419 1199 l 258 1315 q 194 1328 229 1335 q 188 1326 192 1326 q 181 1325 183 1326 q 151 1313 165 1321 l 18 1221 q -19 1165 -14 1199 q -6 1101 -24 1131 q 49 1065 11 1072 z "},"Ï":{"ha":404,"x_min":-37,"x_max":442,"o":"m 299 90 l 299 90 q 300 493 300 222 q 300 728 300 628 q 300 893 300 828 q 281 954 300 931 q 232 986 261 978 q 174 988 203 994 q 125 958 144 981 q 106 896 106 935 q 106 730 106 831 q 106 494 106 629 q 104 93 106 224 q 124 32 104 56 q 172 0 143 8 q 231 -1 201 -8 q 279 28 260 6 q 299 90 299 51 m 171 1153 l 171 1153 q 168 1222 178 1188 q 124 1268 158 1256 q 90 1278 108 1276 q 65 1278 79 1279 q 33 1272 50 1278 q -21 1228 -4 1258 q -34 1166 -37 1199 q -7 1108 -31 1133 q 59 1074 19 1076 q 131 1093 99 1072 q 171 1153 163 1114 m 436 1151 l 436 1151 q 433 1211 442 1188 q 408 1254 422 1242 q 378 1272 393 1267 q 336 1278 360 1278 q 278 1261 300 1279 q 236 1190 244 1235 q 260 1107 228 1144 q 324 1074 285 1076 q 397 1092 364 1072 q 436 1151 431 1113 z "},"İ":{"ha":404,"x_min":83,"x_max":328,"o":"m 299 90 l 299 90 q 300 493 300 222 q 300 728 300 628 q 300 893 300 828 q 281 954 300 931 q 232 986 261 978 q 174 988 203 994 q 125 958 144 981 q 106 896 106 935 q 106 730 106 831 q 106 494 106 629 q 104 93 106 224 q 124 32 104 56 q 172 0 143 8 q 231 -1 201 -8 q 279 28 260 6 q 299 90 299 51 m 317 1176 l 317 1176 q 292 1274 328 1228 q 160 1306 247 1331 q 110 1273 129 1297 q 88 1217 92 1249 q 94 1157 83 1186 q 135 1111 106 1128 q 215 1089 175 1088 q 283 1113 254 1090 q 317 1176 311 1136 z "},"Ì":{"ha":404,"x_min":-8,"x_max":321,"o":"m 299 90 l 299 90 q 300 493 300 222 q 300 728 300 628 q 300 893 300 828 q 281 954 300 931 q 232 986 261 978 q 174 988 203 994 q 125 958 144 981 q 106 896 106 935 q 106 730 106 831 q 106 494 106 629 q 104 93 106 224 q 124 32 104 56 q 172 0 143 8 q 231 -1 201 -8 q 279 28 260 6 q 299 90 299 51 m 236 1056 l 236 1056 q 299 1094 278 1061 q 317 1165 321 1126 q 279 1229 314 1204 l 149 1324 q 76 1343 115 1349 q 13 1305 35 1338 q -5 1233 -8 1272 q 33 1169 -1 1194 l 164 1075 q 236 1056 197 1050 z "},"Ī":{"ha":404,"x_min":-47,"x_max":453,"o":"m 299 90 l 299 90 q 300 493 300 222 q 300 728 300 628 q 300 893 300 828 q 281 954 300 931 q 232 986 261 978 q 174 988 203 994 q 125 958 144 981 q 106 896 106 935 q 106 730 106 831 q 106 494 106 629 q 104 93 106 224 q 124 32 104 56 q 172 0 143 8 q 231 -1 201 -8 q 279 28 260 6 q 299 90 299 51 m 99 1110 l 99 1110 l 211 1110 q 368 1115 289 1108 q 432 1142 411 1117 q 452 1199 453 1167 q 430 1255 451 1231 q 367 1279 408 1279 q 255 1276 314 1278 q 139 1276 196 1275 q 38 1278 82 1276 q -26 1251 -6 1276 q -46 1192 -47 1225 q -22 1136 -44 1160 q 42 1114 0 1113 q 99 1110 75 1110 z "},"Į":{"ha":404,"x_min":-32,"x_max":338,"o":"m 299 90 l 299 90 q 300 493 300 222 q 300 728 300 628 q 300 893 300 828 q 281 954 300 931 q 232 986 261 978 q 174 988 203 994 q 125 958 144 981 q 106 896 106 935 q 106 730 106 831 q 106 494 106 629 q 104 93 106 224 q 124 32 104 56 q 172 0 143 8 q 231 -1 201 -8 q 279 28 260 6 q 299 90 299 51 m 158 -276 l 158 -276 q 228 -267 199 -276 q 288 -243 257 -258 q 338 -169 338 -212 q 322 -124 338 -144 q 276 -104 306 -104 q 224 -125 250 -104 q 197 -142 208 -136 q 167 -147 185 -147 q 126 -135 143 -147 q 108 -101 110 -122 q 147 -33 104 -60 q 208 -11 171 -19 q 229 -6 218 -8 q 249 1 239 -3 q 285 38 274 13 q 281 88 296 63 q 179 118 256 128 q 95 90 139 114 q 21 32 51 67 q -29 -104 -32 -29 q 14 -215 -29 -167 q 77 -260 38 -243 q 158 -276 117 -276 z "},"Ĩ":{"ha":404,"x_min":-94,"x_max":464,"o":"m 299 90 l 299 90 q 300 493 300 222 q 300 728 300 628 q 300 893 300 828 q 281 954 300 931 q 232 986 261 978 q 174 988 203 994 q 125 958 144 981 q 106 896 106 935 q 106 730 106 831 q 106 494 106 629 q 104 93 106 224 q 124 32 104 56 q 172 0 143 8 q 231 -1 201 -8 q 279 28 260 6 q 299 90 299 51 m -31 1069 l -31 1069 q 3 1077 -8 1069 q 28 1107 14 1085 q 88 1140 49 1140 q 127 1133 107 1140 q 176 1108 147 1125 q 238 1078 214 1088 q 290 1069 261 1069 q 376 1093 336 1069 q 440 1155 415 1117 q 464 1238 464 1193 q 447 1289 464 1269 q 399 1308 429 1308 q 360 1299 372 1308 q 332 1267 347 1290 q 282 1233 311 1233 q 242 1240 258 1233 q 197 1265 225 1247 q 142 1296 167 1286 q 81 1306 117 1306 q 0 1281 40 1306 q -67 1219 -40 1257 q -94 1143 -94 1182 q -31 1069 -94 1069 z "},"Ĵ":{"ha":754,"x_min":6,"x_max":765,"o":"m 371 4 l 371 4 q 494 90 440 31 q 568 224 547 150 q 601 439 593 311 q 608 556 607 504 q 605 665 608 608 q 596 803 601 721 q 663 800 629 803 q 735 826 710 799 q 763 892 761 854 q 743 961 765 931 q 674 994 721 992 q 325 994 539 1001 q 258 963 283 993 q 232 894 232 933 q 264 826 232 856 q 333 800 293 799 q 401 803 372 801 q 412 636 407 725 q 412 456 417 547 q 382 276 407 364 q 350 220 374 246 q 299 183 326 194 q 229 208 257 167 q 218 238 224 215 l 214 256 q 211 268 211 267 q 200 307 206 290 q 162 358 188 343 q 107 372 136 374 q 53 354 78 371 q 17 310 28 338 q 17 246 6 282 q 22 222 19 238 q 31 189 31 190 q 68 100 44 135 q 160 15 107 44 q 265 -15 213 -15 q 371 4 317 -15 m 325 1065 l 325 1065 q 390 1079 360 1058 l 481 1143 l 568 1078 q 633 1065 599 1057 q 688 1100 667 1074 q 701 1163 708 1126 q 665 1218 696 1199 l 535 1315 q 471 1328 506 1335 q 464 1326 468 1326 q 457 1325 460 1326 q 428 1313 442 1321 l 294 1221 q 258 1165 263 1199 q 270 1101 253 1131 q 325 1065 288 1072 z "},"Ķ":{"ha":944,"x_min":107,"x_max":908,"o":"m 735 33 q 788 -3 758 3 q 845 4 818 -8 q 890 41 872 17 q 908 96 907 65 q 885 156 908 126 l 578 604 l 819 838 q 853 892 849 863 q 844 949 857 922 q 806 991 831 975 q 751 1007 781 1007 q 692 982 721 1007 l 500 797 l 303 613 q 306 904 300 800 q 288 967 307 943 q 240 999 269 990 q 182 1000 211 1007 q 133 971 153 993 q 111 910 113 949 q 108 800 108 864 q 108 667 107 736 q 110 538 108 599 q 111 434 110 496 q 114 305 113 372 q 117 181 115 238 q 118 94 118 124 q 149 24 119 47 q 217 1 179 0 q 284 26 256 1 q 313 97 313 50 q 307 356 311 140 l 435 471 l 735 33 l 735 33 m 532 -371 l 532 -371 q 593 -285 569 -336 q 624 -201 614 -246 q 603 -104 629 -140 q 540 -61 579 -69 q 518 -58 526 -58 q 489 -60 510 -57 l 465 -69 q 425 -112 435 -86 q 422 -165 415 -139 q 449 -208 428 -192 q 488 -225 464 -221 q 442 -293 460 -275 q 419 -344 417 -321 q 442 -382 422 -368 q 486 -394 461 -396 q 532 -371 511 -393 z "},"Ĺ":{"ha":800,"x_min":93,"x_max":792,"o":"m 219 -3 l 219 -3 q 458 -3 265 -4 q 696 -1 650 -1 q 768 27 744 -1 q 792 93 792 56 q 768 159 792 131 q 696 188 744 188 q 506 186 635 188 q 307 185 375 185 l 303 535 l 299 899 q 267 969 297 946 q 199 992 238 993 q 133 967 161 992 q 104 896 104 943 l 108 506 q 114 104 113 246 q 143 36 115 64 q 219 -3 172 -1 m 179 1056 l 179 1056 q 251 1075 219 1050 l 382 1169 q 421 1233 417 1194 q 403 1303 425 1271 q 339 1343 381 1336 q 267 1324 300 1349 l 136 1229 q 97 1166 101 1204 q 115 1095 93 1128 q 179 1056 138 1063 z "},"Ľ":{"ha":800,"x_min":104,"x_max":792,"o":"m 219 -3 l 219 -3 q 458 -3 265 -4 q 696 -1 650 -1 q 768 27 744 -1 q 792 93 792 56 q 768 159 792 131 q 696 188 744 188 q 506 186 635 188 q 307 185 375 185 l 303 535 l 299 899 q 267 969 297 946 q 199 992 238 993 q 133 967 161 992 q 104 896 104 943 l 108 506 q 114 104 113 246 q 143 36 115 64 q 219 -3 172 -1 m 708 704 l 708 704 q 733 802 728 767 q 738 882 739 838 q 714 981 735 925 q 666 1027 697 1018 q 603 1025 635 1036 q 556 988 572 1014 q 556 926 540 961 q 567 839 569 875 q 550 756 565 804 q 556 696 538 722 q 605 658 574 669 q 666 656 636 646 q 708 704 696 665 z "},"Ļ":{"ha":800,"x_min":104,"x_max":792,"o":"m 219 -3 l 219 -3 q 458 -3 265 -4 q 696 -1 650 -1 q 768 27 744 -1 q 792 93 792 56 q 768 159 792 131 q 696 188 744 188 q 506 186 635 188 q 307 185 375 185 l 303 535 l 299 899 q 267 969 297 946 q 199 992 238 993 q 133 967 161 992 q 104 896 104 943 l 108 506 q 114 104 113 246 q 143 36 115 64 q 219 -3 172 -1 m 465 -371 l 465 -371 q 526 -285 503 -336 q 557 -201 547 -246 q 536 -104 563 -140 q 474 -61 513 -69 q 451 -58 460 -58 q 422 -60 443 -57 l 399 -69 q 358 -112 368 -86 q 355 -165 349 -139 q 382 -208 361 -192 q 421 -225 397 -221 q 375 -293 393 -275 q 353 -344 350 -321 q 375 -382 356 -368 q 419 -394 394 -396 q 465 -371 444 -393 z "},"Ŀ":{"ha":800,"x_min":104,"x_max":792,"o":"m 219 -3 l 219 -3 q 458 -3 265 -4 q 696 -1 650 -1 q 768 27 744 -1 q 792 93 792 56 q 768 159 792 131 q 696 188 744 188 q 506 186 635 188 q 307 185 375 185 l 303 535 l 299 899 q 267 969 297 946 q 199 992 238 993 q 133 967 161 992 q 104 896 104 943 l 108 506 q 114 104 113 246 q 143 36 115 64 q 219 -3 172 -1 m 644 632 l 644 632 q 579 667 614 664 q 515 652 544 669 q 467 605 485 635 q 451 540 449 575 q 486 474 454 504 q 552 439 517 442 q 617 454 588 436 q 665 502 647 472 q 679 567 682 532 q 644 632 676 601 z "},"Ł":{"ha":800,"x_min":-36,"x_max":792,"o":"m 49 332 l 49 332 q 100 350 76 332 l 310 497 q 447 589 371 539 q 481 650 481 614 q 456 710 481 683 q 400 736 432 736 q 342 718 365 736 q 325 707 333 713 q 308 694 317 700 q -4 481 67 531 q -36 417 -36 457 q -11 358 -36 383 q 49 332 14 332 m 219 -3 l 219 -3 q 458 -3 265 -4 q 696 -1 650 -1 q 768 27 744 -1 q 792 93 792 56 q 768 159 792 131 q 696 188 744 188 q 506 186 635 188 q 307 185 375 185 l 303 535 l 299 899 q 267 969 297 946 q 199 992 238 993 q 133 967 161 992 q 104 896 104 943 l 108 506 q 114 104 113 246 q 143 36 115 64 q 219 -3 172 -1 z "},"Ń":{"ha":1043,"x_min":101,"x_max":940,"o":"m 842 6 l 842 6 q 907 35 881 8 q 935 101 933 63 q 939 906 940 717 q 908 976 938 953 q 840 999 878 1000 q 773 974 801 999 q 744 903 744 950 q 743 379 747 701 l 676 475 q 446 772 524 692 q 367 868 419 804 q 290 960 314 931 q 244 990 271 982 q 207 999 226 997 q 138 972 167 1000 q 107 904 108 944 q 110 492 101 764 q 117 96 117 218 q 136 34 117 57 q 185 3 156 11 q 243 3 214 -4 q 292 34 272 11 q 311 96 311 57 q 306 414 311 222 q 299 660 300 604 q 517 364 363 582 q 751 39 658 149 q 842 6 788 -4 m 496 1056 l 496 1056 q 568 1075 536 1050 l 699 1169 q 738 1233 733 1194 q 719 1303 742 1271 q 656 1343 697 1336 q 583 1324 617 1349 l 453 1229 q 414 1166 418 1204 q 432 1095 410 1128 q 496 1056 454 1063 z "},"Ň":{"ha":1074,"x_min":103,"x_max":985,"o":"m 783 -10 l 783 -10 q 935 57 869 -22 q 954 94 949 74 l 957 108 q 958 126 958 117 l 958 161 q 956 249 958 193 q 953 295 954 267 q 950 349 951 324 q 949 381 949 374 q 979 922 940 593 q 968 985 985 960 q 924 1021 951 1010 q 866 1028 896 1032 q 814 1003 836 1024 q 788 944 792 983 q 754 375 746 601 q 756 347 754 369 q 758 299 757 325 q 761 257 760 274 l 746 281 q 664 401 703 338 l 503 686 l 463 750 q 422 808 444 779 l 389 854 l 347 908 q 303 965 318 947 q 244 1003 281 996 q 215 1007 231 1007 q 147 978 175 1007 q 118 910 118 950 l 118 613 q 118 528 118 582 q 117 418 118 475 q 115 321 117 361 q 111 210 114 261 q 104 88 108 158 q 131 15 103 40 q 197 -13 158 -11 q 265 7 235 -15 q 299 76 296 29 q 313 625 311 257 l 336 586 q 408 458 361 544 l 500 297 q 590 164 544 225 l 596 156 l 613 129 q 668 54 640 82 q 783 -10 722 -1 m 543 1024 l 543 1024 q 647 1064 593 1017 l 724 1125 q 758 1184 758 1150 q 737 1245 758 1218 q 681 1280 715 1272 q 613 1261 647 1288 q 556 1217 586 1242 q 489 1274 524 1246 q 422 1294 456 1300 q 365 1261 388 1288 q 342 1201 342 1235 q 376 1139 342 1167 q 454 1072 408 1113 q 543 1024 503 1028 z "},"Ņ":{"ha":1043,"x_min":101,"x_max":940,"o":"m 842 6 l 842 6 q 907 35 881 8 q 935 101 933 63 q 939 906 940 717 q 908 976 938 953 q 840 999 878 1000 q 773 974 801 999 q 744 903 744 950 q 743 379 747 701 l 676 475 q 446 772 524 692 q 367 868 419 804 q 290 960 314 931 q 244 990 271 982 q 207 999 226 997 q 138 972 167 1000 q 107 904 108 944 q 110 492 101 764 q 117 96 117 218 q 136 34 117 57 q 185 3 156 11 q 243 3 214 -4 q 292 34 272 11 q 311 96 311 57 q 306 414 311 222 q 299 660 300 604 q 517 364 363 582 q 751 39 658 149 q 842 6 788 -4 m 532 -371 l 532 -371 q 593 -285 569 -336 q 624 -201 614 -246 q 603 -104 629 -140 q 540 -61 579 -69 q 518 -58 526 -58 q 489 -60 510 -57 l 465 -69 q 425 -112 435 -86 q 422 -165 415 -139 q 449 -208 428 -192 q 488 -225 464 -221 q 442 -293 460 -275 q 419 -344 417 -321 q 442 -382 422 -368 q 486 -394 461 -396 q 532 -371 511 -393 z "},"Ñ":{"ha":1043,"x_min":101,"x_max":940,"o":"m 842 -8 l 842 -8 q 907 22 881 -6 q 935 88 933 49 q 939 892 940 689 q 908 963 938 939 q 840 985 878 986 q 773 960 801 985 q 744 889 744 936 q 743 351 747 674 l 676 447 q 446 758 524 664 q 367 857 419 790 q 289 953 313 924 q 243 983 269 975 q 206 992 225 990 q 136 965 165 993 q 106 897 107 938 q 110 464 101 736 q 117 90 117 190 q 136 28 117 51 q 185 -2 156 6 q 243 -2 214 -10 q 292 28 272 6 q 311 90 311 51 q 306 386 311 194 q 299 632 300 576 q 517 336 363 554 q 751 25 658 135 q 842 -8 788 -18 m 283 1044 l 283 1044 q 324 1055 311 1044 q 353 1089 336 1065 q 382 1117 367 1107 q 425 1128 397 1128 q 468 1119 449 1128 q 525 1088 488 1110 q 591 1056 561 1067 q 658 1044 621 1044 q 763 1072 715 1044 q 838 1142 810 1099 q 864 1228 864 1183 q 844 1285 864 1264 q 788 1307 824 1307 q 740 1296 756 1307 q 710 1261 725 1285 q 683 1231 696 1240 q 647 1221 671 1221 q 601 1230 621 1221 q 549 1260 581 1239 q 487 1292 517 1281 q 413 1304 457 1304 q 318 1277 365 1304 q 240 1209 271 1250 q 208 1125 208 1168 q 228 1066 208 1088 q 283 1044 247 1044 z "},"Ŋ":{"ha":1061,"x_min":104,"x_max":968,"o":"m 815 -307 l 815 -307 q 838 -274 824 -294 q 865 -236 853 -253 q 879 -218 878 -219 q 946 -92 928 -150 q 944 214 968 -21 q 947 575 944 346 q 951 919 950 804 q 932 981 951 957 q 883 1013 913 1004 q 825 1014 854 1021 q 776 984 796 1007 q 757 922 757 961 q 754 606 756 806 q 751 303 753 406 q 556 589 636 456 q 506 669 542 610 l 453 758 l 406 835 l 349 922 q 294 997 322 961 q 231 1036 271 1031 q 160 1018 192 1042 q 136 993 144 1008 q 110 933 113 968 q 105 781 106 863 q 104 622 104 699 q 106 492 104 544 q 110 349 107 422 q 117 208 114 275 q 119 93 119 140 q 141 32 121 54 q 190 3 161 10 q 249 4 219 -4 q 297 36 278 13 q 314 99 315 60 q 310 198 313 138 q 304 326 307 258 q 300 454 301 394 q 297 642 297 550 l 389 489 q 738 7 511 288 q 764 -17 749 -7 q 760 -33 763 -25 q 721 -106 751 -62 q 651 -204 653 -201 q 635 -267 631 -237 q 660 -319 639 -297 q 709 -349 681 -340 q 767 -348 738 -357 q 815 -307 796 -339 z "},"Ó":{"ha":1025,"x_min":43,"x_max":986,"o":"m 365 7 l 365 7 q 551 -14 463 -22 q 715 26 640 -6 q 847 119 790 58 q 938 252 904 179 q 979 415 972 325 q 961 596 986 504 q 915 715 946 657 q 851 808 885 774 q 774 878 810 851 q 690 936 739 906 l 628 975 q 572 989 601 990 q 533 992 553 994 q 481 990 515 992 q 408 983 446 988 q 349 972 371 979 q 169 854 239 943 q 71 653 101 767 q 44 443 43 551 q 81 250 47 333 q 365 7 156 67 m 418 193 l 418 193 q 261 322 300 226 q 239 447 240 372 q 257 601 238 522 q 315 726 278 678 q 399 786 353 774 q 465 794 424 793 q 544 799 507 794 q 653 726 608 758 q 726 653 697 694 q 775 546 756 613 q 784 413 790 475 q 746 301 778 350 q 665 221 713 251 q 553 181 618 189 q 418 193 488 174 m 444 1028 l 444 1028 q 511 1061 485 1031 l 619 1181 q 643 1252 647 1214 q 612 1317 639 1290 q 542 1342 585 1343 q 475 1308 501 1339 l 367 1189 q 343 1117 339 1156 q 374 1053 347 1079 q 444 1028 401 1026 z "},"Ŏ":{"ha":1017,"x_min":42,"x_max":974,"o":"m 461 -12 l 461 -12 q 669 33 575 -17 q 831 166 763 82 q 935 349 899 250 q 972 558 971 449 q 928 768 974 667 q 783 936 881 869 q 696 981 740 965 q 625 999 651 996 q 553 1003 597 1001 q 532 1004 542 1003 q 500 1006 522 1006 l 471 1006 q 392 997 426 1006 q 235 915 304 972 q 125 783 165 857 q 63 626 83 708 q 44 450 42 544 q 149 142 47 278 q 278 33 197 75 q 461 -12 358 -8 m 469 178 l 469 178 q 348 216 399 179 q 269 315 297 253 q 239 457 240 378 q 292 683 236 589 q 447 813 349 776 q 485 817 467 819 q 511 815 504 817 q 533 811 518 813 q 575 808 549 810 q 618 801 601 807 q 645 790 633 796 q 675 771 657 783 q 770 626 747 721 q 750 415 793 532 q 680 292 724 346 q 582 207 636 238 q 469 178 528 176 m 538 1058 l 538 1058 q 619 1076 588 1060 q 707 1143 665 1100 q 753 1240 756 1193 q 728 1305 750 1281 q 675 1329 707 1329 q 617 1308 633 1329 q 592 1261 601 1286 q 529 1225 556 1225 q 493 1233 515 1225 q 454 1258 471 1240 q 438 1288 444 1268 q 411 1328 428 1318 q 365 1339 394 1339 q 310 1317 338 1339 q 282 1258 282 1296 q 323 1157 282 1203 q 424 1085 364 1111 q 538 1058 482 1057 z "},"Ô":{"ha":1025,"x_min":43,"x_max":986,"o":"m 365 7 l 365 7 q 551 -14 463 -22 q 715 26 640 -6 q 847 119 790 58 q 938 252 904 179 q 979 415 972 325 q 961 596 986 504 q 915 715 946 657 q 851 808 885 774 q 774 878 810 851 q 690 936 739 906 l 628 975 q 572 989 601 990 q 533 992 553 994 q 481 990 515 992 q 408 983 446 988 q 349 972 371 979 q 169 854 239 943 q 71 653 101 767 q 44 443 43 551 q 81 250 47 333 q 365 7 156 67 m 418 193 l 418 193 q 261 322 300 226 q 239 447 240 372 q 257 601 238 522 q 315 726 278 678 q 399 786 353 774 q 465 794 424 793 q 544 799 507 794 q 653 726 608 758 q 726 653 697 694 q 775 546 756 613 q 784 413 790 475 q 746 301 778 350 q 665 221 713 251 q 553 181 618 189 q 418 193 488 174 m 338 1022 l 338 1022 q 403 1036 372 1015 l 493 1100 l 581 1035 q 645 1022 611 1014 q 700 1057 679 1031 q 714 1119 721 1083 q 678 1175 708 1156 l 547 1272 q 483 1285 518 1292 q 476 1283 481 1283 q 469 1282 472 1283 q 440 1269 454 1278 l 307 1178 q 270 1122 275 1156 q 283 1058 265 1088 q 338 1022 300 1029 z "},"Ö":{"ha":1025,"x_min":43,"x_max":986,"o":"m 365 7 l 365 7 q 551 -15 463 -24 q 715 28 640 -7 q 847 125 790 61 q 938 265 904 188 q 979 436 972 342 q 961 626 986 529 q 915 753 946 692 q 851 850 885 814 q 799 902 822 881 q 749 942 775 924 q 690 985 724 961 l 628 1025 q 572 1040 601 1042 q 533 1043 553 1046 q 480 1041 514 1043 q 410 1034 446 1039 q 349 1022 374 1029 q 169 899 239 992 q 71 686 101 806 q 44 465 43 579 q 81 263 47 350 q 365 7 156 69 m 418 203 l 418 203 q 261 339 300 238 q 239 470 240 392 q 257 632 238 549 q 315 763 278 713 q 399 826 353 814 q 465 835 426 835 q 544 840 504 835 q 653 764 608 797 q 726 688 697 731 q 775 574 756 644 q 784 433 790 499 q 746 317 778 368 q 665 232 713 264 q 553 190 618 199 q 418 203 488 182 m 451 1239 l 451 1239 q 382 1271 418 1268 q 315 1258 346 1274 q 265 1215 283 1242 q 250 1158 247 1189 q 285 1100 253 1126 q 356 1069 319 1071 q 424 1082 393 1067 q 473 1124 456 1097 q 488 1182 490 1151 q 451 1239 485 1213 m 717 1232 l 717 1232 q 647 1264 683 1261 q 580 1251 611 1267 q 531 1208 549 1235 q 515 1151 513 1182 q 550 1093 518 1119 q 622 1062 585 1064 q 690 1075 658 1060 q 738 1117 721 1090 q 753 1175 756 1144 q 717 1232 750 1206 z "},"Ò":{"ha":1025,"x_min":43,"x_max":986,"o":"m 365 7 l 365 7 q 551 -14 463 -22 q 715 26 640 -6 q 847 119 790 58 q 938 252 904 179 q 979 415 972 325 q 961 596 986 504 q 915 715 946 657 q 851 808 885 774 q 774 878 810 851 q 690 936 739 906 l 628 975 q 572 989 601 990 q 533 992 553 994 q 481 990 515 992 q 408 983 446 988 q 349 972 371 979 q 169 854 239 943 q 71 653 101 767 q 44 443 43 551 q 81 250 47 333 q 365 7 156 67 m 418 193 l 418 193 q 261 322 300 226 q 239 447 240 372 q 257 601 238 522 q 315 726 278 678 q 399 786 353 774 q 465 794 424 793 q 544 799 507 794 q 653 726 608 758 q 726 653 697 694 q 775 546 756 613 q 784 413 790 475 q 746 301 778 350 q 665 221 713 251 q 553 181 618 189 q 418 193 488 174 m 544 1017 l 544 1017 q 615 1042 588 1015 q 646 1106 642 1068 q 622 1178 650 1144 l 514 1297 q 447 1331 488 1328 q 377 1306 404 1332 q 346 1241 350 1279 q 369 1169 342 1203 l 478 1050 q 544 1017 504 1019 z "},"Ő":{"ha":1050,"x_min":39,"x_max":1008,"o":"m 594 -22 l 594 -22 q 779 26 697 -17 q 910 138 861 69 q 983 289 958 206 q 1005 458 1008 371 q 971 625 1001 546 q 850 813 938 718 q 742 912 792 878 q 629 963 692 946 q 575 975 603 971 q 557 974 547 979 q 524 976 542 975 l 503 978 q 308 971 417 1013 q 208 917 247 947 q 107 797 140 863 q 62 660 74 731 q 44 524 50 590 q 79 306 39 411 q 192 124 119 201 q 371 10 264 46 q 594 -22 478 -26 m 586 172 l 586 172 q 406 208 489 168 q 279 333 324 249 q 239 513 233 417 q 263 669 243 611 q 331 767 282 728 q 358 782 340 774 q 394 799 389 799 q 507 783 443 792 q 585 772 563 778 q 637 749 610 767 q 708 682 664 731 q 790 558 768 615 q 814 419 818 488 q 781 297 810 351 q 701 208 751 242 q 586 172 651 175 m 411 1088 l 411 1088 l 500 1229 q 515 1288 519 1260 q 491 1338 511 1317 q 444 1368 471 1360 q 389 1368 417 1376 q 343 1328 361 1360 l 254 1186 q 239 1126 235 1156 q 263 1076 243 1097 q 310 1047 282 1056 q 365 1047 338 1038 q 411 1088 392 1056 m 697 1076 l 697 1076 l 786 1189 q 806 1260 814 1225 q 769 1319 799 1296 q 703 1340 740 1342 q 639 1303 667 1339 l 551 1192 q 528 1134 528 1163 q 547 1082 529 1106 q 591 1047 564 1058 q 647 1042 618 1036 q 697 1076 675 1047 z "},"Ō":{"ha":1126,"x_min":43,"x_max":1086,"o":"m 717 -8 l 717 -8 q 884 56 814 4 q 999 182 954 107 q 1065 342 1044 257 q 1082 503 1086 418 q 1050 670 1078 589 q 972 811 1022 751 q 700 983 851 951 l 688 986 q 471 1007 567 1022 q 313 950 375 992 q 285 932 297 942 q 132 760 194 864 q 66 613 89 692 q 47 451 43 533 q 88 290 50 369 q 183 161 122 219 q 322 63 244 103 q 481 4 399 22 q 717 -8 603 -24 m 689 178 l 689 178 q 438 217 567 160 q 263 371 310 275 q 243 513 233 436 q 295 661 253 589 q 404 785 338 733 q 469 814 421 796 q 657 800 613 810 q 740 767 701 790 q 822 690 778 743 q 881 556 865 640 q 876 383 896 472 q 806 241 856 294 q 689 178 757 188 m 368 1078 l 368 1078 q 688 1082 518 1081 q 749 1111 724 1082 q 773 1180 775 1142 q 748 1247 771 1218 q 688 1275 725 1275 q 365 1271 515 1274 q 303 1240 324 1269 q 284 1172 283 1210 q 306 1106 285 1135 q 368 1078 326 1078 z "},"Ǫ":{"ha":1017,"x_min":42,"x_max":974,"o":"m 461 -12 l 461 -12 q 669 33 575 -17 q 831 166 763 82 q 935 349 899 250 q 972 558 971 449 q 928 768 974 667 q 783 936 881 869 q 696 981 740 965 q 625 999 651 996 q 553 1003 597 1001 q 532 1004 542 1003 q 500 1006 522 1006 l 471 1006 q 392 997 426 1006 q 235 915 304 972 q 125 783 165 857 q 63 626 83 708 q 44 450 42 544 q 149 142 47 278 q 278 33 197 75 q 461 -12 358 -8 m 469 178 l 469 178 q 348 216 399 179 q 269 315 297 253 q 239 457 240 378 q 292 683 236 589 q 447 813 349 776 q 485 817 467 819 q 511 815 504 817 q 533 811 518 813 q 575 808 549 810 q 618 801 601 807 q 645 790 633 796 q 675 771 657 783 q 770 626 747 721 q 750 415 793 532 q 680 292 724 346 q 582 207 636 238 q 469 178 528 176 m 542 -261 l 542 -261 q 611 -252 582 -261 q 671 -228 640 -243 q 721 -154 721 -197 q 705 -109 721 -129 q 660 -89 689 -89 q 607 -110 633 -89 q 580 -126 592 -121 q 550 -132 568 -132 q 510 -119 526 -132 q 492 -86 493 -107 q 531 -18 488 -44 q 592 4 554 -4 q 613 10 601 7 q 632 17 622 13 q 668 53 657 28 q 664 103 679 78 q 563 133 639 143 q 478 106 522 129 q 404 47 435 82 q 354 -89 351 -14 q 397 -200 354 -151 q 460 -244 421 -228 q 542 -261 500 -261 z "},"Ø":{"ha":1047,"x_min":0,"x_max":1007,"o":"m 79 -61 l 79 -61 q 135 -36 114 -61 l 208 44 l 558 440 l 989 894 q 1007 944 1007 914 q 984 999 1007 976 q 931 1022 961 1022 q 878 999 900 1022 l 447 536 l 104 150 l 19 61 q 0 15 0 40 q 24 -38 0 -15 q 79 -61 49 -61 m 376 7 l 376 7 q 558 -15 469 -21 q 726 26 647 -8 q 858 119 801 58 q 990 415 976 244 q 972 596 997 507 q 857 818 942 729 l 785 888 q 685 949 747 919 q 583 989 636 990 q 544 992 568 994 q 485 990 521 992 q 415 983 449 988 q 360 972 381 979 q 181 854 250 943 q 82 653 113 767 q 56 443 54 546 q 92 250 57 335 q 119 194 104 221 l 194 103 q 376 7 268 38 m 429 182 l 429 182 q 347 212 382 194 q 296 258 311 229 l 250 360 q 265 607 225 464 q 324 726 285 678 q 410 786 363 774 q 556 799 467 803 q 626 754 592 776 l 717 679 q 786 546 764 628 q 757 301 819 396 q 676 221 724 251 q 561 176 626 188 q 429 182 496 164 z "},"Ǿ":{"ha":1047,"x_min":0,"x_max":1007,"o":"m 79 -61 l 79 -61 q 135 -36 114 -61 l 208 44 l 558 440 l 989 894 q 1007 944 1007 914 q 984 999 1007 976 q 931 1022 961 1022 q 878 999 900 1022 l 447 536 l 104 150 l 19 61 q 0 15 0 40 q 24 -38 0 -15 q 79 -61 49 -61 m 376 7 l 376 7 q 558 -15 469 -21 q 726 26 647 -8 q 858 119 801 58 q 990 415 976 244 q 972 596 997 507 q 857 818 942 729 l 785 888 q 685 949 747 919 q 583 989 636 990 q 544 992 568 994 q 485 990 521 992 q 415 983 449 988 q 360 972 381 979 q 181 854 250 943 q 82 653 113 767 q 56 443 54 546 q 92 250 57 335 q 119 194 104 221 l 194 103 q 376 7 268 38 m 429 182 l 429 182 q 347 212 382 194 q 296 258 311 229 l 250 360 q 265 607 225 464 q 324 726 285 678 q 410 786 363 774 q 556 799 467 803 q 626 754 592 776 l 717 679 q 786 546 764 628 q 757 301 819 396 q 676 221 724 251 q 561 176 626 188 q 429 182 496 164 m 497 1056 l 497 1056 q 569 1075 538 1050 l 700 1169 q 739 1233 735 1194 q 721 1303 743 1271 q 657 1343 699 1336 q 585 1324 618 1349 l 454 1229 q 415 1166 419 1204 q 433 1095 411 1128 q 497 1056 456 1063 z "},"Õ":{"ha":1025,"x_min":43,"x_max":986,"o":"m 365 7 l 365 7 q 551 -14 463 -22 q 715 26 640 -6 q 847 119 790 58 q 938 252 904 179 q 979 415 972 325 q 961 596 986 504 q 915 715 946 657 q 851 808 885 774 q 774 878 810 851 q 690 936 739 906 l 628 975 q 572 989 601 990 q 533 992 553 994 q 481 990 515 992 q 408 983 446 988 q 349 972 371 979 q 169 854 239 943 q 71 653 101 767 q 44 443 43 551 q 81 250 47 333 q 365 7 156 67 m 418 193 l 418 193 q 261 322 300 226 q 239 447 240 372 q 257 601 238 522 q 315 726 278 678 q 399 786 353 774 q 465 794 424 793 q 544 799 507 794 q 653 726 608 758 q 726 653 697 694 q 775 546 756 613 q 784 413 790 475 q 746 301 778 350 q 665 221 713 251 q 553 181 618 189 q 418 193 488 174 m 285 1044 l 285 1044 q 323 1054 311 1044 q 351 1088 335 1064 q 380 1115 365 1104 q 421 1125 394 1125 q 462 1116 443 1125 q 517 1086 481 1107 q 580 1055 551 1065 q 644 1044 608 1044 q 743 1069 697 1044 q 816 1135 789 1094 q 843 1221 843 1175 q 824 1276 843 1256 q 769 1297 804 1297 q 724 1286 739 1297 q 694 1253 710 1275 q 669 1224 681 1233 q 635 1214 657 1214 q 590 1223 608 1214 q 539 1251 571 1232 q 480 1283 508 1271 q 408 1294 451 1294 q 319 1268 364 1294 q 243 1202 274 1242 q 213 1122 213 1163 q 231 1065 213 1086 q 285 1044 250 1044 z "},"Œ":{"ha":1501,"x_min":28,"x_max":1474,"o":"m 901 -14 l 901 -14 q 944 3 925 -11 q 1025 4 971 3 q 1145 6 1079 6 q 1272 8 1211 7 q 1374 8 1333 8 q 1435 28 1413 8 q 1466 76 1458 47 q 1466 135 1474 106 q 1435 183 1458 164 q 1374 203 1413 203 q 1151 200 1296 203 q 971 197 1006 197 q 950 451 957 321 q 1257 461 992 453 q 1318 483 1296 463 q 1347 532 1340 503 q 1346 590 1354 561 q 1314 638 1338 619 q 1251 656 1290 657 q 942 644 971 646 q 940 729 942 689 q 962 789 961 754 q 942 850 963 824 q 1310 864 1108 853 q 1379 897 1357 867 q 1399 966 1401 928 q 1372 1032 1397 1004 q 1299 1058 1346 1060 q 908 1043 1081 1046 q 838 1072 879 1072 q 753 1019 779 1071 l 747 1014 q 565 1057 657 1056 q 393 1026 472 1058 q 246 936 314 994 q 83 706 138 842 q 51 422 28 571 q 144 195 78 282 q 317 44 210 108 q 469 -13 386 3 q 635 -11 551 -29 q 782 65 717 6 q 807 29 790 44 q 847 -6 822 6 q 901 -14 872 -18 m 417 210 l 417 210 q 303 310 342 256 q 243 453 265 364 q 264 644 228 550 q 374 790 300 726 q 472 850 419 831 q 586 861 525 868 q 706 817 644 854 q 746 779 724 806 q 750 582 747 667 q 742 539 742 561 q 753 497 743 517 q 760 392 756 435 q 713 342 726 376 q 699 299 706 324 l 694 289 q 692 276 693 282 q 688 265 690 271 q 674 232 681 240 q 417 210 567 119 z "},"Ŕ":{"ha":951,"x_min":104,"x_max":908,"o":"m 710 74 l 710 74 q 744 19 719 36 q 798 1 768 1 q 854 15 828 0 q 894 56 881 29 q 899 121 908 83 q 858 292 878 224 q 813 409 838 361 q 756 496 789 457 q 894 707 886 574 q 786 924 901 843 q 578 997 710 978 q 208 999 407 1024 l 201 999 q 133 970 161 999 q 104 901 104 942 q 107 513 104 772 q 110 96 110 253 q 129 34 110 57 q 178 3 149 11 q 236 3 207 -4 q 285 34 265 11 q 304 96 304 57 q 303 415 304 226 l 344 415 q 428 418 374 417 q 456 419 429 418 q 497 421 482 419 q 597 381 563 413 q 654 289 629 351 q 710 74 678 217 m 300 610 q 299 813 299 728 q 547 806 442 822 q 676 764 635 793 q 700 718 703 746 q 653 660 699 686 q 521 618 603 632 q 501 615 513 617 q 304 610 419 624 l 300 610 l 300 610 m 465 1046 l 465 1046 q 532 1079 506 1049 l 640 1199 q 664 1270 668 1232 q 633 1335 660 1308 q 563 1360 606 1361 q 496 1326 522 1357 l 388 1207 q 364 1135 360 1174 q 395 1071 368 1097 q 465 1046 422 1044 z "},"Ř":{"ha":951,"x_min":104,"x_max":908,"o":"m 710 74 l 710 74 q 744 19 719 36 q 798 1 768 1 q 854 15 828 0 q 894 56 881 29 q 899 121 908 83 q 858 292 878 224 q 813 409 838 361 q 756 496 789 457 q 894 707 886 574 q 786 924 901 843 q 578 997 710 978 q 208 999 407 1024 l 201 999 q 133 970 161 999 q 104 901 104 942 q 107 513 104 772 q 110 96 110 253 q 129 34 110 57 q 178 3 149 11 q 236 3 207 -4 q 285 34 265 11 q 304 96 304 57 q 303 415 304 226 l 344 415 q 428 418 374 417 q 456 419 429 418 q 497 421 482 419 q 597 381 563 413 q 654 289 629 351 q 710 74 678 217 m 300 610 q 299 813 299 728 q 547 806 442 822 q 676 764 635 793 q 700 718 703 746 q 653 660 699 686 q 521 618 603 632 q 501 615 513 617 q 304 610 419 624 l 300 610 l 300 610 m 429 1046 l 429 1046 q 493 1058 464 1039 l 624 1156 q 660 1211 654 1175 q 646 1274 667 1247 q 591 1308 625 1300 q 526 1296 557 1317 l 439 1231 l 349 1294 q 283 1308 318 1315 q 228 1272 246 1301 q 216 1209 211 1243 q 253 1153 221 1175 l 386 1061 q 415 1049 400 1053 q 422 1047 418 1047 q 429 1046 426 1047 z "},"Ŗ":{"ha":951,"x_min":104,"x_max":908,"o":"m 710 74 l 710 74 q 744 19 719 36 q 798 1 768 1 q 854 15 828 0 q 894 56 881 29 q 899 121 908 83 q 858 292 878 224 q 813 409 838 361 q 756 496 789 457 q 894 707 886 574 q 786 924 901 843 q 578 997 710 978 q 208 999 407 1024 l 201 999 q 133 970 161 999 q 104 901 104 942 q 107 513 104 772 q 110 96 110 253 q 129 34 110 57 q 178 3 149 11 q 236 3 207 -4 q 285 34 265 11 q 304 96 304 57 q 303 415 304 226 l 344 415 q 428 418 374 417 q 456 419 429 418 q 497 421 482 419 q 597 381 563 413 q 654 289 629 351 q 710 74 678 217 m 300 610 q 299 813 299 728 q 547 806 442 822 q 676 764 635 793 q 700 718 703 746 q 653 660 699 686 q 521 618 603 632 q 501 615 513 617 q 304 610 419 624 l 300 610 l 300 610 m 542 -371 l 542 -371 q 603 -285 579 -336 q 633 -201 624 -246 q 613 -104 639 -140 q 550 -61 589 -69 q 528 -58 536 -58 q 499 -60 519 -57 l 475 -69 q 435 -112 444 -86 q 431 -165 425 -139 q 458 -208 438 -192 q 497 -225 474 -221 q 451 -293 469 -275 q 429 -344 426 -321 q 451 -382 432 -368 q 496 -394 471 -396 q 542 -371 521 -393 z "},"Ś":{"ha":843,"x_min":50,"x_max":797,"o":"m 429 -12 l 429 -12 q 606 26 521 -12 q 744 133 692 64 q 797 289 797 201 q 761 425 797 371 q 638 528 725 479 q 426 610 585 557 q 299 665 344 636 q 254 740 254 694 q 294 799 254 776 q 394 822 333 822 q 474 814 446 822 q 536 786 501 806 q 578 753 563 771 q 603 701 594 735 q 636 660 610 676 q 690 643 663 643 q 761 673 731 643 q 792 744 792 703 q 738 884 792 822 q 597 979 685 946 q 415 1010 510 1013 q 242 975 324 1010 q 111 875 161 940 q 61 722 61 810 q 138 542 61 608 q 365 426 214 476 q 544 357 504 379 q 603 288 603 324 q 553 204 603 233 q 432 175 503 175 q 269 214 301 175 q 249 256 253 233 q 244 314 244 279 q 219 377 244 349 q 154 406 194 406 q 82 374 114 406 q 50 288 50 343 q 100 126 50 196 q 236 21 150 57 q 429 -12 322 -15 m 393 1056 l 393 1056 q 465 1075 433 1050 l 596 1169 q 635 1233 631 1194 q 617 1303 639 1271 q 553 1343 594 1336 q 481 1324 514 1349 l 350 1229 q 311 1166 315 1204 q 329 1095 307 1128 q 393 1056 351 1063 z "},"Š":{"ha":843,"x_min":50,"x_max":797,"o":"m 429 -12 l 429 -12 q 606 26 521 -12 q 744 133 692 64 q 797 289 797 201 q 761 425 797 371 q 638 528 725 479 q 426 610 585 557 q 299 665 344 636 q 254 740 254 694 q 294 799 254 776 q 394 822 333 822 q 474 814 446 822 q 536 786 501 806 q 578 753 563 771 q 603 701 594 735 q 636 660 610 676 q 690 643 663 643 q 761 673 731 643 q 792 744 792 703 q 738 884 792 822 q 597 979 685 946 q 415 1010 510 1013 q 242 975 324 1010 q 111 875 161 940 q 61 722 61 810 q 138 542 61 608 q 365 426 214 476 q 544 357 504 379 q 603 288 603 324 q 553 204 603 233 q 432 175 503 175 q 269 214 301 175 q 249 256 253 233 q 244 314 244 279 q 219 377 244 349 q 154 406 194 406 q 82 374 114 406 q 50 288 50 343 q 100 126 50 196 q 236 21 150 57 q 429 -12 322 -15 m 421 1065 l 421 1065 q 488 1090 456 1065 l 606 1178 q 642 1250 642 1206 q 615 1309 642 1285 q 554 1333 589 1333 q 499 1311 526 1333 l 421 1253 l 331 1317 q 282 1333 311 1331 q 219 1306 243 1332 q 196 1247 196 1281 q 206 1207 196 1226 q 235 1175 215 1188 l 361 1089 q 421 1065 394 1065 z "},"Ş":{"ha":843,"x_min":50,"x_max":797,"o":"m 429 -12 l 429 -12 q 606 26 521 -12 q 744 133 692 64 q 797 289 797 201 q 761 425 797 371 q 638 528 725 479 q 426 610 585 557 q 299 665 344 636 q 254 740 254 694 q 294 799 254 776 q 394 822 333 822 q 474 814 446 822 q 536 786 501 806 q 578 753 563 771 q 603 701 594 735 q 636 660 610 676 q 690 643 663 643 q 761 673 731 643 q 792 744 792 703 q 738 884 792 822 q 597 979 685 946 q 415 1010 510 1013 q 242 975 324 1010 q 111 875 161 940 q 61 722 61 810 q 138 542 61 608 q 365 426 214 476 q 544 357 504 379 q 603 288 603 324 q 553 204 603 233 q 432 175 503 175 q 269 214 301 175 q 249 256 253 233 q 244 314 244 279 q 219 377 244 349 q 154 406 194 406 q 82 374 114 406 q 50 288 50 343 q 100 126 50 196 q 236 21 150 57 q 429 -12 322 -15 m 435 -342 l 435 -342 q 521 -322 481 -342 q 587 -266 561 -301 q 613 -183 613 -231 q 569 -95 613 -131 q 464 -60 525 -60 q 426 -65 439 -60 l 450 -87 q 465 -37 450 -62 q 510 24 481 -11 q 425 57 475 50 q 358 -22 388 21 q 329 -97 329 -64 q 389 -150 329 -144 q 426 -151 407 -151 q 457 -157 444 -153 q 485 -190 485 -162 q 473 -215 485 -204 q 443 -226 461 -226 q 412 -221 424 -226 q 389 -203 400 -215 q 364 -181 376 -189 q 335 -174 351 -174 q 296 -190 313 -174 q 279 -235 279 -207 q 324 -312 279 -282 q 435 -342 369 -342 z "},"Ŝ":{"ha":843,"x_min":33,"x_max":806,"o":"m 413 -12 l 413 -12 q 521 0 468 -12 q 624 38 574 13 q 717 100 672 61 q 783 199 761 139 q 794 326 806 257 q 638 528 774 453 q 426 610 585 557 q 274 678 311 649 q 250 705 256 692 q 247 739 244 718 q 371 817 258 817 q 487 791 433 815 q 563 735 540 767 q 568 717 564 731 q 583 661 582 664 q 622 610 596 625 q 677 596 647 594 q 731 614 707 597 q 767 658 756 631 q 767 722 779 686 q 761 747 764 732 q 756 765 757 763 q 724 840 744 811 q 633 932 689 894 q 508 990 576 969 q 372 1010 440 1010 q 230 985 297 1010 q 115 906 163 960 q 56 767 68 851 q 156 524 33 618 q 365 426 217 476 q 544 357 504 379 q 603 296 597 328 q 578 236 607 267 q 476 189 549 206 q 343 186 394 174 q 276 224 292 199 q 265 258 269 233 q 261 278 264 265 q 258 292 258 290 q 249 333 254 315 q 213 388 238 371 q 158 403 188 404 q 102 388 128 403 q 64 344 76 372 q 63 281 51 317 q 68 254 65 271 q 75 218 75 219 q 110 124 88 161 q 192 40 142 72 q 300 -3 243 8 q 413 -12 357 -14 m 533 1060 l 533 1060 q 595 1084 567 1060 q 624 1143 624 1108 q 586 1215 624 1192 l 456 1313 q 408 1326 433 1326 q 392 1325 397 1326 l 378 1322 q 349 1310 363 1318 l 215 1218 q 176 1147 176 1190 q 199 1088 176 1114 q 263 1061 222 1061 q 311 1076 290 1061 l 401 1140 l 489 1075 q 510 1063 499 1067 q 533 1060 522 1060 z "},"Ș":{"ha":843,"x_min":50,"x_max":797,"o":"m 429 -12 l 429 -12 q 606 26 521 -12 q 744 133 692 64 q 797 289 797 201 q 761 425 797 371 q 638 528 725 479 q 426 610 585 557 q 299 665 344 636 q 254 740 254 694 q 294 799 254 776 q 394 822 333 822 q 474 814 446 822 q 536 786 501 806 q 578 753 563 771 q 603 701 594 735 q 636 660 610 676 q 690 643 663 643 q 761 673 731 643 q 792 744 792 703 q 738 884 792 822 q 597 979 685 946 q 415 1010 510 1013 q 242 975 324 1010 q 111 875 161 940 q 61 722 61 810 q 138 542 61 608 q 365 426 214 476 q 544 357 504 379 q 603 288 603 324 q 553 204 603 233 q 432 175 503 175 q 269 214 301 175 q 249 256 253 233 q 244 314 244 279 q 219 377 244 349 q 154 406 194 406 q 82 374 114 406 q 50 288 50 343 q 100 126 50 196 q 236 21 150 57 q 429 -12 322 -15 m 457 -371 l 457 -371 q 518 -285 494 -336 q 549 -201 539 -246 q 528 -104 554 -140 q 465 -61 504 -69 q 443 -58 451 -58 q 414 -60 435 -57 l 390 -69 q 350 -112 360 -86 q 347 -165 340 -139 q 374 -208 353 -192 q 413 -225 389 -221 q 367 -293 385 -275 q 344 -344 342 -321 q 367 -382 347 -368 q 411 -394 386 -396 q 457 -371 436 -393 z "},"Ŧ":{"ha":790,"x_min":11,"x_max":782,"o":"m 208 414 l 208 414 l 583 414 q 642 437 618 414 q 665 497 665 460 q 642 558 665 536 q 583 581 619 581 l 208 581 q 149 557 174 581 q 124 497 124 533 q 149 438 124 463 q 208 414 174 414 m 486 96 l 486 96 q 485 493 488 139 q 490 806 483 685 q 686 807 599 807 q 746 826 724 807 q 775 875 768 846 q 774 933 782 904 q 742 982 765 963 q 681 1001 719 1001 q 588 1001 646 1001 q 462 1001 531 1001 q 324 1001 393 1001 q 198 999 256 1000 q 106 999 140 999 q 35 967 58 997 q 12 899 11 938 q 37 833 13 861 q 108 804 61 804 q 296 806 185 806 q 290 492 289 679 q 292 99 293 142 q 320 27 292 51 q 387 2 349 3 q 455 25 425 1 q 486 96 485 49 z "},"Ť":{"ha":899,"x_min":7,"x_max":892,"o":"m 358 88 l 358 88 q 378 26 358 49 q 426 -5 397 3 q 485 -5 456 -12 q 533 26 514 3 q 553 88 553 49 q 551 310 553 194 q 544 583 549 426 q 539 806 540 739 q 792 803 619 804 q 852 822 829 803 q 883 871 875 842 q 884 929 892 900 q 853 978 876 958 q 792 997 831 997 q 110 1008 342 1000 q 47 991 71 1010 q 15 943 24 972 q 14 885 7 914 q 43 835 21 856 q 104 814 65 815 q 344 808 218 811 q 348 664 346 749 q 352 487 350 579 q 357 313 354 394 q 358 88 358 196 m 425 1060 l 425 1060 q 489 1072 460 1053 l 619 1169 q 656 1225 650 1189 q 642 1288 663 1261 q 587 1322 621 1314 q 522 1310 553 1331 l 435 1244 l 344 1308 q 279 1322 314 1329 q 224 1286 242 1315 q 212 1223 207 1257 q 249 1167 217 1189 l 382 1075 q 411 1063 396 1067 q 418 1061 414 1061 q 425 1060 422 1061 z "},"Ţ":{"ha":790,"x_min":11,"x_max":782,"o":"m 486 96 l 486 96 q 485 493 488 139 q 490 806 483 685 q 686 807 599 807 q 746 826 724 807 q 775 875 768 846 q 774 933 782 904 q 742 982 765 963 q 681 1001 719 1001 q 588 1001 646 1001 q 462 1001 531 1001 q 324 1001 393 1001 q 198 999 256 1000 q 106 999 140 999 q 35 967 58 997 q 12 899 11 938 q 37 833 13 861 q 108 804 61 804 q 296 806 185 806 q 290 492 289 679 q 292 99 293 142 q 320 27 292 51 q 387 2 349 3 q 455 25 425 1 q 486 96 485 49 m 376 -342 l 376 -342 q 463 -322 422 -342 q 528 -266 503 -301 q 554 -183 554 -231 q 510 -95 554 -131 q 406 -60 467 -60 q 368 -65 381 -60 l 392 -87 q 407 -37 392 -62 q 451 24 422 -11 q 367 57 417 50 q 300 -22 329 21 q 271 -97 271 -64 q 331 -150 271 -144 q 368 -151 349 -151 q 399 -157 386 -153 q 426 -190 426 -162 q 415 -215 426 -204 q 385 -226 403 -226 q 353 -221 365 -226 q 331 -203 342 -215 q 306 -181 318 -189 q 276 -174 293 -174 q 238 -190 254 -174 q 221 -235 221 -207 q 266 -312 221 -282 q 376 -342 311 -342 z "},"Ț":{"ha":790,"x_min":11,"x_max":782,"o":"m 486 96 l 486 96 q 485 493 488 139 q 490 806 483 685 q 686 807 599 807 q 746 826 724 807 q 775 875 768 846 q 774 933 782 904 q 742 982 765 963 q 681 1001 719 1001 q 588 1001 646 1001 q 462 1001 531 1001 q 324 1001 393 1001 q 198 999 256 1000 q 106 999 140 999 q 35 967 58 997 q 12 899 11 938 q 37 833 13 861 q 108 804 61 804 q 296 806 185 806 q 290 492 289 679 q 292 99 293 142 q 320 27 292 51 q 387 2 349 3 q 455 25 425 1 q 486 96 485 49 m 399 -371 l 399 -371 q 460 -285 436 -336 q 490 -201 481 -246 q 469 -104 496 -140 q 407 -61 446 -69 q 385 -58 393 -58 q 356 -60 376 -57 l 332 -69 q 292 -112 301 -86 q 288 -165 282 -139 q 315 -208 294 -192 q 354 -225 331 -221 q 308 -293 326 -275 q 286 -344 283 -321 q 308 -382 289 -368 q 353 -394 328 -396 q 399 -371 378 -393 z "},"Þ":{"ha":899,"x_min":100,"x_max":890,"o":"m 111 90 l 111 90 q 142 19 113 42 q 210 -3 172 -4 q 277 24 249 -1 q 306 96 306 49 q 303 233 304 175 l 308 233 q 403 236 332 236 q 522 240 478 236 q 776 336 689 254 q 865 474 842 399 q 869 628 890 550 q 797 756 850 700 q 667 843 743 813 q 300 881 554 888 l 300 888 q 271 972 300 943 q 204 1000 242 1000 q 137 973 167 1000 q 106 890 107 946 q 111 90 100 569 m 299 428 l 299 428 q 297 686 297 564 q 403 689 347 689 q 510 683 460 689 q 594 663 561 676 q 682 578 667 633 q 643 475 696 526 q 507 433 607 442 q 401 429 469 431 q 299 428 328 429 z "},"Ú":{"ha":989,"x_min":74,"x_max":918,"o":"m 140 153 l 140 153 q 294 25 200 67 q 485 -11 389 -17 q 669 41 579 -6 q 814 167 760 88 q 915 543 910 307 q 911 728 918 615 q 903 906 903 878 q 872 977 901 954 q 803 999 842 1000 q 737 972 765 997 q 708 900 708 947 q 718 717 710 869 q 722 549 724 613 q 653 275 718 369 q 544 194 614 218 q 407 190 476 172 q 299 264 338 208 q 276 356 283 286 q 272 533 268 424 q 283 728 274 583 q 293 879 289 821 q 265 971 297 938 q 197 1000 238 999 q 128 972 157 1000 q 99 904 100 944 q 90 742 99 869 q 78 539 81 606 q 83 333 74 417 q 140 153 96 215 m 468 1017 l 468 1017 q 535 1050 508 1019 l 643 1169 q 667 1241 671 1203 q 635 1306 663 1279 q 565 1331 608 1332 q 499 1297 525 1328 l 390 1178 q 367 1106 363 1144 q 398 1042 371 1068 q 468 1017 425 1015 z "},"Ŭ":{"ha":1013,"x_min":75,"x_max":951,"o":"m 607 17 l 607 17 q 922 472 861 92 q 935 926 951 597 q 901 996 932 974 q 833 1016 871 1018 q 767 988 794 1014 q 740 915 739 963 q 731 503 757 610 q 551 203 689 243 q 447 207 492 185 q 365 292 403 229 q 274 544 293 411 q 272 592 272 563 q 272 653 271 622 q 274 704 272 683 l 278 756 q 283 817 279 774 q 289 874 288 858 q 276 936 293 911 q 230 972 258 961 q 172 978 201 982 q 122 953 143 974 q 97 893 100 932 q 92 858 94 885 q 86 797 89 832 q 81 731 83 763 q 78 682 79 699 q 76 598 75 635 q 82 525 78 561 q 200 192 106 349 q 365 31 267 78 q 607 17 464 -17 m 536 1026 l 536 1026 q 618 1044 586 1028 q 706 1111 664 1068 q 751 1208 754 1161 q 727 1273 749 1249 q 674 1297 706 1297 q 616 1276 632 1297 q 590 1229 600 1254 q 528 1193 554 1193 q 492 1201 514 1193 q 453 1226 469 1208 q 436 1256 443 1236 q 410 1297 426 1286 q 364 1307 393 1307 q 308 1285 336 1307 q 281 1226 281 1264 q 322 1125 281 1171 q 422 1053 363 1079 q 536 1026 481 1025 z "},"Û":{"ha":989,"x_min":74,"x_max":918,"o":"m 140 153 l 140 153 q 294 25 200 67 q 485 -11 389 -17 q 669 41 579 -6 q 814 167 760 88 q 915 543 910 307 q 911 728 918 615 q 903 906 903 878 q 872 977 901 954 q 803 999 842 1000 q 737 972 765 997 q 708 900 708 947 q 718 717 710 869 q 722 549 724 613 q 653 275 718 369 q 544 194 614 218 q 407 190 476 172 q 299 264 338 208 q 276 356 283 286 q 272 533 268 424 q 283 728 274 583 q 292 871 289 817 q 265 957 296 925 q 197 986 238 985 q 128 958 157 986 q 99 890 100 931 q 90 742 99 856 q 78 539 81 606 q 83 333 74 417 q 140 153 96 215 m 354 1051 l 354 1051 q 419 1065 389 1044 l 510 1129 l 597 1064 q 662 1051 628 1043 q 717 1086 696 1060 q 731 1149 738 1113 q 694 1204 725 1185 l 564 1301 q 500 1314 535 1321 q 493 1313 497 1313 q 486 1311 489 1313 q 457 1299 471 1307 l 324 1207 q 287 1151 292 1185 q 299 1088 282 1117 q 354 1051 317 1058 z "},"Ü":{"ha":989,"x_min":74,"x_max":918,"o":"m 140 139 l 140 139 q 294 11 200 53 q 485 -25 389 -31 q 669 27 579 -19 q 814 153 760 74 q 915 529 910 293 q 911 714 918 601 q 903 919 903 892 q 872 991 901 968 q 803 1013 842 1014 q 737 986 765 1011 q 708 914 708 961 q 718 703 710 882 q 722 535 724 599 q 653 261 718 356 q 544 181 614 204 q 407 176 476 158 q 299 250 338 194 q 276 342 283 272 q 272 519 268 410 q 283 714 274 569 q 292 882 290 810 q 265 985 294 954 q 197 1014 238 1013 q 128 986 157 1014 q 99 918 100 958 q 90 728 99 883 q 78 525 81 592 q 83 319 74 403 q 140 139 96 201 m 460 1217 l 460 1217 q 388 1246 425 1250 q 323 1215 350 1242 q 292 1151 296 1189 q 324 1081 289 1114 q 381 1050 350 1053 q 437 1063 411 1047 q 478 1104 463 1078 q 490 1160 493 1131 q 460 1217 488 1190 m 706 1210 l 706 1210 q 633 1239 671 1243 q 569 1208 596 1235 q 538 1144 542 1182 q 569 1074 535 1107 q 626 1043 596 1046 q 683 1056 657 1040 q 724 1097 708 1071 q 736 1153 739 1124 q 706 1210 733 1183 z "},"Ù":{"ha":989,"x_min":74,"x_max":918,"o":"m 140 153 l 140 153 q 294 25 200 67 q 485 -11 389 -17 q 669 41 579 -6 q 814 167 760 88 q 915 543 910 307 q 911 728 918 615 q 903 906 903 878 q 872 977 901 954 q 803 999 842 1000 q 737 972 765 997 q 708 900 708 947 q 718 717 710 869 q 722 549 724 613 q 653 275 718 369 q 544 194 614 218 q 407 190 476 172 q 299 264 338 208 q 276 356 283 286 q 272 533 268 424 q 283 728 274 583 q 293 879 289 821 q 265 971 297 938 q 197 1000 238 999 q 128 972 157 1000 q 99 904 100 944 q 90 742 99 869 q 78 539 81 606 q 83 333 74 417 q 140 153 96 215 m 533 1014 l 533 1014 q 603 1039 576 1013 q 635 1103 631 1065 q 611 1175 639 1142 l 503 1294 q 436 1328 476 1325 q 366 1303 393 1329 q 335 1238 339 1276 q 358 1167 331 1200 l 467 1047 q 533 1014 493 1017 z "},"Ű":{"ha":992,"x_min":74,"x_max":931,"o":"m 586 17 l 586 17 q 901 472 840 92 q 914 914 931 653 q 881 983 911 961 q 812 1003 850 1006 q 746 976 774 1001 q 719 903 718 950 q 710 503 736 665 q 531 203 668 243 q 426 207 471 185 q 344 292 382 229 q 299 412 315 339 q 276 565 283 485 q 267 715 268 644 q 267 834 265 786 q 268 888 268 882 q 255 950 272 925 q 209 985 238 975 q 151 992 181 996 q 101 967 122 988 q 76 907 79 946 q 75 867 76 906 q 74 766 74 829 q 80 626 75 703 q 96 469 85 549 q 127 317 107 389 q 179 192 147 244 q 344 31 246 78 q 586 17 443 -17 m 404 1085 l 404 1085 l 489 1218 q 500 1287 511 1254 q 459 1338 489 1319 q 396 1353 429 1357 q 340 1311 363 1349 l 256 1178 q 244 1109 233 1142 q 283 1057 254 1076 q 347 1042 313 1038 q 404 1085 381 1046 m 678 1074 l 678 1074 l 760 1181 q 781 1247 788 1214 q 746 1302 774 1281 q 683 1323 718 1324 q 622 1288 649 1322 l 539 1182 q 519 1115 513 1149 q 553 1061 526 1082 q 615 1040 581 1040 q 678 1074 650 1040 z "},"Ū":{"ha":992,"x_min":74,"x_max":931,"o":"m 586 17 l 586 17 q 901 403 840 92 q 914 913 931 583 q 882 979 911 956 q 815 1003 853 1003 q 749 980 778 1004 q 719 901 721 956 q 710 433 736 596 q 531 203 668 243 q 426 207 471 185 q 344 292 382 229 q 299 409 315 339 q 276 555 283 479 q 267 697 268 631 q 267 809 265 764 q 268 860 268 854 q 255 922 272 897 q 209 958 238 947 q 151 964 181 968 q 101 939 122 960 q 76 879 79 918 q 75 842 76 878 q 74 745 74 806 q 80 612 75 685 q 96 462 85 539 q 127 315 107 385 q 179 192 147 244 q 344 31 246 78 q 586 17 443 -17 m 331 1107 l 331 1107 q 650 1111 481 1110 q 711 1140 686 1111 q 733 1207 736 1168 q 708 1275 731 1246 q 650 1304 686 1304 q 328 1300 478 1303 q 266 1269 286 1299 q 247 1201 246 1239 q 268 1135 247 1164 q 331 1107 289 1107 z "},"Ų":{"ha":1013,"x_min":75,"x_max":951,"o":"m 681 -321 l 681 -321 q 740 -295 719 -317 q 765 -244 761 -274 q 759 -187 769 -215 q 724 -142 749 -160 q 661 -129 699 -125 q 522 -135 575 -137 q 540 -112 531 -124 q 671 13 582 -67 q 674 17 672 14 q 922 444 869 118 q 935 908 951 625 q 901 978 932 956 q 833 998 871 1000 q 767 970 794 996 q 740 897 739 944 q 731 475 757 638 q 551 175 689 215 q 447 179 492 157 q 365 264 403 201 q 274 572 293 383 q 272 620 272 590 q 272 681 271 650 q 274 732 272 711 l 278 783 q 283 835 279 801 q 289 883 288 868 q 276 946 293 921 q 230 981 258 971 q 172 988 201 992 q 122 963 143 983 q 97 903 100 942 q 90 855 93 892 q 83 776 86 818 q 78 710 79 735 q 76 626 75 663 q 82 553 78 589 q 200 164 106 321 q 379 -3 272 43 q 304 -136 317 -76 q 328 -251 292 -201 q 422 -314 360 -296 q 681 -321 507 -339 z "},"Ů":{"ha":1014,"x_min":75,"x_max":953,"o":"m 608 14 l 608 14 q 924 469 863 89 q 936 910 953 650 q 903 979 933 957 q 834 999 872 1001 q 768 972 796 997 q 742 899 740 946 q 732 500 758 663 q 553 200 690 240 q 449 204 493 182 q 367 289 404 226 q 275 597 294 408 q 272 723 271 660 q 268 839 274 786 q 242 926 263 892 q 176 964 222 960 q 93 922 111 969 q 76 765 75 874 q 83 578 79 614 q 201 189 107 346 q 367 28 268 75 q 608 14 465 -19 m 493 1028 l 493 1028 q 601 1063 561 1026 q 651 1154 642 1099 q 632 1267 660 1210 q 563 1337 608 1315 q 467 1367 518 1358 q 442 1363 450 1365 q 432 1364 438 1364 q 426 1364 429 1364 q 421 1364 424 1364 q 400 1357 410 1361 q 385 1351 393 1354 q 374 1347 375 1349 q 324 1291 342 1328 q 303 1210 306 1254 q 315 1128 301 1167 q 361 1069 329 1090 q 424 1038 394 1047 q 493 1028 453 1029 m 488 1147 l 488 1147 q 438 1165 456 1143 q 422 1212 419 1186 q 451 1249 424 1238 q 469 1247 460 1247 q 488 1242 479 1246 q 528 1212 515 1233 q 531 1170 540 1190 q 488 1147 522 1150 z "},"Ũ":{"ha":989,"x_min":74,"x_max":918,"o":"m 140 139 l 140 139 q 294 11 200 53 q 485 -25 389 -31 q 669 27 579 -19 q 814 153 760 74 q 915 529 910 293 q 911 714 918 601 q 903 919 903 892 q 872 991 901 968 q 803 1013 842 1014 q 737 986 765 1011 q 708 914 708 961 q 718 703 710 882 q 722 535 724 599 q 653 261 718 356 q 544 181 614 204 q 407 176 476 158 q 299 250 338 194 q 276 342 283 272 q 272 519 268 410 q 283 714 274 569 q 293 915 292 875 q 265 984 293 956 q 197 1014 238 1013 q 128 986 157 1014 q 99 918 100 958 q 90 728 99 883 q 78 525 81 592 q 83 319 74 403 q 140 139 96 201 m 268 1079 l 268 1079 q 306 1089 294 1079 q 335 1122 318 1099 q 361 1149 346 1139 q 403 1158 376 1158 q 443 1149 425 1158 q 496 1121 461 1140 q 558 1090 531 1100 q 622 1079 586 1079 q 719 1104 675 1079 q 789 1169 763 1129 q 815 1253 815 1208 q 797 1307 815 1286 q 744 1328 778 1328 q 699 1317 714 1328 q 671 1283 685 1306 q 646 1255 658 1264 q 611 1246 633 1246 q 567 1254 586 1246 q 518 1283 549 1263 q 460 1314 489 1303 q 390 1325 432 1325 q 301 1299 346 1325 q 228 1235 257 1274 q 199 1156 199 1196 q 217 1100 199 1121 q 268 1079 235 1079 z "},"Ŵ":{"ha":1367,"x_min":19,"x_max":1358,"o":"m 1046 0 l 1046 0 q 1132 71 1107 13 q 1151 129 1146 96 l 1161 167 q 1178 231 1171 196 q 1199 296 1193 275 l 1244 465 l 1299 672 q 1347 868 1322 758 q 1346 932 1358 904 q 1308 976 1333 960 q 1252 993 1282 992 q 1197 978 1222 994 q 1161 924 1172 961 l 1114 725 l 1057 517 l 1018 346 q 1010 260 1013 297 l 997 333 q 965 447 976 410 q 947 499 958 468 q 926 560 936 529 q 908 608 915 590 q 890 676 907 614 q 847 814 869 778 q 767 890 824 868 q 638 879 704 917 q 601 846 611 860 q 583 817 589 828 q 575 796 578 806 q 563 751 571 782 l 525 600 l 504 517 q 486 442 492 468 q 476 408 479 415 q 439 243 458 328 q 428 275 432 260 q 408 344 415 315 q 213 928 350 528 q 174 979 200 964 q 119 991 149 994 q 65 970 89 988 q 30 925 40 953 q 32 861 19 897 q 225 286 167 465 q 239 239 225 285 q 276 144 251 193 q 336 58 300 96 q 457 1 399 -3 q 550 36 514 0 q 586 104 569 60 q 619 210 600 151 q 663 353 640 282 q 713 581 663 354 l 718 600 q 725 575 722 589 q 758 469 733 547 q 793 354 782 390 q 801 324 796 346 q 808 289 806 303 q 840 181 824 226 q 906 53 867 108 q 1046 0 974 -19 m 565 1022 l 565 1022 q 631 1036 600 1015 l 721 1100 l 808 1035 q 873 1022 839 1014 q 928 1057 907 1031 q 942 1119 949 1083 q 906 1175 936 1156 l 775 1272 q 711 1285 746 1292 q 704 1283 708 1283 q 697 1282 700 1283 q 668 1269 682 1278 l 535 1178 q 498 1122 503 1156 q 510 1058 493 1088 q 565 1022 528 1029 z "},"Ý":{"ha":817,"x_min":8,"x_max":822,"o":"m 319 92 l 319 92 q 341 31 321 53 q 390 1 361 8 q 449 3 419 -6 q 497 35 478 11 q 514 97 515 58 q 513 256 513 147 q 511 396 513 364 q 640 603 558 479 q 801 847 793 833 q 818 910 822 881 q 793 962 814 940 q 744 992 772 983 q 686 991 715 1000 q 638 950 657 982 l 479 711 l 404 594 q 196 946 242 864 q 149 990 178 979 q 92 994 121 1001 q 41 967 63 988 q 14 917 19 946 q 26 854 8 888 q 179 592 76 760 l 318 361 l 318 282 q 319 188 318 247 q 319 92 319 126 m 382 1056 l 382 1056 q 454 1075 422 1050 l 585 1169 q 624 1233 619 1194 q 606 1303 628 1271 q 542 1343 583 1336 q 469 1324 503 1349 l 339 1229 q 300 1166 304 1204 q 318 1095 296 1128 q 382 1056 340 1063 z "},"Ŷ":{"ha":817,"x_min":8,"x_max":822,"o":"m 319 92 l 319 92 q 341 31 321 53 q 390 1 361 8 q 449 3 419 -6 q 497 35 478 11 q 514 97 515 58 q 513 256 513 147 q 511 396 513 364 q 640 603 558 479 q 801 847 793 833 q 818 910 822 881 q 793 962 814 940 q 744 992 772 983 q 686 991 715 1000 q 638 950 657 982 l 479 711 l 404 594 q 196 946 242 864 q 149 990 178 979 q 92 994 121 1001 q 41 967 63 988 q 14 917 19 946 q 26 854 8 888 q 179 592 76 760 l 318 361 l 318 282 q 319 188 318 247 q 319 92 319 126 m 254 1065 l 254 1065 q 319 1079 289 1058 l 410 1143 l 497 1078 q 562 1065 528 1057 q 617 1100 596 1074 q 631 1163 638 1126 q 594 1218 625 1199 l 464 1315 q 400 1328 435 1335 q 393 1326 397 1326 q 386 1325 389 1326 q 357 1313 371 1321 l 224 1221 q 187 1165 192 1199 q 199 1101 182 1131 q 254 1065 217 1072 z "},"Ÿ":{"ha":817,"x_min":8,"x_max":822,"o":"m 319 92 l 319 92 q 341 31 321 53 q 390 1 361 8 q 449 3 419 -6 q 497 35 478 11 q 514 97 515 58 q 513 256 513 147 q 511 396 513 364 q 640 603 558 479 q 801 847 793 833 q 818 910 822 881 q 793 962 814 940 q 744 992 772 983 q 686 991 715 1000 q 638 950 657 982 l 479 711 l 404 594 q 196 946 242 864 q 149 990 178 979 q 92 994 121 1001 q 41 967 63 988 q 14 917 19 946 q 26 854 8 888 q 179 592 76 760 l 318 361 l 318 282 q 319 188 318 247 q 319 92 319 126 m 376 1153 l 376 1153 q 374 1222 383 1188 q 329 1268 364 1256 q 296 1278 314 1276 q 270 1278 285 1279 q 239 1272 256 1278 q 185 1228 201 1258 q 172 1166 168 1199 q 199 1108 175 1133 q 265 1074 225 1076 q 336 1093 304 1072 q 376 1153 368 1114 m 642 1151 l 642 1151 q 639 1211 647 1188 q 614 1254 628 1242 q 583 1272 599 1267 q 542 1278 565 1278 q 483 1261 506 1279 q 442 1190 450 1235 q 465 1107 433 1144 q 530 1074 490 1076 q 603 1092 569 1072 q 642 1151 636 1113 z "},"Ź":{"ha":932,"x_min":26,"x_max":938,"o":"m 279 -18 l 279 -18 q 310 -11 293 -15 q 333 -7 326 -7 q 840 0 535 7 q 912 28 888 0 q 937 95 936 57 q 914 163 938 133 q 843 194 890 193 q 322 188 531 200 q 272 179 303 186 l 272 181 l 404 329 l 617 564 q 760 732 731 690 q 813 833 800 788 q 775 982 839 924 q 731 1006 756 1001 q 718 1008 725 1007 l 707 1008 q 685 1010 699 1010 q 619 1008 663 1010 q 514 1007 578 1008 l 367 1004 q 124 999 126 999 q 52 970 76 999 q 27 903 28 942 q 50 835 26 865 q 121 804 74 806 q 431 811 126 804 q 579 814 553 814 l 472 692 l 261 460 l 125 306 q 79 249 94 271 q 61 225 68 235 q 53 210 57 217 q 42 168 43 189 q 74 60 39 111 q 161 -11 108 10 q 279 -18 211 -31 m 401 1051 l 401 1051 q 468 1085 442 1054 l 576 1204 q 600 1276 604 1238 q 569 1340 596 1314 q 499 1365 542 1367 q 432 1332 458 1363 l 324 1213 q 300 1141 296 1179 q 331 1076 304 1103 q 401 1051 358 1050 z "},"Ž":{"ha":856,"x_min":24,"x_max":835,"o":"m 422 0 l 422 0 q 738 6 686 6 q 805 34 782 6 q 828 99 828 63 q 805 165 828 136 q 738 193 782 193 q 418 188 683 193 q 306 190 351 190 l 333 225 q 697 668 628 582 q 810 828 765 753 q 814 836 811 832 q 835 899 835 863 q 808 965 835 938 q 743 993 781 993 q 622 992 693 993 q 473 989 550 990 q 329 989 396 988 q 139 996 231 990 q 80 981 103 999 q 48 935 57 964 q 44 878 39 907 q 70 829 50 850 q 128 806 90 808 q 569 801 268 796 q 186 338 526 724 q 56 171 96 215 q 25 104 26 143 q 49 36 24 65 q 113 6 74 7 q 422 0 233 0 m 439 1065 l 439 1065 q 506 1090 474 1065 l 624 1178 q 660 1250 660 1206 q 633 1309 660 1285 q 572 1333 607 1333 q 517 1311 544 1333 l 439 1253 l 349 1317 q 300 1333 329 1331 q 238 1306 261 1332 q 214 1247 214 1281 q 224 1207 214 1226 q 253 1175 233 1188 l 379 1089 q 439 1065 413 1065 z "},"Ż":{"ha":996,"x_min":14,"x_max":1011,"o":"m 246 -33 l 246 -33 q 397 -29 308 -43 q 511 -12 504 -12 q 911 0 675 0 q 973 19 950 0 q 1003 68 996 39 q 1003 126 1011 97 q 973 175 996 156 q 911 194 950 194 q 497 182 668 194 q 367 163 481 181 q 276 158 307 153 q 269 160 274 158 q 310 201 296 185 l 428 344 l 576 514 l 672 625 q 717 674 676 631 q 782 744 757 715 q 849 826 825 793 q 874 871 865 850 q 881 958 894 917 q 811 1024 864 1007 q 804 1025 808 1025 l 796 1026 l 774 1026 l 739 1025 l 636 1022 q 565 1019 606 1021 q 538 1019 550 1019 q 515 1019 525 1019 l 358 1017 q 136 1018 249 1015 q 65 990 89 1018 q 40 923 40 961 q 63 855 39 885 q 133 824 86 825 q 488 824 314 821 q 596 826 489 824 l 567 797 q 542 769 551 779 l 525 753 l 401 613 l 275 465 l 157 321 q 132 296 150 311 q 93 263 113 281 q 26 101 14 188 q 156 -21 40 4 q 210 -29 175 -26 q 246 -33 240 -32 m 811 1024 l 811 1024 q 803 1026 819 1024 q 808 1025 806 1025 q 811 1024 810 1025 m 568 1176 l 568 1176 q 543 1274 579 1228 q 411 1306 499 1331 q 362 1273 381 1297 q 339 1217 343 1249 q 346 1157 335 1186 q 386 1111 357 1128 q 466 1089 426 1088 q 534 1113 506 1090 q 568 1176 563 1136 z "},"á":{"ha":797,"x_min":50,"x_max":722,"o":"m 346 -1 l 346 -1 q 454 24 400 1 q 532 81 500 42 q 569 17 543 35 q 626 1 594 0 q 690 31 665 3 q 719 100 714 60 q 722 142 722 119 q 718 232 721 163 l 715 307 q 708 515 711 454 l 699 611 q 667 672 694 647 q 606 697 640 697 l 592 696 l 585 696 q 522 725 554 717 q 432 736 474 736 q 226 665 317 736 q 86 479 136 594 q 50 304 50 397 q 58 221 50 264 q 117 100 69 156 q 238 18 165 46 q 346 -1 296 -1 m 347 194 l 347 194 q 308 201 329 194 q 242 300 242 225 q 264 397 242 343 q 338 506 292 467 q 435 544 385 544 q 469 539 447 544 l 482 531 l 501 515 l 515 506 q 522 308 522 425 q 503 294 511 304 l 479 261 l 458 242 q 433 221 444 228 q 347 194 389 194 m 413 792 l 413 792 q 479 825 453 794 l 588 944 q 611 1016 615 978 q 580 1081 607 1054 q 510 1106 553 1107 q 443 1072 469 1103 l 335 953 q 311 881 307 919 q 342 817 315 843 q 413 792 369 790 z "},"ă":{"ha":797,"x_min":50,"x_max":722,"o":"m 346 -1 l 346 -1 q 454 24 400 1 q 532 81 500 42 q 569 17 543 35 q 626 1 594 0 q 690 31 665 3 q 719 100 714 60 q 722 142 722 119 q 718 232 721 163 l 715 307 q 708 515 711 454 l 699 611 q 667 672 694 647 q 606 697 640 697 l 592 696 l 585 696 q 522 725 554 717 q 432 736 474 736 q 226 665 317 736 q 86 479 136 594 q 50 304 50 397 q 58 221 50 264 q 117 100 69 156 q 238 18 165 46 q 346 -1 296 -1 m 347 194 l 347 194 q 308 201 329 194 q 242 300 242 225 q 264 397 242 343 q 338 506 292 467 q 435 544 385 544 q 469 539 447 544 l 482 531 l 501 515 l 515 506 q 522 308 522 425 q 503 294 511 304 l 479 261 l 458 242 q 433 221 444 228 q 347 194 389 194 m 410 813 l 410 813 q 517 840 463 814 q 608 911 572 867 q 643 1004 643 954 q 622 1063 643 1040 q 565 1086 601 1086 q 516 1069 532 1086 q 483 1019 500 1053 q 456 989 474 1000 q 419 978 438 978 q 347 1013 375 978 q 335 1038 342 1019 q 322 1063 328 1054 q 260 1093 303 1093 q 203 1069 229 1093 q 176 1007 176 1046 q 213 912 176 957 q 304 839 249 867 q 410 813 358 811 z "},"â":{"ha":797,"x_min":50,"x_max":722,"o":"m 346 -1 l 346 -1 q 454 24 400 1 q 532 81 500 42 q 569 17 543 35 q 626 1 594 0 q 690 31 665 3 q 719 100 714 60 q 722 142 722 119 q 718 232 721 163 l 715 307 q 708 515 711 454 l 699 611 q 667 672 694 647 q 606 697 640 697 l 592 696 l 585 696 q 522 725 554 717 q 432 736 474 736 q 226 665 317 736 q 86 479 136 594 q 50 304 50 397 q 58 221 50 264 q 117 100 69 156 q 238 18 165 46 q 346 -1 296 -1 m 347 194 l 347 194 q 308 201 329 194 q 242 300 242 225 q 264 397 242 343 q 338 506 292 467 q 435 544 385 544 q 469 539 447 544 l 482 531 l 501 515 l 515 506 q 522 308 522 425 q 503 294 511 304 l 479 261 l 458 242 q 433 221 444 228 q 347 194 389 194 m 258 817 l 258 817 q 324 831 293 810 l 414 894 l 501 829 q 566 817 532 808 q 621 851 600 825 q 635 914 642 878 q 599 969 629 950 l 468 1067 q 404 1079 439 1086 q 397 1078 401 1078 q 390 1076 393 1078 q 361 1064 375 1072 l 228 972 q 191 916 196 950 q 203 853 186 882 q 258 817 221 824 z "},"ä":{"ha":797,"x_min":50,"x_max":722,"o":"m 346 -1 l 346 -1 q 454 24 400 1 q 532 81 500 42 q 569 17 543 35 q 626 1 594 0 q 690 31 665 3 q 719 100 714 60 q 722 142 722 119 q 718 232 721 163 l 715 307 q 708 515 711 454 l 699 611 q 667 672 694 647 q 606 697 640 697 l 592 696 l 585 696 q 522 725 554 717 q 432 736 474 736 q 226 665 317 736 q 86 479 136 594 q 50 304 50 397 q 58 221 50 264 q 117 100 69 156 q 238 18 165 46 q 346 -1 296 -1 m 347 194 l 347 194 q 308 201 329 194 q 242 300 242 225 q 264 397 242 343 q 338 506 292 467 q 435 544 385 544 q 469 539 447 544 l 482 531 l 501 515 l 515 506 q 522 308 522 425 q 503 294 511 304 l 479 261 l 458 242 q 433 221 444 228 q 347 194 389 194 m 381 900 l 381 900 q 378 969 388 935 q 333 1015 368 1003 q 300 1025 318 1024 q 274 1026 289 1026 q 243 1019 260 1025 q 189 976 206 1006 q 176 913 172 946 q 203 856 179 881 q 269 822 229 824 q 340 840 308 819 q 381 900 372 861 m 646 899 l 646 899 q 643 958 651 935 q 618 1001 632 989 q 588 1019 603 1014 q 546 1025 569 1025 q 488 1008 510 1026 q 446 937 454 982 q 469 854 438 892 q 534 822 494 824 q 607 840 574 819 q 646 899 640 860 z "},"à":{"ha":797,"x_min":50,"x_max":722,"o":"m 346 -1 l 346 -1 q 454 24 400 1 q 532 81 500 42 q 569 17 543 35 q 626 1 594 0 q 690 31 665 3 q 719 100 714 60 q 722 142 722 119 q 718 232 721 163 l 715 307 q 708 515 711 454 l 699 611 q 667 672 694 647 q 606 697 640 697 l 592 696 l 585 696 q 522 725 554 717 q 432 736 474 736 q 226 665 317 736 q 86 479 136 594 q 50 304 50 397 q 58 221 50 264 q 117 100 69 156 q 238 18 165 46 q 346 -1 296 -1 m 347 194 l 347 194 q 308 201 329 194 q 242 300 242 225 q 264 397 242 343 q 338 506 292 467 q 435 544 385 544 q 469 539 447 544 l 482 531 l 501 515 l 515 506 q 522 308 522 425 q 503 294 511 304 l 479 261 l 458 242 q 433 221 444 228 q 347 194 389 194 m 418 792 l 418 792 q 488 817 461 790 q 519 881 515 843 q 496 953 524 919 l 388 1072 q 321 1106 361 1103 q 251 1081 278 1107 q 219 1016 224 1054 q 243 944 215 978 l 351 825 q 418 792 378 794 z "},"ā":{"ha":797,"x_min":50,"x_max":722,"o":"m 346 -1 l 346 -1 q 454 24 400 1 q 532 81 500 42 q 569 17 543 35 q 626 1 594 0 q 690 31 665 3 q 719 100 714 60 q 722 142 722 119 q 718 232 721 163 l 715 307 q 708 515 711 454 l 699 611 q 667 672 694 647 q 606 697 640 697 l 592 696 l 585 696 q 522 725 554 717 q 432 736 474 736 q 226 665 317 736 q 86 479 136 594 q 50 304 50 397 q 58 221 50 264 q 117 100 69 156 q 238 18 165 46 q 346 -1 296 -1 m 347 194 l 347 194 q 308 201 329 194 q 242 300 242 225 q 264 397 242 343 q 338 506 292 467 q 435 544 385 544 q 469 539 447 544 l 482 531 l 501 515 l 515 506 q 522 308 522 425 q 503 294 511 304 l 479 261 l 458 242 q 433 221 444 228 q 347 194 389 194 m 297 842 l 297 842 l 421 842 q 594 847 507 840 q 665 876 642 849 q 687 940 688 904 q 663 1002 686 975 q 592 1029 639 1029 q 469 1025 535 1026 q 342 1024 404 1024 q 229 1028 279 1025 q 159 998 182 1026 q 138 933 136 969 q 163 871 139 897 q 235 846 188 844 q 297 842 271 842 z "},"ą":{"ha":801,"x_min":36,"x_max":733,"o":"m 574 -387 l 574 -387 q 634 -382 606 -394 q 682 -346 663 -369 q 706 -295 701 -322 q 694 -244 711 -268 q 635 -211 678 -221 q 578 -168 579 -197 q 599 -128 576 -143 q 628 -110 608 -121 q 667 -90 647 -100 q 696 -71 686 -79 q 730 -5 726 -44 q 731 83 733 35 l 731 94 q 726 190 729 117 l 722 299 q 718 393 721 333 q 711 501 715 453 q 701 597 707 550 q 666 663 697 638 q 594 682 635 688 l 588 682 q 525 711 557 703 q 338 708 422 736 q 190 616 253 681 q 89 465 126 551 q 61 213 36 347 q 119 92 72 147 q 247 10 168 38 q 543 56 399 -44 q 546 46 544 50 q 499 13 524 31 q 426 -54 450 -24 q 389 -261 346 -160 q 472 -351 417 -325 q 518 -372 501 -367 q 574 -387 535 -378 m 311 193 l 311 193 q 249 259 263 210 q 267 389 235 308 q 358 504 300 467 q 472 525 415 542 l 485 517 l 504 501 l 518 492 q 529 306 525 411 q 503 263 522 288 q 471 231 494 251 q 426 199 451 213 q 311 193 372 172 z "},"å":{"ha":797,"x_min":50,"x_max":722,"o":"m 346 -1 l 346 -1 q 454 24 400 1 q 532 81 500 42 q 569 17 543 35 q 626 1 594 0 q 690 31 665 3 q 719 100 714 60 q 722 142 722 119 q 718 232 721 163 l 715 307 q 708 515 711 454 l 699 611 q 667 672 694 647 q 606 697 640 697 l 592 696 l 585 696 q 522 725 554 717 q 432 736 474 736 q 226 665 317 736 q 86 479 136 594 q 50 304 50 397 q 58 221 50 264 q 117 100 69 156 q 238 18 165 46 q 346 -1 296 -1 m 347 194 l 347 194 q 308 201 329 194 q 242 300 242 225 q 264 397 242 343 q 338 506 292 467 q 435 544 385 544 q 469 539 447 544 l 482 531 l 501 515 l 515 506 q 522 308 522 425 q 503 294 511 304 l 479 261 l 458 242 q 433 221 444 228 q 347 194 389 194 m 424 792 l 424 792 q 538 835 496 792 q 581 946 581 879 q 554 1033 581 993 q 486 1099 528 1074 q 397 1124 444 1124 q 378 1122 386 1124 q 363 1121 369 1121 q 351 1119 356 1121 q 340 1117 346 1118 q 304 1106 318 1114 q 254 1044 271 1085 q 238 958 238 1004 q 288 835 238 878 q 424 792 339 792 m 419 903 l 419 903 q 370 920 390 903 q 350 960 350 938 q 361 997 350 983 q 386 1011 372 1011 q 442 994 421 1011 q 464 946 464 976 q 453 915 464 928 q 419 903 442 903 z "},"ǻ":{"ha":800,"x_min":36,"x_max":732,"o":"m 638 -7 l 638 -7 q 704 24 676 -6 q 731 94 732 54 q 726 190 729 117 l 722 299 q 718 393 721 333 q 711 501 715 453 q 701 597 707 550 q 666 663 697 638 q 594 682 635 688 l 588 682 q 525 711 557 703 q 338 708 422 736 q 190 616 253 681 q 89 465 126 551 q 61 213 36 347 q 119 92 72 147 q 247 10 168 38 q 543 56 399 -44 q 580 9 554 26 q 638 -7 606 -8 m 311 193 l 311 193 q 249 259 263 210 q 267 389 235 308 q 358 504 300 467 q 472 525 415 542 l 485 517 l 504 501 l 518 492 q 529 306 525 411 q 510 292 518 300 l 478 258 l 456 233 q 436 218 447 225 q 311 193 372 171 m 429 717 l 429 717 q 549 756 503 715 q 606 860 596 796 q 585 983 614 924 q 512 1060 560 1035 q 400 1094 464 1085 q 339 1068 358 1093 q 327 1013 319 1043 q 374 965 335 982 q 399 962 386 964 q 424 956 411 960 q 469 922 456 946 q 472 875 482 897 q 424 850 463 853 q 367 873 386 849 q 351 926 347 897 q 389 965 356 954 q 430 1017 425 986 q 413 1070 435 1047 q 350 1092 392 1093 q 296 1072 304 1078 q 230 983 250 1046 q 224 858 210 921 q 282 763 238 794 q 349 728 317 738 q 429 717 382 719 m 424 1026 l 424 1026 q 490 1060 464 1029 l 599 1179 q 622 1251 626 1213 q 591 1315 618 1289 q 521 1340 564 1342 q 454 1307 481 1338 l 346 1188 q 322 1116 318 1154 q 353 1051 326 1078 q 424 1026 381 1025 z "},"ã":{"ha":797,"x_min":50,"x_max":722,"o":"m 346 -1 l 346 -1 q 454 24 400 1 q 532 81 500 42 q 569 17 543 35 q 626 1 594 0 q 690 31 665 3 q 719 100 714 60 q 722 142 722 119 q 718 232 721 163 l 715 307 q 708 515 711 454 l 699 611 q 667 672 694 647 q 606 697 640 697 l 592 696 l 585 696 q 522 725 554 717 q 432 736 474 736 q 226 665 317 736 q 86 479 136 594 q 50 304 50 397 q 58 221 50 264 q 117 100 69 156 q 238 18 165 46 q 346 -1 296 -1 m 347 194 l 347 194 q 308 201 329 194 q 242 300 242 225 q 264 397 242 343 q 338 506 292 467 q 435 544 385 544 q 469 539 447 544 l 482 531 l 501 515 l 515 506 q 522 308 522 425 q 503 294 511 304 l 479 261 l 458 242 q 433 221 444 228 q 347 194 389 194 m 197 819 l 197 819 q 231 827 219 819 q 256 857 242 835 q 315 890 276 890 q 355 883 335 890 q 404 858 375 875 q 465 828 442 838 q 518 819 489 819 q 603 843 564 819 q 667 905 643 867 q 692 988 692 943 q 674 1039 692 1019 q 626 1058 657 1058 q 588 1049 600 1058 q 560 1017 575 1040 q 510 983 539 983 q 469 990 486 983 q 425 1015 453 997 q 369 1046 394 1036 q 308 1056 344 1056 q 228 1031 268 1056 q 160 969 188 1007 q 133 893 133 932 q 197 819 133 819 z "},"æ":{"ha":1243,"x_min":33,"x_max":1206,"o":"m 853 -15 l 853 -15 q 949 -8 907 -18 q 1031 18 992 1 q 1076 40 1056 28 q 1119 64 1097 51 q 1167 125 1160 92 q 1156 186 1174 158 q 1105 224 1139 214 q 1029 215 1071 235 l 989 190 q 929 161 960 172 q 864 153 899 150 q 726 203 768 161 q 688 299 692 238 q 907 292 776 292 q 1128 307 1036 292 q 1179 330 1157 310 q 1206 379 1201 350 q 1204 424 1204 401 l 1200 451 l 1190 485 q 1178 515 1186 497 q 1164 547 1171 532 q 1047 672 1132 610 q 986 704 1017 693 l 967 713 q 947 717 963 714 q 918 722 932 719 q 903 726 904 725 q 621 654 738 763 l 604 669 q 488 724 551 708 q 361 739 425 740 q 240 724 297 738 q 143 686 183 710 l 113 663 q 65 618 83 638 q 33 549 33 582 q 53 496 33 517 q 106 473 74 475 q 175 494 139 471 q 214 528 192 506 l 238 549 q 296 575 265 568 q 405 572 356 585 q 483 535 454 558 l 493 524 l 506 504 l 510 496 q 499 465 503 479 q 361 456 421 464 q 76 318 156 432 q 39 188 33 251 q 86 76 44 125 q 178 10 128 31 q 314 -12 229 -11 q 510 53 421 -4 q 597 104 546 71 q 853 -15 696 -4 m 311 156 l 311 156 q 240 178 261 151 q 243 239 219 204 q 364 285 269 271 q 492 299 433 296 q 501 254 496 281 q 417 185 475 215 q 311 156 353 156 m 1000 461 l 1000 461 q 847 458 918 457 q 696 464 776 460 q 761 549 719 524 q 860 568 803 574 q 939 542 908 563 q 981 499 967 524 q 1000 461 997 478 z "},"ǽ":{"ha":1243,"x_min":33,"x_max":1206,"o":"m 853 -15 l 853 -15 q 949 -8 907 -18 q 1031 18 992 1 q 1076 40 1056 28 q 1119 64 1097 51 q 1167 125 1160 92 q 1156 186 1174 158 q 1105 224 1139 214 q 1029 215 1071 235 l 989 190 q 929 161 960 172 q 864 153 899 150 q 726 203 768 161 q 688 299 692 238 q 907 292 776 292 q 1128 307 1036 292 q 1179 330 1157 310 q 1206 379 1201 350 q 1204 424 1204 401 l 1200 451 l 1190 485 q 1178 515 1186 497 q 1164 547 1171 532 q 1047 672 1132 610 q 986 704 1017 693 l 967 713 q 947 717 963 714 q 918 722 932 719 q 903 726 904 725 q 621 654 738 763 l 604 669 q 488 724 551 708 q 361 739 425 740 q 240 724 297 738 q 143 686 183 710 l 113 663 q 65 618 83 638 q 33 549 33 582 q 53 496 33 517 q 106 473 74 475 q 175 494 139 471 q 214 528 192 506 l 238 549 q 296 575 265 568 q 405 572 356 585 q 483 535 454 558 l 493 524 l 506 504 l 510 496 q 499 465 503 479 q 361 456 421 464 q 76 318 156 432 q 39 188 33 251 q 86 76 44 125 q 178 10 128 31 q 314 -12 229 -11 q 510 53 421 -4 q 597 104 546 71 q 853 -15 696 -4 m 311 156 l 311 156 q 240 178 261 151 q 243 239 219 204 q 364 285 269 271 q 492 299 433 296 q 501 254 496 281 q 417 185 475 215 q 311 156 353 156 m 1000 461 l 1000 461 q 847 458 918 457 q 696 464 776 460 q 761 549 719 524 q 860 568 803 574 q 939 542 908 563 q 981 499 967 524 q 1000 461 997 478 m 622 792 l 622 792 q 689 825 663 794 l 797 944 q 821 1016 825 978 q 790 1081 817 1054 q 719 1106 763 1107 q 653 1072 679 1103 l 544 953 q 521 881 517 919 q 552 817 525 843 q 622 792 579 790 z "},"ć":{"ha":778,"x_min":47,"x_max":742,"o":"m 303 7 l 303 7 q 549 8 440 -37 q 646 97 604 32 l 661 125 l 672 143 q 681 156 676 150 q 705 216 706 186 q 687 270 704 246 q 642 306 669 294 q 584 313 614 318 q 531 278 554 307 q 515 256 526 272 q 492 222 503 239 q 482 201 482 206 q 469 186 474 190 q 361 190 429 169 q 273 270 306 208 q 247 413 240 332 q 294 533 254 490 q 396 575 333 576 q 499 544 456 574 q 519 518 506 539 l 539 488 q 564 449 553 464 q 617 412 588 418 q 674 417 647 406 q 720 451 701 428 q 740 505 739 475 q 719 565 742 535 q 704 589 713 574 l 683 622 q 607 706 649 678 q 401 769 518 765 l 394 769 q 318 763 350 775 q 178 691 238 744 q 90 571 119 638 q 54 429 61 503 q 69 263 47 344 q 151 108 90 181 q 303 7 211 36 m 411 807 l 411 807 q 478 840 451 810 l 586 960 q 610 1031 614 993 q 578 1096 606 1069 q 508 1121 551 1122 q 442 1088 468 1118 l 333 968 q 310 897 306 935 q 341 832 314 858 q 411 807 368 806 z "},"č":{"ha":778,"x_min":47,"x_max":742,"o":"m 303 7 l 303 7 q 549 8 440 -37 q 646 97 604 32 l 661 125 l 672 143 q 681 156 676 150 q 705 216 706 186 q 687 270 704 246 q 642 306 669 294 q 584 313 614 318 q 531 278 554 307 q 515 256 526 272 q 492 222 503 239 q 482 201 482 206 q 469 186 474 190 q 361 190 429 169 q 273 270 306 208 q 247 413 240 332 q 294 533 254 490 q 396 575 333 576 q 499 544 456 574 q 519 518 506 539 l 539 488 q 564 449 553 464 q 617 412 588 418 q 674 417 647 406 q 720 451 701 428 q 740 505 739 475 q 719 565 742 535 q 704 589 713 574 l 683 622 q 607 706 649 678 q 401 769 518 765 q 222 724 297 771 q 105 599 147 676 q 54 429 63 521 q 69 263 47 344 q 151 108 90 181 q 303 7 211 36 m 378 818 l 378 818 q 442 831 413 811 l 572 928 q 608 983 603 947 q 594 1046 615 1019 q 540 1081 574 1072 q 475 1068 506 1089 l 388 1003 l 297 1067 q 232 1081 267 1088 q 177 1044 194 1074 q 165 981 160 1015 q 201 925 169 947 l 335 833 q 364 821 349 825 q 371 819 367 819 q 378 818 375 819 z "},"ç":{"ha":760,"x_min":49,"x_max":726,"o":"m 519 6 l 519 6 q 632 74 585 25 q 685 157 663 104 q 698 185 690 167 q 710 213 706 203 q 719 274 726 246 q 690 322 713 303 q 640 349 668 342 q 583 344 611 356 q 538 299 556 332 q 507 232 536 296 q 490 203 497 210 q 435 177 469 182 q 353 190 401 172 q 279 249 307 208 q 249 329 251 290 q 263 418 244 371 q 315 500 282 465 q 454 538 379 568 q 479 519 463 533 q 532 475 529 476 q 592 452 563 451 q 646 471 622 453 q 681 515 669 489 q 688 571 693 542 q 651 624 682 600 l 626 644 q 608 661 611 658 q 529 711 567 696 q 392 735 460 742 q 271 701 324 728 q 174 629 217 674 q 81 483 114 568 q 54 315 49 397 q 90 191 60 250 q 169 86 121 132 q 276 17 217 40 q 394 -11 333 -6 q 519 6 456 -17 m 406 -335 l 406 -335 q 490 -315 450 -335 q 557 -262 531 -296 q 583 -186 583 -229 q 538 -91 583 -129 q 426 -53 493 -53 q 389 -58 401 -53 l 422 -81 q 511 11 422 -37 q 428 54 479 51 q 340 -18 379 21 q 300 -90 300 -57 q 360 -143 300 -137 q 397 -144 378 -144 q 428 -150 415 -146 q 456 -183 456 -156 q 444 -208 456 -197 q 414 -219 432 -219 q 383 -214 394 -219 q 360 -196 371 -208 q 306 -169 336 -169 q 267 -186 283 -169 q 250 -231 250 -203 q 295 -306 250 -278 q 406 -335 340 -335 z "},"ĉ":{"ha":760,"x_min":49,"x_max":726,"o":"m 519 6 l 519 6 q 632 74 585 25 q 685 157 663 104 q 698 185 690 167 q 710 213 706 203 q 719 274 726 246 q 690 322 713 303 q 640 349 668 342 q 583 344 611 356 q 538 299 556 332 q 507 232 536 296 q 490 203 497 210 q 435 177 469 182 q 353 190 401 172 q 279 249 307 208 q 249 329 251 290 q 263 418 244 371 q 315 500 282 465 q 454 538 379 568 q 479 519 463 533 q 532 475 529 476 q 592 452 563 451 q 646 471 622 453 q 681 515 669 489 q 688 571 693 542 q 651 624 682 600 l 626 644 q 608 661 611 658 q 529 711 567 696 q 392 735 460 742 q 271 701 324 728 q 174 629 217 674 q 81 483 114 568 q 54 315 49 397 q 90 191 60 250 q 169 86 121 132 q 276 17 217 40 q 394 -11 333 -6 q 519 6 456 -17 m 253 817 l 253 817 q 318 831 288 810 l 408 894 l 496 829 q 560 817 526 808 q 615 851 594 825 q 629 914 636 878 q 593 969 624 950 l 463 1067 q 399 1079 433 1086 q 392 1078 396 1078 q 385 1076 388 1078 q 356 1064 369 1072 l 222 972 q 185 916 190 950 q 198 853 181 882 q 253 817 215 824 z "},"ċ":{"ha":760,"x_min":49,"x_max":726,"o":"m 519 6 l 519 6 q 632 74 585 25 q 685 157 663 104 q 698 185 690 167 q 710 213 706 203 q 719 274 726 246 q 690 322 713 303 q 640 349 668 342 q 583 344 611 356 q 538 299 556 332 q 507 232 536 296 q 490 203 497 210 q 435 177 469 182 q 353 190 401 172 q 279 249 307 208 q 249 329 251 290 q 263 418 244 371 q 315 500 282 465 q 454 538 379 568 q 479 519 463 533 q 532 475 529 476 q 592 452 563 451 q 646 471 622 453 q 681 515 669 489 q 688 571 693 542 q 651 624 682 600 l 626 644 q 608 661 611 658 q 529 711 567 696 q 392 735 460 742 q 271 701 324 728 q 174 629 217 674 q 81 483 114 568 q 54 315 49 397 q 90 191 60 250 q 169 86 121 132 q 276 17 217 40 q 394 -11 333 -6 q 519 6 456 -17 m 526 901 l 526 901 q 500 1003 538 956 q 361 1036 454 1063 q 310 1002 329 1028 q 287 944 292 976 q 294 882 282 913 q 336 833 306 851 q 419 810 378 808 q 491 835 461 811 q 526 901 521 858 z "},"ď":{"ha":978,"x_min":53,"x_max":1007,"o":"m 372 -14 l 372 -14 q 483 13 439 -14 q 557 83 526 39 q 585 13 561 36 q 647 -10 610 -10 q 712 17 689 -10 q 735 94 735 44 q 728 901 735 219 q 697 971 726 946 q 631 996 668 996 q 563 970 592 996 q 533 899 533 944 q 536 715 535 878 q 400 740 471 740 q 222 685 301 740 q 97 538 142 631 q 53 335 53 444 q 99 149 53 228 q 219 28 146 69 q 372 -14 293 -14 m 407 171 l 407 171 q 290 222 335 171 q 246 350 246 272 q 265 451 246 406 q 317 525 283 497 q 399 553 351 553 q 489 529 453 553 q 524 503 510 514 q 539 488 536 490 q 542 313 539 432 q 525 281 535 306 q 481 200 506 225 q 407 171 451 171 m 976 710 l 976 710 q 1001 808 996 772 q 1006 888 1007 843 q 982 986 1003 931 q 934 1033 965 1024 q 872 1031 903 1042 q 824 993 840 1019 q 824 932 808 967 q 835 844 838 881 q 818 761 833 810 q 824 701 806 728 q 873 663 842 675 q 934 661 904 651 q 976 710 964 671 z "},"đ":{"ha":843,"x_min":53,"x_max":868,"o":"m 367 -14 l 367 -14 q 481 13 433 -14 q 557 83 528 40 q 586 15 561 39 q 647 -10 611 -10 q 712 17 689 -10 q 735 94 735 44 l 735 140 q 728 954 735 626 q 698 1024 726 999 q 631 1049 669 1049 q 563 1023 592 1049 q 533 951 533 997 l 536 700 q 472 728 504 718 q 400 739 440 739 q 222 684 301 739 q 97 538 142 629 q 53 335 53 444 q 99 149 53 228 q 218 28 144 69 q 367 -14 290 -14 m 401 171 l 401 171 q 288 217 331 171 q 246 350 246 263 q 265 451 246 406 q 317 525 283 497 q 399 553 351 553 q 489 529 453 553 q 522 503 510 514 q 539 488 535 490 q 542 313 539 432 l 538 306 q 518 263 536 303 q 500 223 507 236 q 481 200 493 210 q 446 178 463 185 q 401 171 429 171 m 451 783 l 451 783 l 788 793 q 846 817 824 794 q 868 869 868 839 q 847 928 868 904 q 788 950 825 951 l 442 940 q 385 916 407 939 q 365 861 364 893 q 390 806 367 829 q 451 783 414 782 z "},"é":{"ha":824,"x_min":56,"x_max":796,"o":"m 567 -15 l 567 -15 q 659 18 629 -1 q 717 65 689 38 q 750 121 744 99 q 747 176 760 149 q 706 217 735 203 q 641 222 678 231 q 564 169 604 213 q 443 142 529 136 q 278 296 292 163 q 554 285 482 282 q 663 290 625 286 q 771 346 739 296 q 781 449 796 386 q 446 750 713 749 q 90 436 153 744 q 56 368 60 429 q 88 308 57 322 q 159 129 115 192 q 261 31 203 67 q 393 -17 318 -7 q 567 -15 468 -28 m 276 436 l 276 436 q 363 563 285 524 q 514 568 446 601 q 591 501 574 536 q 610 443 608 465 q 555 434 596 436 q 465 432 514 432 q 381 433 417 432 q 276 436 326 435 m 397 792 l 397 792 q 464 825 436 794 l 572 944 q 597 1015 601 976 q 565 1080 593 1053 q 494 1106 538 1107 q 428 1072 456 1103 l 319 953 q 294 882 290 921 q 327 816 299 843 q 397 792 356 789 z "},"ĕ":{"ha":799,"x_min":56,"x_max":757,"o":"m 421 -12 l 421 -12 q 563 11 493 -12 q 678 75 633 35 q 722 160 722 115 q 698 216 722 192 q 638 240 674 240 q 588 226 606 240 q 549 190 569 211 q 504 163 529 172 q 438 153 479 154 q 301 188 346 150 q 247 294 256 226 l 296 293 q 460 289 383 289 q 644 299 540 289 q 726 329 696 303 q 757 403 757 356 q 718 572 757 496 q 603 692 679 647 q 417 736 525 736 q 228 685 311 736 q 100 546 144 633 q 56 336 56 457 q 99 161 56 240 q 226 35 143 82 q 421 -12 310 -12 m 250 436 l 250 436 q 304 539 260 508 q 419 571 349 569 q 537 536 504 572 q 572 440 569 500 q 432 428 528 429 q 250 436 332 425 m 415 813 l 415 813 q 523 840 468 814 q 614 911 578 867 q 649 1004 649 954 q 628 1063 649 1040 q 571 1086 607 1086 q 522 1069 538 1086 q 489 1019 506 1053 q 461 989 479 1000 q 425 978 443 978 q 353 1013 381 978 q 340 1038 347 1019 q 328 1063 333 1054 q 265 1093 308 1093 q 208 1069 235 1093 q 182 1007 182 1046 q 218 912 182 957 q 310 839 254 867 q 415 813 364 811 z "},"ě":{"ha":817,"x_min":49,"x_max":789,"o":"m 560 -15 l 560 -15 q 652 18 622 -1 q 710 65 682 38 q 743 121 738 99 q 740 176 753 149 q 699 217 728 203 q 634 222 671 231 q 557 169 597 213 q 436 142 522 136 q 271 296 285 163 q 547 285 475 282 q 656 290 618 286 q 764 346 732 296 q 774 449 789 386 q 439 750 706 749 q 83 436 146 744 q 49 368 53 429 q 81 308 50 322 q 152 129 108 192 q 254 31 196 67 q 386 -17 311 -7 q 560 -15 461 -28 m 269 436 l 269 436 q 356 563 278 524 q 507 568 439 601 q 584 501 567 536 q 603 443 601 465 q 548 434 589 436 q 458 432 507 432 q 374 433 410 432 q 269 436 319 435 m 417 806 l 417 806 q 481 818 453 797 l 611 915 q 647 971 642 935 q 631 1034 653 1007 q 576 1069 610 1061 q 514 1056 543 1078 l 426 990 l 336 1054 q 271 1068 306 1075 q 216 1032 233 1061 q 203 969 199 1003 q 240 913 208 935 l 374 821 q 403 808 388 811 q 410 807 406 807 q 417 806 414 807 z "},"ê":{"ha":817,"x_min":49,"x_max":789,"o":"m 560 -15 l 560 -15 q 652 18 622 -1 q 710 65 682 38 q 743 121 738 99 q 740 176 753 149 q 699 217 728 203 q 634 222 671 231 q 557 169 597 213 q 436 142 522 136 q 271 296 285 163 q 547 285 475 282 q 656 290 618 286 q 764 346 732 296 q 774 449 789 386 q 439 750 706 749 q 83 436 146 744 q 49 368 53 429 q 81 308 50 322 q 152 129 108 192 q 254 31 196 67 q 386 -17 311 -7 q 560 -15 461 -28 m 269 436 l 269 436 q 356 563 278 524 q 507 568 439 601 q 584 501 567 536 q 603 443 601 465 q 548 434 589 436 q 458 432 507 432 q 374 433 410 432 q 269 436 319 435 m 278 804 l 278 804 q 343 818 313 797 l 433 882 l 521 817 q 585 804 551 796 q 640 839 619 813 q 654 901 661 865 q 618 957 649 938 l 488 1054 q 424 1067 458 1074 q 417 1065 421 1065 q 410 1064 413 1065 q 381 1051 394 1060 l 247 960 q 210 903 215 938 q 223 840 206 869 q 278 804 240 811 z "},"ë":{"ha":799,"x_min":56,"x_max":757,"o":"m 421 -12 l 421 -12 q 563 11 493 -12 q 678 75 633 35 q 722 160 722 115 q 698 216 722 192 q 638 240 674 240 q 588 226 606 240 q 549 190 569 211 q 504 163 529 172 q 438 153 479 154 q 301 188 346 150 q 247 294 256 226 l 296 293 q 460 289 383 289 q 644 299 540 289 q 726 329 696 303 q 757 403 757 356 q 718 572 757 496 q 603 692 679 647 q 417 736 525 736 q 228 685 311 736 q 100 546 144 633 q 56 336 56 457 q 99 161 56 240 q 226 35 143 82 q 421 -12 310 -12 m 250 436 l 250 436 q 304 539 260 508 q 419 571 349 569 q 537 536 504 572 q 572 440 569 500 q 432 428 528 429 q 250 436 332 425 m 386 900 l 386 900 q 383 969 393 935 q 339 1015 374 1003 q 306 1025 324 1024 q 280 1026 294 1026 q 249 1019 265 1025 q 194 976 211 1006 q 181 913 178 946 q 208 856 185 881 q 274 822 235 824 q 346 840 314 819 q 386 900 378 861 m 651 899 l 651 899 q 649 958 657 935 q 624 1001 638 989 q 593 1019 608 1014 q 551 1025 575 1025 q 493 1008 515 1026 q 451 937 460 982 q 475 854 443 892 q 540 822 500 824 q 613 840 579 819 q 651 899 646 860 z "},"ė":{"ha":818,"x_min":50,"x_max":790,"o":"m 561 -15 l 561 -15 q 653 18 624 -1 q 711 65 683 38 q 744 121 739 99 q 742 176 754 149 q 701 217 729 203 q 635 222 672 231 q 558 169 599 213 q 438 142 524 136 q 272 296 286 163 q 549 285 476 282 q 657 290 619 286 q 765 346 733 296 q 775 449 790 386 q 440 750 707 749 q 85 436 147 744 q 50 368 54 429 q 82 308 51 322 q 153 129 110 192 q 256 31 197 67 q 388 -17 313 -7 q 561 -15 463 -28 m 271 436 l 271 436 q 357 563 279 524 q 508 568 440 601 q 585 501 568 536 q 604 443 603 465 q 549 434 590 436 q 460 432 508 432 q 375 433 411 432 q 271 436 321 435 m 526 901 l 526 901 q 500 1003 538 956 q 361 1036 454 1063 q 310 1002 329 1028 q 287 944 292 976 q 294 882 282 913 q 336 833 306 851 q 419 810 378 808 q 491 835 461 811 q 526 901 521 858 z "},"è":{"ha":817,"x_min":49,"x_max":789,"o":"m 560 -15 l 560 -15 q 652 18 622 -1 q 710 65 682 38 q 743 121 738 99 q 740 176 753 149 q 699 217 728 203 q 634 222 671 231 q 557 169 597 213 q 436 142 522 136 q 271 296 285 163 q 547 285 475 282 q 656 290 618 286 q 764 346 732 296 q 774 449 789 386 q 439 750 706 749 q 83 436 146 744 q 49 368 53 429 q 81 308 50 322 q 152 129 108 192 q 254 31 196 67 q 386 -17 311 -7 q 560 -15 461 -28 m 269 436 l 269 436 q 356 563 278 524 q 507 568 439 601 q 584 501 567 536 q 603 443 601 465 q 548 434 589 436 q 458 432 507 432 q 374 433 410 432 q 269 436 319 435 m 460 789 l 460 789 q 530 814 503 788 q 561 878 557 840 q 538 950 565 917 l 429 1069 q 363 1103 403 1100 q 292 1078 319 1104 q 261 1013 265 1051 q 285 942 257 975 l 393 822 q 460 789 419 792 z "},"ē":{"ha":817,"x_min":49,"x_max":789,"o":"m 560 -15 l 560 -15 q 652 18 622 -1 q 710 65 682 38 q 743 121 738 99 q 740 176 753 149 q 699 217 728 203 q 634 222 671 231 q 557 169 597 213 q 436 142 522 136 q 271 296 285 163 q 547 285 475 282 q 656 290 618 286 q 764 346 732 296 q 774 449 789 386 q 439 750 706 749 q 83 436 146 744 q 49 368 53 429 q 81 308 50 322 q 152 129 108 192 q 254 31 196 67 q 386 -17 311 -7 q 560 -15 461 -28 m 269 436 l 269 436 q 356 563 278 524 q 507 568 439 601 q 584 501 567 536 q 603 443 601 465 q 548 434 589 436 q 458 432 507 432 q 374 433 410 432 q 269 436 319 435 m 321 842 l 321 842 l 444 842 q 618 847 531 840 q 688 876 665 849 q 710 940 711 904 q 686 1002 710 975 q 615 1029 663 1029 q 493 1025 558 1026 q 365 1024 428 1024 q 253 1028 303 1025 q 183 998 206 1026 q 161 933 160 969 q 187 871 163 897 q 258 846 211 844 q 321 842 294 842 z "},"ę":{"ha":799,"x_min":56,"x_max":757,"o":"m 421 -12 l 421 -12 q 563 11 493 -12 q 678 75 633 35 q 722 160 722 115 q 698 216 722 192 q 638 240 674 240 q 588 226 606 240 q 549 190 569 211 q 504 163 529 172 q 438 153 479 154 q 301 188 346 150 q 247 294 256 226 l 296 293 q 460 289 383 289 q 644 299 540 289 q 726 329 696 303 q 757 403 757 356 q 718 572 757 496 q 603 692 679 647 q 417 736 525 736 q 228 685 311 736 q 100 546 144 633 q 56 336 56 457 q 99 161 56 240 q 226 35 143 82 q 421 -12 310 -12 m 250 436 l 250 436 q 304 539 260 508 q 419 571 349 569 q 537 536 504 572 q 572 440 569 500 q 432 428 528 429 q 250 436 332 425 m 474 -265 l 474 -265 q 541 -256 513 -265 q 599 -233 569 -247 q 647 -161 647 -203 q 632 -117 647 -137 q 589 -97 617 -97 q 538 -118 563 -97 q 510 -135 522 -129 q 482 -140 499 -140 q 442 -128 458 -140 q 425 -96 426 -115 q 463 -29 421 -54 q 522 -7 486 -15 q 542 -3 532 -4 q 561 4 551 0 q 597 40 586 15 q 592 89 607 64 q 494 118 568 128 q 412 91 454 114 q 340 35 369 68 q 292 -97 289 -25 q 333 -206 292 -158 q 395 -249 357 -233 q 474 -265 433 -265 z "},"ð":{"ha":868,"x_min":71,"x_max":799,"o":"m 428 -14 l 428 -14 q 617 42 532 -14 q 750 197 701 97 q 799 424 799 297 q 760 628 799 524 q 636 835 721 732 q 551 945 589 899 q 474 1031 513 992 q 389 1113 436 1071 q 340 1147 358 1139 q 301 1156 322 1156 q 231 1128 260 1156 q 203 1057 203 1100 q 228 1000 203 1029 q 306 921 251 971 q 408 817 368 861 q 485 717 449 774 q 441 726 471 722 q 388 729 411 729 q 179 636 269 729 q 71 346 71 528 q 115 164 71 246 q 240 35 158 82 q 428 -14 321 -14 m 440 169 l 440 169 q 314 218 363 169 q 265 351 265 267 q 339 532 265 481 q 407 556 371 556 q 451 553 432 556 q 494 539 469 550 l 549 514 q 567 510 558 510 q 576 511 571 510 q 588 511 581 511 q 604 390 604 463 q 585 281 604 331 q 528 200 565 231 q 440 169 492 169 m 233 764 l 233 764 q 290 785 260 764 l 454 889 l 593 974 q 646 1057 646 1008 q 623 1116 644 1093 q 563 1139 601 1139 q 517 1129 540 1139 q 426 1082 469 1107 q 328 1019 383 1057 q 192 922 274 982 q 149 843 149 892 q 173 786 150 808 q 233 764 196 764 z "},"ğ":{"ha":788,"x_min":50,"x_max":715,"o":"m 374 -286 l 374 -286 q 489 -265 439 -286 q 581 -203 539 -244 q 674 -65 640 -140 q 711 94 708 11 q 711 638 715 376 q 687 709 710 683 q 626 735 664 735 q 539 692 557 735 q 385 736 457 736 q 210 687 286 736 q 92 550 133 638 q 50 347 50 461 q 91 165 50 244 q 200 42 132 85 q 349 -3 268 -3 q 460 18 408 -3 q 540 83 513 39 q 489 -57 528 -1 q 383 -112 450 -112 q 318 -95 349 -112 q 257 -37 288 -78 q 185 -1 231 -1 q 119 -28 146 -1 q 93 -94 93 -54 q 106 -143 93 -119 q 150 -193 119 -167 q 255 -263 203 -240 q 374 -286 307 -286 m 371 178 l 371 178 q 271 224 308 178 q 233 347 233 271 q 270 500 233 444 q 385 556 307 556 q 461 545 431 556 q 524 510 492 535 q 525 303 525 478 q 506 265 518 286 q 479 229 494 244 q 371 178 428 178 m 392 813 l 392 813 q 499 840 444 814 q 590 911 554 867 q 625 1004 625 954 q 604 1063 625 1040 q 547 1086 583 1086 q 498 1069 514 1086 q 465 1019 482 1053 q 438 989 456 1000 q 401 978 419 978 q 329 1013 357 978 q 317 1038 324 1019 q 304 1063 310 1054 q 242 1093 285 1093 q 185 1069 211 1093 q 158 1007 158 1046 q 194 912 158 957 q 286 839 231 867 q 392 813 340 811 z "},"ǧ":{"ha":788,"x_min":50,"x_max":715,"o":"m 374 -286 l 374 -286 q 590 -194 501 -286 q 677 -64 644 -137 q 711 94 710 10 q 711 638 715 388 q 687 709 710 683 q 626 735 664 735 q 539 692 557 735 q 385 736 457 736 q 210 687 286 736 q 92 550 133 638 q 50 347 50 461 q 92 172 50 251 q 203 46 133 92 q 349 0 271 0 q 460 20 408 0 q 540 83 513 40 q 489 -57 528 -1 q 383 -112 450 -112 q 306 -97 347 -112 q 226 -50 265 -82 q 147 -33 192 -21 q 90 -75 110 -43 q 81 -144 71 -107 q 160 -233 93 -196 q 265 -272 217 -258 q 374 -286 313 -286 m 371 178 l 371 178 q 271 224 308 178 q 233 347 233 271 q 242 438 233 401 q 271 500 251 474 q 385 556 310 556 q 422 550 407 556 q 471 526 433 547 q 500 515 486 518 q 524 510 513 513 q 525 303 525 478 q 507 263 517 286 q 483 225 496 238 q 371 178 436 178 m 396 810 l 396 810 q 463 835 431 810 l 581 922 q 617 994 617 950 q 590 1053 617 1029 q 529 1078 564 1078 q 474 1056 501 1078 l 396 997 l 306 1061 q 257 1078 286 1075 q 194 1051 218 1076 q 171 992 171 1025 q 181 951 171 971 q 210 919 190 932 l 336 833 q 396 810 369 810 z "},"ĝ":{"ha":788,"x_min":50,"x_max":715,"o":"m 374 -286 l 374 -286 q 489 -265 439 -286 q 581 -203 539 -244 q 674 -65 640 -140 q 711 94 708 11 q 711 638 715 376 q 687 709 710 683 q 626 735 664 735 q 539 692 557 735 q 385 736 457 736 q 210 687 286 736 q 92 550 133 638 q 50 347 50 461 q 91 165 50 244 q 200 42 132 85 q 349 -3 268 -3 q 460 18 408 -3 q 540 83 513 39 q 489 -57 528 -1 q 383 -112 450 -112 q 318 -95 349 -112 q 257 -37 288 -78 q 185 -1 231 -1 q 119 -28 146 -1 q 93 -94 93 -54 q 106 -143 93 -119 q 150 -193 119 -167 q 255 -263 203 -240 q 374 -286 307 -286 m 371 178 l 371 178 q 271 224 308 178 q 233 347 233 271 q 270 500 233 444 q 385 556 307 556 q 461 545 431 556 q 524 510 492 535 q 525 303 525 478 q 506 265 518 286 q 479 229 494 244 q 371 178 428 178 m 240 817 l 240 817 q 306 831 275 810 l 396 894 l 483 829 q 548 817 514 808 q 603 851 582 825 q 617 914 624 878 q 581 969 611 950 l 450 1067 q 386 1079 421 1086 q 379 1078 383 1078 q 372 1076 375 1078 q 343 1064 357 1072 l 210 972 q 173 916 178 950 q 185 853 168 882 q 240 817 203 824 z "},"ģ":{"ha":788,"x_min":50,"x_max":715,"o":"m 374 -286 l 374 -286 q 489 -265 439 -286 q 581 -203 539 -244 q 675 -65 640 -140 q 711 94 710 11 q 711 638 715 388 q 687 709 710 683 q 626 735 664 735 q 539 692 557 735 q 385 736 457 736 q 210 687 286 736 q 92 550 133 638 q 50 347 50 461 q 92 167 50 246 q 203 44 133 88 q 349 0 271 0 q 460 20 408 0 q 540 83 513 40 q 489 -57 528 -1 q 383 -112 450 -112 q 306 -97 347 -112 q 226 -50 265 -82 q 147 -33 192 -21 q 90 -75 110 -43 q 81 -144 71 -107 q 160 -228 90 -190 q 239 -261 206 -249 q 303 -280 272 -274 q 374 -286 333 -286 m 371 178 l 371 178 q 271 224 308 178 q 233 347 233 271 q 242 438 233 401 q 271 500 251 474 q 385 556 310 556 q 422 550 407 556 q 471 526 433 547 q 500 515 486 518 q 524 510 513 513 q 525 303 525 478 q 507 263 517 286 q 483 225 496 238 q 371 178 436 178 m 401 797 l 401 797 q 484 826 453 797 q 515 900 515 856 q 442 986 515 963 q 478 1042 453 1014 q 499 1070 492 1057 q 507 1103 507 1083 q 488 1148 507 1131 q 442 1165 469 1165 q 400 1154 419 1165 q 358 1117 381 1143 q 275 925 275 1019 q 310 833 275 869 q 401 797 344 797 z "},"ġ":{"ha":788,"x_min":46,"x_max":757,"o":"m 385 -287 l 385 -287 q 556 -242 474 -287 q 688 -121 639 -197 q 740 26 722 -67 q 756 236 757 119 q 756 314 754 275 q 756 392 756 353 q 756 453 756 421 q 756 521 756 486 q 753 663 756 592 q 722 725 751 700 q 654 750 693 750 q 572 692 610 750 q 407 742 493 742 q 220 695 301 742 q 94 568 139 649 q 50 386 50 486 q 90 197 50 283 q 204 61 131 111 q 371 11 276 11 q 466 33 422 11 q 568 103 510 54 q 558 17 564 51 q 539 -39 551 -18 q 485 -88 521 -69 q 407 -107 450 -107 q 321 -97 351 -107 q 271 -69 290 -87 q 240 -29 256 -57 q 225 -4 226 -7 q 149 38 196 38 q 78 9 110 38 q 46 -57 46 -19 q 97 -175 46 -122 q 228 -257 149 -228 q 385 -287 306 -287 m 371 190 l 371 190 q 280 240 314 190 q 246 385 246 290 q 400 561 246 561 q 472 553 447 561 q 513 529 496 546 q 569 475 521 519 q 568 315 569 339 l 542 294 q 488 247 508 271 q 434 206 464 221 q 371 190 404 190 m 542 915 l 542 915 q 515 1017 553 969 q 376 1050 469 1076 q 326 1016 344 1042 q 302 958 307 990 q 309 896 297 926 q 351 847 321 865 q 435 824 393 822 q 506 849 476 825 q 542 915 536 872 z "},"ħ":{"ha":788,"x_min":-15,"x_max":718,"o":"m 68 763 l 68 763 l 431 775 q 485 798 465 776 q 504 854 506 819 q 483 909 504 889 q 426 928 461 929 l 63 915 q 6 891 28 914 q -14 836 -15 868 q 10 783 -14 804 q 68 763 33 761 m 214 -6 l 214 -6 q 282 19 253 -6 q 311 90 311 44 q 306 488 311 219 q 372 535 329 514 q 456 553 413 553 q 528 511 514 553 q 535 451 532 500 l 536 394 l 535 319 l 526 93 q 553 24 525 49 q 619 -1 581 -1 q 682 21 656 -1 q 710 85 708 43 l 718 317 l 718 371 q 717 458 718 435 q 697 588 714 538 q 608 697 674 656 q 461 739 542 739 q 360 717 404 739 q 301 681 329 701 q 300 915 300 751 q 271 986 300 961 q 203 1011 242 1011 q 135 986 164 1011 q 106 915 106 961 q 111 486 106 753 q 117 90 117 219 q 146 19 117 44 q 214 -6 175 -6 z "},"ĥ":{"ha":758,"x_min":-43,"x_max":689,"o":"m 185 -6 l 185 -6 q 253 19 224 -6 q 282 90 282 44 q 276 488 282 219 q 343 535 300 514 q 426 553 383 553 q 499 511 485 553 q 506 451 503 500 l 507 394 l 506 319 l 497 93 q 524 24 496 49 q 590 -1 551 -1 q 653 21 626 -1 q 681 85 679 43 l 689 317 l 689 371 q 688 458 689 435 q 668 588 685 538 q 578 697 644 656 q 432 739 513 739 q 331 717 375 739 q 272 681 300 701 q 271 915 271 751 q 242 986 271 961 q 174 1011 213 1011 q 106 986 135 1011 q 76 915 76 961 q 82 486 76 753 q 88 90 88 219 q 117 19 88 44 q 185 -6 146 -6 m 29 1065 l 29 1065 q 94 1079 64 1058 l 185 1143 l 272 1078 q 337 1065 303 1057 q 392 1100 371 1074 q 406 1163 413 1126 q 369 1218 400 1199 l 239 1315 q 175 1328 210 1335 q 168 1326 172 1326 q 161 1325 164 1326 q 132 1313 146 1321 l -1 1221 q -38 1165 -33 1199 q -26 1101 -43 1131 q 29 1065 -8 1072 z "},"í":{"ha":343,"x_min":57,"x_max":365,"o":"m 274 85 l 274 85 q 264 633 276 453 q 231 703 261 681 q 162 723 200 725 q 96 695 124 721 q 69 622 68 669 q 79 88 83 447 q 108 16 79 40 q 174 -9 136 -8 q 242 14 213 -10 q 274 85 272 38 m 163 792 l 163 792 q 229 825 203 794 l 338 944 q 361 1016 365 978 q 330 1081 357 1054 q 260 1106 303 1107 q 193 1072 219 1103 l 85 953 q 61 881 57 919 q 92 817 65 843 q 163 792 119 790 z "},"ĭ":{"ha":343,"x_min":-47,"x_max":368,"o":"m 274 85 l 274 85 q 264 633 276 453 q 231 703 261 681 q 162 723 200 725 q 96 695 124 721 q 69 622 68 669 q 79 88 83 447 q 108 16 79 40 q 174 -9 136 -8 q 242 14 213 -10 q 274 85 272 38 m 161 813 l 161 813 q 256 840 207 814 q 336 911 306 867 q 368 1004 368 954 q 349 1063 368 1040 q 299 1086 331 1086 q 255 1069 269 1086 q 226 1019 240 1053 q 201 989 217 1000 q 169 978 185 978 q 104 1013 129 978 q 93 1038 100 1019 q 82 1063 88 1054 q 26 1093 65 1093 q -24 1069 0 1093 q -47 1007 -47 1046 q -15 912 -47 957 q 65 839 17 867 q 161 813 115 811 z "},"î":{"ha":343,"x_min":-51,"x_max":379,"o":"m 274 85 l 274 85 q 264 633 276 453 q 231 703 261 681 q 162 723 200 725 q 96 695 124 721 q 69 622 68 669 q 79 88 83 447 q 108 16 79 40 q 174 -9 136 -8 q 242 14 213 -10 q 274 85 272 38 m 17 817 l 17 817 q 79 831 50 810 l 164 894 l 246 829 q 307 817 275 808 q 359 851 339 825 q 372 914 379 878 q 338 969 367 950 l 215 1067 q 154 1079 188 1086 q 148 1078 151 1078 q 142 1076 144 1078 q 114 1064 126 1072 l -12 972 q -47 916 -42 950 q -35 853 -51 882 q 17 817 -18 824 z "},"ï":{"ha":343,"x_min":-40,"x_max":383,"o":"m 153 901 l 153 901 q 150 965 160 933 q 111 1007 142 994 q 81 1015 96 1014 q 57 1016 69 1017 q 29 1011 44 1015 q -31 943 -22 989 q -8 861 -40 897 q 51 831 15 833 q 115 848 86 829 q 153 901 144 867 m 379 901 l 379 901 q 376 956 383 933 q 354 993 368 983 q 326 1011 340 1006 q 289 1015 311 1015 q 236 1001 256 1017 q 199 937 206 978 q 219 861 192 896 q 278 831 242 833 q 344 848 314 829 q 379 901 375 867 m 274 85 l 274 85 q 264 633 276 453 q 231 703 261 681 q 162 723 200 725 q 96 695 124 721 q 69 622 68 669 q 79 88 83 447 q 108 16 79 40 q 174 -9 136 -8 q 242 14 213 -10 q 274 85 272 38 z "},"ı":{"ha":343,"x_min":68,"x_max":276,"o":"m 274 85 l 274 85 q 264 633 276 453 q 231 703 261 681 q 162 723 200 725 q 96 695 124 721 q 69 622 68 669 q 79 88 83 447 q 108 16 79 40 q 174 -9 136 -8 q 242 14 213 -10 q 274 85 272 38 z "},"ì":{"ha":343,"x_min":-35,"x_max":276,"o":"m 274 85 l 274 85 q 264 633 276 453 q 231 703 261 681 q 162 723 200 725 q 96 695 124 721 q 69 622 68 669 q 79 88 83 447 q 108 16 79 40 q 174 -9 136 -8 q 242 14 213 -10 q 274 85 272 38 m 168 792 l 168 792 q 238 817 211 790 q 269 881 265 843 q 246 953 274 919 l 138 1072 q 71 1106 111 1103 q 1 1081 28 1107 q -31 1016 -26 1054 q -7 944 -35 978 l 101 825 q 168 792 128 794 z "},"ī":{"ha":333,"x_min":-31,"x_max":364,"o":"m 117 839 l 117 839 l 182 839 q 278 843 221 839 q 342 870 321 844 q 363 929 364 896 q 340 988 363 963 q 275 1013 318 1013 q 172 1011 219 1013 q 54 1011 124 1008 q -10 984 11 1010 q -30 925 -31 958 q -6 867 -29 892 q 60 842 17 842 q 117 839 93 839 m 274 85 l 274 85 q 264 633 276 453 q 231 703 261 681 q 162 723 200 725 q 96 695 124 721 q 69 622 68 669 q 79 88 83 447 q 108 16 79 40 q 174 -9 136 -8 q 242 14 213 -10 q 274 85 272 38 z "},"į":{"ha":331,"x_min":-82,"x_max":286,"o":"m 93 -283 l 93 -283 q 128 -283 117 -285 q 143 -283 138 -283 l 157 -283 q 221 -277 194 -292 q 260 -235 247 -262 q 272 -178 274 -208 q 250 -124 269 -147 q 193 -94 231 -101 q 140 -89 175 -90 l 143 -86 q 203 -32 164 -62 q 243 1 240 -1 q 272 97 286 40 q 274 113 274 106 q 264 625 274 449 q 231 694 261 672 q 162 715 200 717 q 96 687 124 713 q 69 614 68 661 q 79 118 83 468 q -1 43 28 76 q -50 -27 -26 14 q -78 -117 -74 -68 q -47 -215 -82 -165 q 93 -283 -4 -281 m 231 972 l 231 972 q 174 1003 204 1000 q 118 990 144 1006 q 76 949 92 975 q 64 893 61 924 q 94 836 67 863 q 151 806 121 808 q 208 818 182 803 q 249 860 233 833 q 261 916 264 886 q 231 972 258 946 z "},"ĩ":{"ha":343,"x_min":-67,"x_max":400,"o":"m 240 824 l 240 824 q 299 842 274 824 q 358 896 325 860 q 400 981 400 940 q 384 1022 400 1006 q 344 1038 368 1038 q 312 1028 325 1038 q 283 1003 299 1019 q 265 987 272 992 q 244 982 257 982 q 213 990 231 982 q 178 1007 194 997 q 131 1029 150 1022 q 92 1036 113 1036 q -26 967 40 1036 q -67 889 -67 926 q -50 849 -67 867 q -10 832 -33 832 q 49 860 21 832 q 97 881 69 881 q 126 874 111 881 q 164 853 140 867 q 240 824 211 824 m 274 85 l 274 85 q 264 633 276 453 q 231 703 261 681 q 162 723 200 725 q 96 695 124 721 q 69 622 68 669 q 79 88 83 447 q 108 16 79 40 q 174 -9 136 -8 q 242 14 213 -10 q 274 85 272 38 z "},"ĵ":{"ha":382,"x_min":-46,"x_max":422,"o":"m 90 -282 l 90 -282 q 115 -276 96 -279 q 147 -269 135 -272 q 261 -203 224 -253 q 283 -150 276 -182 q 290 -110 288 -133 q 297 -10 296 -72 q 300 214 301 90 q 289 618 297 456 q 256 688 286 665 q 187 710 225 711 q 121 683 149 708 q 94 610 93 658 q 106 213 104 450 q 104 -3 108 93 q 99 -82 103 -53 q 24 -99 47 -90 q -34 -151 -22 -115 q -33 -222 -46 -186 q 13 -278 -19 -258 q 90 -282 46 -297 m 39 807 l 39 807 q 104 821 74 800 l 194 885 l 282 819 q 347 807 313 799 q 401 842 381 815 q 415 904 422 868 q 379 960 410 940 l 249 1057 q 185 1069 219 1076 q 178 1068 182 1068 q 171 1067 174 1068 q 142 1054 156 1063 l 8 963 q -28 906 -24 940 q -16 843 -33 872 q 39 807 1 814 z "},"ȷ":{"ha":371,"x_min":-68,"x_max":301,"o":"m 42 -283 l 42 -283 q 63 -282 42 -282 q 99 -283 82 -283 q 214 -253 168 -283 q 276 -156 257 -224 q 293 -56 288 -117 q 301 192 301 24 q 300 306 301 243 q 296 432 299 368 q 292 553 293 496 q 288 644 288 636 q 266 706 286 683 q 216 735 246 728 q 158 733 186 742 q 110 700 129 724 q 93 639 92 676 q 98 578 96 621 q 101 479 100 535 q 104 365 103 424 q 108 190 107 267 q 100 -36 108 47 q 93 -90 97 -68 q 19 -92 43 -89 q -39 -118 -18 -96 q -64 -170 -60 -140 q -58 -228 -68 -200 q -22 -272 -47 -256 q 42 -283 4 -289 z "},"ķ":{"ha":718,"x_min":69,"x_max":711,"o":"m 538 29 q 592 -4 563 0 q 649 4 622 -8 q 694 42 676 17 q 711 96 711 67 q 685 154 711 125 l 624 225 q 584 272 597 256 q 563 299 571 288 q 544 327 554 311 q 511 375 533 343 l 450 465 l 579 594 q 610 652 607 622 q 597 708 613 682 q 557 749 582 733 q 501 762 532 764 q 443 733 471 760 l 264 554 q 268 951 263 790 q 251 1014 269 990 q 203 1046 232 1038 q 144 1047 174 1054 q 95 1018 115 1040 q 74 957 75 996 q 71 823 72 899 q 69 673 69 747 q 71 542 69 599 q 72 393 71 474 q 74 235 74 313 q 75 99 75 158 q 94 37 75 60 q 143 7 114 14 q 201 8 172 0 q 250 40 231 17 q 269 101 269 64 q 267 285 268 169 l 310 326 l 356 260 q 377 226 363 247 q 406 185 392 204 q 425 160 419 165 q 446 136 438 146 q 483 92 454 125 l 538 29 l 538 29 m 388 -358 l 388 -358 q 453 -267 428 -321 q 485 -178 475 -225 q 464 -75 492 -114 q 397 -29 438 -37 q 373 -26 382 -26 q 343 -28 364 -25 l 318 -37 q 274 -83 285 -54 q 272 -141 264 -112 q 300 -186 279 -169 q 342 -203 317 -199 q 293 -275 311 -256 q 273 -326 269 -301 q 295 -366 276 -350 q 340 -382 314 -382 q 388 -358 365 -382 z "},"ĸ":{"ha":697,"x_min":69,"x_max":693,"o":"m 522 26 q 577 -6 547 -1 q 633 3 607 -10 q 676 42 660 17 q 692 97 693 67 q 667 157 692 128 l 457 440 l 593 576 q 622 635 619 604 q 608 690 624 665 q 567 731 593 715 q 512 743 542 746 q 454 713 482 740 l 268 525 q 271 647 269 600 q 242 719 271 694 q 176 744 214 743 q 108 721 138 744 q 76 650 78 697 q 74 369 75 565 q 69 88 72 172 q 98 16 69 40 q 165 -9 126 -8 q 233 14 203 -10 q 264 85 263 38 q 267 249 265 146 l 318 301 l 468 86 l 522 26 l 522 26 z "},"ĺ":{"ha":428,"x_min":58,"x_max":367,"o":"m 107 100 l 107 100 q 126 38 107 61 q 175 8 146 15 q 233 8 204 0 q 282 38 263 15 q 301 100 301 61 q 300 331 301 189 q 297 603 297 471 q 301 854 297 733 q 275 924 303 894 q 242 947 260 939 q 142 931 194 971 l 138 928 q 107 860 108 900 q 105 744 106 810 q 104 604 104 678 q 105 460 104 531 q 106 332 106 389 q 107 100 107 189 m 164 975 l 164 975 q 231 1008 204 978 l 339 1128 q 363 1199 367 1161 q 331 1264 358 1238 q 261 1289 304 1290 q 194 1256 221 1286 l 86 1136 q 63 1065 58 1103 q 94 1000 67 1026 q 164 975 121 974 z "},"ľ":{"ha":532,"x_min":76,"x_max":550,"o":"m 271 79 l 271 79 q 272 194 271 126 q 272 340 272 263 q 272 492 272 417 q 272 631 272 568 q 271 907 271 796 q 251 969 271 946 q 203 999 232 992 q 144 999 174 1007 q 96 969 115 992 q 76 907 76 946 l 78 482 q 76 82 79 82 q 105 10 76 35 q 172 -15 133 -14 q 240 8 210 -15 q 271 79 269 32 m 519 699 l 519 699 q 544 797 539 761 q 549 876 550 832 q 525 975 546 919 q 477 1022 508 1013 q 415 1019 446 1031 q 367 982 383 1008 q 367 921 351 956 q 378 833 381 869 q 361 750 376 799 q 367 690 349 717 q 416 652 385 664 q 477 650 447 640 q 519 699 507 660 z "},"ļ":{"ha":349,"x_min":68,"x_max":282,"o":"m 271 79 l 271 79 q 272 194 271 126 q 272 340 272 263 q 272 492 272 417 q 272 631 272 568 q 271 907 271 796 q 251 969 271 946 q 203 999 232 992 q 144 999 174 1007 q 96 969 115 992 q 76 907 76 946 l 78 482 q 76 82 79 82 q 105 10 76 35 q 172 -15 133 -14 q 240 8 210 -15 q 271 79 269 32 m 185 -371 l 185 -371 q 246 -285 222 -336 q 276 -201 267 -246 q 256 -104 282 -140 q 193 -61 232 -69 q 171 -58 179 -58 q 142 -60 163 -57 l 118 -69 q 78 -112 88 -86 q 74 -165 68 -139 q 101 -208 81 -192 q 140 -225 117 -221 q 94 -293 113 -275 q 72 -344 69 -321 q 94 -382 75 -368 q 139 -394 114 -396 q 185 -371 164 -393 z "},"ŀ":{"ha":560,"x_min":71,"x_max":538,"o":"m 72 92 l 72 92 q 92 30 72 53 q 140 -1 111 7 q 199 -1 169 -8 q 247 30 228 7 q 267 92 267 53 l 265 474 q 267 899 263 897 q 238 970 267 946 q 172 995 210 994 q 103 972 133 996 q 72 901 74 949 q 72 778 72 849 q 71 629 71 707 q 71 476 71 551 q 72 339 71 400 q 72 92 72 186 m 528 549 l 528 549 q 504 640 538 597 q 379 669 463 694 q 323 624 340 660 q 313 549 306 589 q 356 488 319 510 q 431 465 393 464 q 495 488 468 467 q 528 549 522 510 z "},"ł":{"ha":536,"x_min":19,"x_max":519,"o":"m 111 311 l 111 311 q 145 321 126 311 q 193 349 164 331 l 471 518 q 519 603 519 546 q 493 672 519 644 q 429 700 467 700 q 357 672 404 700 l 233 599 l 67 493 q 30 458 40 476 q 19 411 19 439 q 46 338 19 364 q 111 311 72 311 m 364 79 l 364 79 q 365 194 364 126 q 365 340 365 263 q 365 492 365 417 q 365 631 365 568 q 364 907 364 796 q 344 969 364 946 q 296 999 325 992 q 238 999 267 1007 q 189 969 208 992 q 169 907 169 946 l 171 482 q 169 82 172 82 q 198 10 169 35 q 265 -15 226 -14 q 333 8 303 -15 q 364 79 363 32 z "},"ń":{"ha":797,"x_min":74,"x_max":728,"o":"m 147 10 l 147 10 q 239 13 192 -8 q 296 82 282 33 q 300 113 299 94 q 301 164 301 131 q 300 228 301 182 q 297 299 297 272 q 317 443 293 399 q 374 520 340 489 q 436 558 408 551 q 463 556 451 563 q 507 488 486 540 q 533 258 533 418 q 531 161 533 203 q 526 97 526 119 q 555 26 526 50 q 622 1 583 1 q 690 24 660 0 q 721 94 719 47 q 725 161 721 117 q 728 260 728 204 q 688 557 726 454 q 565 719 644 671 q 493 749 532 740 q 342 729 408 765 q 272 688 306 714 q 239 738 264 718 q 182 758 214 757 q 113 732 142 760 q 82 664 83 704 q 88 256 75 361 q 88 238 89 249 l 83 206 q 78 161 81 185 q 85 79 74 111 q 147 10 101 29 m 463 822 l 463 822 l 550 944 q 570 1006 572 976 q 549 1059 568 1036 q 501 1092 529 1082 q 444 1096 474 1103 q 392 1058 414 1089 l 304 936 q 284 874 282 904 q 306 822 286 844 q 353 788 325 799 q 410 785 381 778 q 463 822 440 792 z "},"ň":{"ha":840,"x_min":75,"x_max":783,"o":"m 204 -7 l 204 -7 q 269 31 243 -1 q 285 56 278 42 q 300 197 306 115 q 332 376 301 303 q 410 495 363 449 q 513 566 458 542 q 619 598 568 590 q 707 602 671 606 q 754 588 743 599 q 740 566 765 578 q 641 545 714 554 q 436 536 568 536 q 528 508 493 540 q 565 453 553 488 q 582 386 578 419 q 586 333 586 353 q 589 204 590 260 q 588 89 586 149 q 609 28 589 50 q 658 -1 629 6 q 717 0 688 -8 q 765 32 746 8 q 782 94 783 56 q 781 138 782 100 q 778 228 781 175 q 774 332 776 281 q 768 417 772 383 q 667 636 753 554 q 468 729 589 725 q 507 747 488 735 q 535 770 515 754 q 581 804 556 786 q 626 838 606 822 q 661 891 656 861 q 655 948 667 921 q 619 992 643 975 q 565 1010 594 1010 q 504 988 535 1011 l 436 929 q 365 990 400 963 q 305 1013 335 1014 q 251 995 275 1013 q 215 951 226 978 q 208 894 203 924 q 243 840 214 864 q 308 790 267 822 q 363 750 349 758 q 413 728 386 733 q 271 644 336 718 l 271 653 q 238 723 268 700 q 169 744 207 746 q 103 718 131 743 q 76 644 75 693 q 85 343 82 524 q 88 144 86 163 q 92 75 88 99 q 107 39 96 56 q 143 4 118 19 q 204 -7 168 -11 z "},"ņ":{"ha":775,"x_min":68,"x_max":706,"o":"m 697 88 l 697 88 q 701 177 697 117 q 706 303 704 238 q 703 379 706 335 q 694 467 700 424 q 678 543 688 511 q 588 681 650 629 q 426 735 525 733 q 250 650 314 731 q 163 722 238 718 q 94 692 121 722 q 75 613 68 663 q 81 517 79 574 q 85 398 83 461 q 88 275 88 335 q 89 168 89 215 q 89 97 89 121 q 108 35 89 58 q 157 5 128 13 q 215 5 186 -3 q 264 35 244 13 q 283 97 283 58 q 282 289 283 163 q 281 463 281 414 q 281 481 281 475 q 288 506 282 488 q 335 542 303 529 q 407 551 368 556 q 469 531 444 549 q 503 488 494 514 q 518 399 514 454 q 522 303 522 344 q 517 188 521 247 q 514 93 514 129 q 539 25 513 49 q 602 0 565 1 q 667 21 639 -1 q 697 88 696 43 m 408 -371 l 408 -371 q 469 -285 446 -336 q 500 -201 490 -246 q 479 -104 506 -140 q 417 -61 456 -69 q 394 -58 403 -58 q 365 -60 386 -57 l 342 -69 q 301 -112 311 -86 q 298 -165 292 -139 q 325 -208 304 -192 q 364 -225 340 -221 q 318 -293 336 -275 q 296 -344 293 -321 q 318 -382 299 -368 q 363 -394 338 -396 q 408 -371 388 -393 z "},"ñ":{"ha":775,"x_min":68,"x_max":706,"o":"m 697 88 l 697 88 q 701 177 697 117 q 706 303 704 238 q 703 379 706 335 q 694 467 700 424 q 678 543 688 511 q 588 681 650 629 q 426 735 525 733 q 250 650 314 731 q 163 722 238 718 q 94 692 121 722 q 75 613 68 663 q 81 517 79 574 q 85 398 83 461 q 88 275 88 335 q 89 168 89 215 q 89 97 89 121 q 108 35 89 58 q 157 5 128 13 q 215 5 186 -3 q 264 35 244 13 q 283 97 283 58 q 282 289 283 163 q 281 463 281 414 q 281 481 281 475 q 288 506 282 488 q 335 542 303 529 q 407 551 368 556 q 469 531 444 549 q 503 488 494 514 q 518 399 514 454 q 522 303 522 344 q 517 188 521 247 q 514 93 514 129 q 539 25 513 49 q 602 0 565 1 q 667 21 639 -1 q 697 88 696 43 m 172 819 l 172 819 q 206 827 194 819 q 231 857 217 835 q 290 890 251 890 q 330 883 310 890 q 379 858 350 875 q 440 828 417 838 q 493 819 464 819 q 578 843 539 819 q 642 905 618 867 q 667 988 667 943 q 649 1039 667 1019 q 601 1058 632 1058 q 563 1049 575 1058 q 535 1017 550 1040 q 485 983 514 983 q 444 990 461 983 q 400 1015 428 997 q 344 1046 369 1036 q 283 1056 319 1056 q 203 1031 243 1056 q 135 969 163 1007 q 108 893 108 932 q 172 819 108 819 z "},"ŋ":{"ha":803,"x_min":72,"x_max":740,"o":"m 513 -301 l 513 -301 q 549 -278 525 -292 l 597 -250 q 708 -143 675 -203 q 731 -1 740 -86 q 725 40 729 13 q 721 76 721 68 l 721 247 q 719 363 721 296 q 710 500 718 431 q 682 625 703 569 q 644 702 668 665 q 581 763 619 739 q 489 789 543 788 q 281 699 394 790 q 246 747 271 728 q 189 767 221 765 q 120 739 149 767 q 90 671 92 711 q 89 479 89 581 q 72 425 72 454 q 90 369 72 394 q 94 86 90 246 q 126 15 96 38 q 194 -8 156 -8 q 260 17 232 -7 q 289 89 289 42 q 283 418 283 282 q 338 490 318 471 q 483 594 436 588 q 500 563 492 586 q 519 456 514 517 q 526 339 525 396 q 528 256 528 294 q 526 176 526 215 l 526 76 q 529 40 526 61 l 535 -1 q 538 -24 538 -22 q 539 -49 540 -42 q 496 -85 531 -64 q 471 -100 488 -90 q 451 -111 453 -110 q 396 -146 418 -131 q 359 -199 365 -169 q 364 -256 353 -229 q 399 -302 375 -283 q 452 -322 422 -321 q 513 -301 482 -324 z "},"ó":{"ha":792,"x_min":47,"x_max":747,"o":"m 328 -8 l 328 -8 q 518 -3 439 -31 q 632 78 583 21 q 704 199 681 135 q 735 329 728 261 q 733 468 747 394 q 678 603 718 542 q 576 696 639 665 q 401 739 532 718 q 324 742 363 757 q 307 736 318 739 q 278 728 279 728 q 196 685 228 713 q 108 576 142 639 q 60 443 74 514 q 56 303 47 372 q 139 103 69 190 q 328 -8 207 15 m 364 181 l 364 181 q 249 325 263 201 q 261 446 240 388 q 321 538 282 504 l 335 543 q 360 550 336 543 q 433 537 400 540 q 493 521 465 533 q 531 474 518 508 q 544 394 543 439 q 534 303 544 349 q 503 225 524 258 q 454 181 483 192 q 364 181 424 169 m 356 764 l 356 764 q 422 797 396 767 l 531 917 q 554 988 558 950 q 523 1053 550 1026 q 453 1078 496 1079 q 386 1044 413 1075 l 278 925 q 254 853 250 892 q 285 789 258 815 q 356 764 313 763 z "},"ŏ":{"ha":818,"x_min":38,"x_max":768,"o":"m 415 -12 l 415 -12 q 616 51 532 -14 q 738 214 700 117 q 764 338 760 274 q 749 467 768 401 q 685 583 729 532 q 535 717 643 656 q 506 733 513 725 q 236 725 349 786 q 81 535 124 656 q 61 296 38 415 q 126 142 79 211 q 245 31 172 74 q 415 -12 318 -11 m 418 172 l 418 172 q 311 214 356 172 q 251 329 267 256 q 261 469 238 403 q 339 569 285 536 q 369 578 347 574 q 381 579 375 579 q 465 522 428 543 q 535 468 503 501 q 569 382 563 435 q 556 276 575 329 q 499 198 535 225 q 418 172 463 171 m 490 822 l 490 822 q 578 893 535 840 q 624 978 619 935 q 605 1049 626 1024 q 553 1078 583 1075 q 495 1063 522 1082 q 460 999 468 1043 l 458 990 q 464 1015 461 999 q 415 978 435 986 q 374 981 396 971 q 318 1015 353 992 q 319 1004 301 1047 q 321 1007 321 1001 q 318 1015 319 1013 q 283 1071 307 1053 q 232 1088 260 1089 q 182 1067 204 1088 q 153 1008 160 1047 q 214 886 157 939 q 350 815 271 833 q 490 822 428 796 z "},"ô":{"ha":792,"x_min":47,"x_max":747,"o":"m 328 -12 l 328 -12 q 518 -7 439 -35 q 632 74 583 17 q 704 194 681 131 q 735 325 728 257 q 733 464 747 390 q 678 599 718 538 q 576 692 639 661 q 401 735 532 714 q 324 738 363 753 q 307 732 318 735 q 278 724 279 724 q 196 681 228 708 q 108 572 142 635 q 60 439 74 510 q 56 299 47 368 q 139 99 69 186 q 328 -12 207 11 m 364 176 l 364 176 q 249 321 263 197 q 261 442 240 383 q 321 533 282 500 l 335 539 q 360 546 336 539 q 433 533 400 536 q 493 517 465 529 q 531 469 518 504 q 544 390 543 435 q 534 299 544 344 q 503 221 524 254 q 454 176 483 188 q 364 176 424 165 m 282 774 l 282 774 q 347 788 317 767 l 438 851 l 525 786 q 590 774 556 765 q 644 808 624 782 q 658 871 665 835 q 622 926 653 907 l 492 1024 q 428 1036 463 1043 q 421 1035 425 1035 q 414 1033 417 1035 q 385 1021 399 1029 l 251 929 q 215 873 219 907 q 227 810 210 839 q 282 774 244 781 z "},"ö":{"ha":792,"x_min":47,"x_max":747,"o":"m 328 -10 l 328 -10 l 328 -10 q 518 -4 439 -32 q 632 76 583 19 q 704 197 681 133 q 735 328 728 260 q 733 467 747 393 q 678 602 718 540 q 576 694 639 664 q 401 738 532 717 q 324 740 363 756 q 307 735 318 738 q 278 726 279 726 q 196 683 228 711 q 108 575 142 638 q 60 442 74 513 q 56 301 47 371 q 139 101 69 189 q 328 -10 207 14 m 364 179 l 364 179 l 364 179 q 249 324 263 200 q 261 444 240 386 q 321 536 282 503 l 335 542 q 360 549 336 542 q 433 535 400 539 q 493 519 465 532 q 531 472 518 507 q 544 392 543 438 q 534 302 544 347 q 503 224 524 257 q 454 179 483 190 q 364 179 424 168 m 363 900 l 363 900 q 360 969 369 935 q 315 1015 350 1003 q 282 1025 300 1024 q 256 1026 271 1026 q 225 1019 242 1025 q 171 976 188 1006 q 158 913 154 946 q 185 856 161 881 q 251 822 211 824 q 322 840 290 819 q 363 900 354 861 m 628 899 l 628 899 q 625 958 633 935 q 600 1001 614 989 q 569 1019 585 1014 q 528 1025 551 1025 q 469 1008 492 1026 q 428 937 436 982 q 451 854 419 892 q 516 822 476 824 q 589 840 556 819 q 628 899 622 860 z "},"ò":{"ha":792,"x_min":47,"x_max":747,"o":"m 328 -3 l 328 -3 q 518 3 439 -25 q 632 83 583 26 q 704 204 681 140 q 735 335 728 267 q 733 474 747 400 q 678 609 718 547 q 576 701 639 671 q 401 744 532 724 q 324 747 363 763 q 307 742 318 744 q 278 733 279 733 q 196 690 228 718 q 108 582 142 644 q 60 449 74 519 q 56 308 47 378 q 139 108 69 196 q 328 -3 207 21 m 364 186 l 364 186 q 249 331 263 207 q 261 451 240 393 q 321 543 282 510 l 335 549 q 360 556 336 549 q 433 542 400 546 q 493 526 465 539 q 531 479 518 514 q 544 399 543 444 q 534 309 544 354 q 503 231 524 264 q 454 186 483 197 q 364 186 424 175 m 397 778 l 397 778 q 467 803 440 776 q 499 867 494 829 q 475 939 503 906 l 367 1058 q 300 1092 340 1089 q 230 1067 257 1093 q 199 1002 203 1040 q 222 931 194 964 l 331 811 q 397 778 357 781 z "},"ő":{"ha":781,"x_min":40,"x_max":728,"o":"m 414 -11 l 414 -11 q 539 28 483 -3 q 628 100 594 58 q 682 196 660 142 q 712 296 703 249 q 724 392 721 343 q 726 413 724 396 q 728 438 728 429 q 710 525 725 485 q 636 648 679 601 q 529 713 593 694 q 433 725 492 722 q 385 752 414 746 q 329 746 356 758 q 307 739 321 742 l 272 726 q 178 671 211 706 q 72 498 103 596 q 61 283 40 400 q 165 69 83 149 q 414 -11 265 -29 m 392 174 l 392 174 q 296 201 331 167 q 246 315 257 239 q 251 447 231 393 q 310 540 271 500 q 318 546 313 542 q 418 539 346 543 q 479 532 461 538 q 510 508 496 529 q 536 456 525 488 q 541 428 544 436 q 536 400 538 419 q 392 174 528 189 m 326 831 l 326 831 l 411 964 q 422 1033 433 1000 q 381 1084 411 1065 q 318 1099 351 1103 q 263 1057 285 1094 l 178 924 q 166 855 156 888 q 206 803 176 822 q 269 788 235 783 q 326 831 303 792 m 581 819 l 581 819 l 663 926 q 683 993 690 960 q 649 1048 676 1026 q 586 1069 621 1069 q 525 1033 551 1068 l 442 928 q 422 861 415 894 q 456 807 429 828 q 518 786 483 786 q 581 819 553 786 z "},"ō":{"ha":792,"x_min":47,"x_max":747,"o":"m 328 -10 l 328 -10 l 328 -10 q 518 -4 439 -32 q 632 76 583 19 q 704 197 681 133 q 735 328 728 260 q 733 467 747 393 q 678 602 718 540 q 576 694 639 664 q 401 738 532 717 q 324 740 363 756 q 307 735 318 738 q 278 726 279 726 q 196 683 228 711 q 108 575 142 638 q 60 442 74 513 q 56 301 47 371 q 139 101 69 189 q 328 -10 207 14 m 364 179 l 364 179 l 364 179 q 249 324 263 200 q 261 444 240 386 q 321 536 282 503 l 335 542 q 360 549 336 542 q 433 535 400 539 q 493 519 465 532 q 531 472 518 507 q 544 392 543 438 q 534 302 544 347 q 503 224 524 257 q 454 179 483 190 q 364 179 424 168 m 279 842 l 279 842 l 403 842 q 576 847 489 840 q 647 876 624 849 q 669 940 669 904 q 644 1002 668 975 q 574 1029 621 1029 q 451 1025 517 1026 q 324 1024 386 1024 q 211 1028 261 1025 q 141 998 164 1026 q 119 933 118 969 q 145 871 121 897 q 217 846 169 844 q 279 842 253 842 z "},"ǫ":{"ha":792,"x_min":47,"x_max":747,"o":"m 328 -10 l 328 -10 l 328 -10 q 518 -4 439 -32 q 632 76 583 19 q 704 197 681 133 q 735 328 728 260 q 733 467 747 393 q 678 602 718 540 q 576 694 639 664 q 401 738 532 717 q 324 740 363 756 q 307 735 318 738 q 278 726 279 726 q 196 683 228 711 q 108 575 142 638 q 60 442 74 513 q 56 301 47 371 q 139 101 69 189 q 328 -10 207 14 m 364 179 l 364 179 l 364 179 q 249 324 263 200 q 261 444 240 386 q 321 536 282 503 l 335 542 q 360 549 336 542 q 433 535 400 539 q 493 519 465 532 q 531 472 518 507 q 544 392 543 438 q 534 302 544 347 q 503 224 524 257 q 454 179 483 190 q 364 179 424 168 m 401 -276 l 401 -276 q 469 -267 440 -276 q 526 -244 497 -258 q 575 -172 575 -214 q 560 -128 575 -149 q 517 -108 544 -108 q 465 -129 490 -108 q 438 -146 450 -140 q 410 -151 426 -151 q 370 -139 386 -151 q 353 -107 354 -126 q 390 -40 349 -65 q 450 -18 414 -26 q 469 -14 460 -15 q 489 -7 479 -11 q 524 28 514 4 q 519 78 535 53 q 422 107 496 117 q 340 80 382 103 q 268 24 297 57 q 219 -108 217 -36 q 261 -217 219 -169 q 323 -260 285 -244 q 401 -276 361 -276 z "},"ø":{"ha":788,"x_min":43,"x_max":779,"o":"m 154 -37 l 154 -37 l 281 117 l 464 335 l 626 543 l 761 700 q 773 744 779 722 q 747 780 767 765 q 705 793 728 794 q 665 768 682 792 l 538 619 l 188 186 l 60 40 q 48 -7 43 17 q 71 -47 53 -31 q 112 -62 89 -62 q 154 -37 135 -62 m 328 -10 l 328 -10 l 328 -10 q 518 -4 439 -32 q 632 76 583 19 q 704 197 681 133 q 735 328 728 260 q 733 467 747 393 q 678 602 718 540 q 576 694 639 664 q 401 738 532 717 q 324 740 363 756 q 307 735 318 738 q 278 726 279 726 q 196 683 228 711 q 108 575 142 638 q 60 442 74 513 q 56 301 47 371 q 139 101 69 189 q 328 -10 207 14 m 364 179 l 364 179 l 364 179 q 249 324 263 200 q 261 444 240 386 q 321 536 282 503 l 335 542 q 360 549 336 542 q 433 535 400 539 q 493 519 465 532 q 531 472 518 507 q 544 392 543 438 q 534 302 544 347 q 503 224 524 257 q 454 179 483 190 q 364 179 424 168 z "},"ǿ":{"ha":788,"x_min":43,"x_max":779,"o":"m 154 -37 l 154 -37 l 281 117 l 464 335 l 626 543 l 761 700 q 773 744 779 722 q 747 780 767 765 q 705 793 728 794 q 665 768 682 792 l 538 619 l 188 186 l 60 40 q 48 -7 43 17 q 71 -47 53 -31 q 112 -62 89 -62 q 154 -37 135 -62 m 328 -10 l 328 -10 l 328 -10 q 518 -4 439 -32 q 632 76 583 19 q 704 197 681 133 q 735 328 728 260 q 733 467 747 393 q 678 602 718 540 q 576 694 639 664 q 401 738 532 717 q 324 740 363 756 q 307 735 318 738 q 278 726 279 726 q 196 683 228 711 q 108 575 142 638 q 60 442 74 513 q 56 301 47 371 q 139 101 69 189 q 328 -10 207 14 m 364 179 l 364 179 l 364 179 q 249 324 263 200 q 261 444 240 386 q 321 536 282 503 l 335 542 q 360 549 336 542 q 433 535 400 539 q 493 519 465 532 q 531 472 518 507 q 544 392 543 438 q 534 302 544 347 q 503 224 524 257 q 454 179 483 190 q 364 179 424 168 m 394 792 l 394 792 q 461 825 435 794 l 569 944 q 593 1016 597 978 q 562 1081 589 1054 q 492 1106 535 1107 q 425 1072 451 1103 l 317 953 q 293 881 289 919 q 324 817 297 843 q 394 792 351 790 z "},"õ":{"ha":792,"x_min":47,"x_max":747,"o":"m 328 -4 l 328 -4 q 518 1 439 -26 q 632 82 583 25 q 704 203 681 139 q 735 333 728 265 q 733 472 747 399 q 678 608 718 546 q 576 700 639 669 q 401 743 532 722 q 324 746 363 761 q 307 740 318 743 q 278 732 279 732 q 196 689 228 717 q 108 581 142 643 q 60 447 74 518 q 56 307 47 376 q 139 107 69 194 q 328 -4 207 19 m 364 185 l 364 185 q 249 329 263 206 q 261 450 240 392 q 321 542 282 508 l 335 547 q 360 554 336 547 q 433 541 400 544 q 493 525 465 538 q 531 478 518 513 q 544 398 543 443 q 534 308 544 353 q 503 229 524 263 q 454 185 483 196 q 364 185 424 174 m 168 814 l 168 814 q 201 822 190 814 q 226 851 213 829 q 286 885 247 885 q 326 877 306 885 q 375 853 346 869 q 436 823 413 832 q 489 814 460 814 q 574 838 535 814 q 638 899 614 861 q 663 982 663 938 q 645 1033 663 1014 q 597 1053 628 1053 q 558 1044 571 1053 q 531 1011 546 1035 q 481 978 510 978 q 440 985 457 978 q 396 1010 424 992 q 340 1040 365 1031 q 279 1050 315 1050 q 199 1026 239 1050 q 131 964 158 1001 q 104 888 104 926 q 168 814 104 814 z "},"œ":{"ha":1278,"x_min":51,"x_max":1256,"o":"m 943 -21 l 943 -21 q 1071 11 1011 -15 l 1119 35 q 1161 56 1144 49 q 1213 106 1203 72 q 1210 172 1224 139 q 1165 223 1196 206 q 1093 224 1135 240 q 1038 194 1068 213 l 999 175 q 911 158 960 161 q 796 189 861 158 q 717 251 736 218 q 708 281 710 261 q 929 281 858 278 q 1094 300 1031 285 q 1169 331 1139 313 q 1235 414 1221 361 q 1189 596 1256 506 q 1047 713 1138 668 q 925 756 989 743 q 791 753 864 768 q 661 688 718 738 q 626 650 643 671 q 571 694 601 678 q 361 732 488 742 q 197 676 264 725 q 93 551 129 626 q 53 389 57 475 q 76 234 51 310 q 161 93 101 158 q 306 0 221 28 q 518 4 436 -44 q 613 94 571 33 q 718 25 656 56 q 943 -21 833 -24 m 428 160 l 428 160 q 363 171 415 153 q 267 251 303 192 q 235 385 232 311 q 273 501 236 456 q 376 551 310 546 q 483 536 447 557 q 500 515 489 533 l 511 499 q 518 486 517 488 q 538 456 529 469 q 535 442 536 450 q 524 286 517 358 q 500 251 513 272 l 472 207 q 428 160 447 171 m 728 461 l 728 461 q 781 553 751 526 q 860 580 811 579 q 964 553 908 581 q 1043 489 1017 525 q 1051 476 1049 482 l 1050 475 q 922 461 1006 465 q 728 461 844 457 z "},"ŕ":{"ha":556,"x_min":69,"x_max":546,"o":"m 118 85 l 118 85 q 144 26 122 47 q 197 1 167 6 q 254 8 226 -3 q 299 44 282 18 q 310 107 315 69 q 283 357 294 217 q 329 481 311 460 q 365 507 340 493 q 482 563 390 519 q 531 617 518 579 q 528 692 546 658 q 474 741 510 726 q 399 738 438 756 q 265 672 289 686 l 265 686 q 235 753 264 725 q 156 778 203 783 q 94 744 118 774 q 71 678 69 715 q 83 467 75 574 q 99 263 90 361 q 118 85 108 164 m 265 839 l 265 839 q 332 872 306 842 l 440 992 q 464 1063 468 1025 q 433 1128 460 1101 q 363 1153 406 1154 q 296 1119 322 1150 l 188 1000 q 164 928 160 967 q 195 864 168 890 q 265 839 222 838 z "},"ř":{"ha":554,"x_min":57,"x_max":557,"o":"m 108 29 l 108 29 q 178 0 139 -1 q 245 28 217 1 q 274 99 274 56 q 271 346 272 258 q 272 472 267 428 q 490 560 363 515 q 545 608 533 575 q 545 676 557 642 q 503 728 533 710 q 429 732 472 747 q 263 663 318 693 q 227 719 251 703 q 174 735 203 735 q 105 706 133 735 q 76 624 76 678 q 78 344 76 499 q 78 313 75 329 q 79 96 78 233 q 108 29 79 57 m 282 810 l 282 810 q 349 835 317 810 l 467 922 q 503 994 503 950 q 476 1053 503 1029 q 415 1078 450 1078 q 360 1056 388 1078 l 282 997 l 192 1061 q 143 1078 172 1075 q 81 1051 104 1076 q 57 992 57 1025 q 67 951 57 971 q 96 919 76 932 l 222 833 q 282 810 256 810 z "},"ŗ":{"ha":554,"x_min":75,"x_max":557,"o":"m 108 29 l 108 29 q 178 0 139 -1 q 245 28 217 1 q 274 99 274 56 q 271 346 272 258 q 272 472 267 428 q 490 560 363 515 q 545 608 533 575 q 545 676 557 642 q 503 728 533 710 q 429 732 472 747 q 263 663 318 693 q 227 719 251 703 q 174 735 203 735 q 105 706 133 735 q 76 624 76 678 q 78 344 76 499 q 78 313 75 329 q 79 96 78 233 q 108 29 79 57 m 197 -371 l 197 -371 q 258 -285 235 -336 q 289 -201 279 -246 q 268 -104 294 -140 q 206 -61 244 -69 q 183 -58 192 -58 q 154 -60 175 -57 l 131 -69 q 90 -112 100 -86 q 87 -165 81 -139 q 114 -208 93 -192 q 153 -225 129 -221 q 107 -293 125 -275 q 85 -344 82 -321 q 107 -382 88 -368 q 151 -394 126 -396 q 197 -371 176 -393 z "},"ś":{"ha":757,"x_min":36,"x_max":719,"o":"m 508 13 l 508 13 q 650 101 601 42 q 685 274 711 178 q 539 425 660 361 q 364 499 506 442 q 281 538 301 524 q 358 558 299 558 q 471 542 426 561 q 496 519 479 538 l 519 496 q 550 465 536 478 q 623 440 585 436 q 687 468 661 444 q 716 525 713 492 q 686 589 719 558 q 668 607 679 594 l 642 632 q 557 694 600 675 q 382 731 483 728 l 383 732 q 267 719 317 736 q 131 646 179 700 q 79 540 83 594 q 119 436 75 485 q 283 343 163 390 q 440 278 415 290 q 496 232 492 251 q 492 201 501 213 q 442 174 479 185 q 351 159 394 158 q 283 169 307 160 q 261 192 276 174 l 239 219 q 207 256 222 242 q 151 287 181 283 q 96 278 122 290 q 53 242 69 265 q 37 193 36 219 q 63 143 38 167 q 81 122 69 135 l 104 90 q 197 18 147 39 q 294 -8 239 -1 q 405 -10 349 -15 q 508 13 461 -4 m 321 786 l 321 786 q 388 819 361 789 l 496 939 q 519 1010 524 972 q 488 1075 515 1049 q 418 1100 461 1101 q 351 1067 378 1097 l 243 947 q 219 876 215 914 q 251 811 224 838 q 321 786 278 785 z "},"š":{"ha":683,"x_min":38,"x_max":642,"o":"m 340 -10 l 340 -10 q 404 -6 374 -10 q 562 56 496 8 q 640 189 628 103 q 642 217 642 199 q 615 317 642 272 q 543 393 589 363 q 488 426 514 414 q 438 447 460 438 q 372 472 404 463 q 300 499 325 488 q 271 514 279 508 q 261 528 261 519 q 279 547 261 540 q 339 554 304 554 q 418 540 376 554 q 453 519 429 536 l 486 494 q 544 475 515 475 q 608 504 582 475 q 633 569 633 533 q 604 633 633 608 q 390 729 513 717 q 349 732 363 732 q 211 706 278 732 q 82 596 110 664 q 68 533 68 567 q 89 451 68 493 q 221 343 119 388 q 294 314 243 332 l 356 290 q 439 247 421 264 q 454 215 454 232 l 454 210 q 378 164 451 179 q 329 160 349 160 q 267 171 303 160 q 235 197 243 181 l 226 214 l 210 242 q 135 283 182 283 q 67 256 97 283 q 38 193 38 229 q 50 150 38 174 l 63 128 l 72 111 q 125 49 96 72 q 222 6 164 21 q 340 -10 279 -10 m 343 810 l 343 810 q 410 835 378 810 l 528 922 q 564 994 564 950 q 538 1053 564 1029 q 476 1078 511 1078 q 421 1056 449 1078 l 343 997 l 253 1061 q 204 1078 233 1075 q 142 1051 165 1076 q 118 992 118 1025 q 128 951 118 971 q 157 919 138 932 l 283 833 q 343 810 317 810 z "}}}
